<mxfile host="app.diagrams.net" agent="Mozilla/5.0 (Windows NT 10.0; Win64; x64) AppleWebKit/537.36 (KHTML, like Gecko) Chrome/132.0.0.0 Safari/537.36" version="27.1.5">
  <diagram name="PÃ¡gina-1" id="FQFwl0AowWUtmeLoYEAZ">
    <mxGraphModel dx="1584" dy="814" grid="1" gridSize="10" guides="1" tooltips="1" connect="1" arrows="1" fold="1" page="1" pageScale="1" pageWidth="827" pageHeight="1169" math="0" shadow="0">
      <root>
        <mxCell id="0" />
        <mxCell id="1" parent="0" />
        <mxCell id="WSG69TyrN-b5efc3GzdJ-1" value="" style="shape=image;verticalLabelPosition=bottom;labelBackgroundColor=default;verticalAlign=top;aspect=fixed;imageAspect=0;image=data:image/jpeg,/9j/4AAQSkZJRgABAQAAAQABAAD/4gHYSUNDX1BST0ZJTEUAAQEAAAHIAAAAAAQwAABtbnRyUkdCIFhZWiAAAAAAAAAAAAAAAABhY3NwAAAAAAAAAAAAAAAAAAAAAAAAAAAAAAAAAAAAAQAA9tYAAQAAAADTLQAAAAAAAAAAAAAAAAAAAAAAAAAAAAAAAAAAAAAAAAAAAAAAAAAAAAAAAAAAAAAAAAAAAAlkZXNjAAAA8AAAACRyWFlaAAABFAAAABRnWFlaAAABKAAAABRiWFlaAAABPAAAABR3dHB0AAABUAAAABRyVFJDAAABZAAAAChnVFJDAAABZAAAAChiVFJDAAABZAAAAChjcHJ0AAABjAAAADxtbHVjAAAAAAAAAAEAAAAMZW5VUwAAAAgAAAAcAHMAUgBHAEJYWVogAAAAAAAAb6IAADj1AAADkFhZWiAAAAAAAABimQAAt4UAABjaWFlaIAAAAAAAACSgAAAPhAAAts9YWVogAAAAAAAA9tYAAQAAAADTLXBhcmEAAAAAAAQAAAACZmYAAPKnAAANWQAAE9AAAApbAAAAAAAAAABtbHVjAAAAAAAAAAEAAAAMZW5VUwAAACAAAAAcAEcAbwBvAGcAbABlACAASQBuAGMALgAgADIAMAAxADb/2wBDAAMCAgICAgMCAgIDAwMDBAYEBAQEBAgGBgUGCQgKCgkICQkKDA8MCgsOCwkJDRENDg8QEBEQCgwSExIQEw8QEBD/2wBDAQMDAwQDBAgEBAgQCwkLEBAQEBAQEBAQEBAQEBAQEBAQEBAQEBAQEBAQEBAQEBAQEBAQEBAQEBAQEBAQEBAQEBD/wAARCAK7BFMDASIAAhEBAxEB/8QAHgABAAEEAwEBAAAAAAAAAAAAAAcEBQYIAQIDCQr/xAB0EAAABgECAgQGBw4RBwcGDQUAAQIDBAUGBxESIQgTFDEWIkFRUmEVMlNicZGhCRcYIzM0OGNydpXR09U2QlRVVldYc4GSlJeisbW2wSQ3grK00uElQ3eTlqTCREVkhaPDJjVGZWZ0g4SGpbPExSdHdYfx/8QAHQEBAQEBAAMBAQEAAAAAAAAAAAECAwQFBggHCf/EAEgRAQABAgMEBQgFCgMIAwAAAAABAhEDEiEEBRMxBhVBUdEHFBcyVGFxoRZSkZKiIjM2QoGTscHh8HJz0iMkNGKCsrPCJWPi/9oADAMBAAIRAxEAPwD6pgAAAAAAAAAAAAAAAAAAAAAAAAAAAAAAAAAAAAAAAAAAAAAAAAAAAAAAAAAAAAAAAAAAAAAAAAAAAAAAAAAAAAAAAAAAAAAAAAAAAAPKUtTUV51B7KQ2pRH6yIavXHSI1PTouw5iNRGucsZ08PKra1fmsxFRFLZcJlbDBsrbfeU604fVr6pokoPdfMknYiZ5DaYBEGkGo2RZPkub199Z9qYqrCvYgJ6htHVIcrIrzhboSRq3dccVurcy32LYiIisFP0k3Y1VaosMely50dKl1JSJzZKs3l2z8BEfibjoQ3wuIYLfhUZJdTxcRkalXLPJLp+AQW70h8uWViUHTapcdeyZ3E8dbeyRbR2M1lb3XOSD7IZRmEtsKWSkdeszJSer5Eas/wBL9RndQMdVYWlEdJbQpkiss68pPaEMS2HDbcJt7hR1rRmXEhZoQakqSZpQe6SmWVZqAAIAAAAAAAAAAAAAAAAAAAAAAAAAAAAAAAAAAAAAAAAAAAAAAAAAAAAAAAAAAAAAAAAAAAAAAAAAAAAAAAAAAAAAAAAAAAAAAAAAAAAAAAAAAAAAAAAAAAAAAAAAAAAAAAAAAAAAAAAAAAAAAAAAAAAAAAAAAAAAAAAAAAAAAAAAAAAAAAAAAAAAAAAAAAAAAAAAAAAAAAAAAAAAAAAAAAAAAAAA+YPzS75ojmunWYS+j1oTbnT2Fe0jwiyBjnJadcQS0xYyu5vhQpJrcLxyUfCRoNCuL5rQ+kRr5X3XhHD1qzlq0NRKOYV/K65R++Vx7nv5d+/y7jK+m1Q3mO9LjVyDkDTjcl/LrGe2Sz5nGkvKfjn8BsutmXqMhCYD7P8AzOXp/X3SBjTdIdYpLTuYVsQ5MS0bbJr2TiEZJX1iSIkE8g1J9qREpJ78O6FKVslkPRqxy3x2uxutyzKamFEx88YlrrpTDb1nW8BpJp9amVGk0mpSkuM9UsjUrZWyjSfxl+Z019zJ6VWNWdUS+pqIs+VONJ7bMKjLZLfzl1rzX8Ow+/GLvrlVLDjpbmaC3HXWKYqTnoiCJoVaU+YycsxrVTM6RmwkRJM+pis1TsSUphptkiUb8Jx9JLbaSlXA6nymnhPmK5fR/wAUdsMVtyetjkYjYWFjDI5RJS+uW6t1xt9KUkTjaXVpcQk9uFTTatzNO4mjgR6JDkkpLuSQznksh+doZWTsddpY17d1cn2afyGJaQ3Ge1wZzrq3FLa6xpbSk/TFp4HG1pNKjJRK7xftNtPYun1S3QwJc+cZvPS5c+e4lcmbKdWa3n3TQlKOJa1GeyEpQnklKUpIklIWxeYgJKSPciIM8yWiAuREOQAYUAAAAAAAAAAAAAAAAAAAAAAAAAAHVa0toU4s9kpI1GfmIhj3zw8O8AlanezBeDSK1Vuqd1DvKITZuG51fD1ntSM+Hh4vVuL7NJSob6UkZmbSiIi7zPYxozm2CyXdMqWrzzTDIcidVpf7E45CjUkmS/V3fUu9fuaS/wAifWhTKEvrNrbq1o6wt+FWqacyTNm1mU68aY4dZRqm5uLJyTIitz3CrqKfYIhRVnsh+YuMy4iG0rZRkuQbaTJDh77IUZZ1FlxZrDcqJIbeZdQTjbjaiUlaTLclEZcjIy57jWKhymXpNkWSR8nw3LLNOWHCn1r9Pj8yyS+aITMZUN5TCFpiqQtojI5BtNGT25K8VzhxLVnD33b1ZTdJrLwkfxiqjaevVdY5Mi4xZIW4chDUxlBs1/Ao45rdV1KXm2ySXWEg0FqaOwv2tz9y84bl5xpo1opSX+TU9xlWmyLGXOznICt35depZSKp1uWaGH9y2XCW4TKyaXuypw0K4TUZGI/1AwXPpWM4pDt6N84MTF0VlCxIwCfkUyqtESXeF2IbEqP7FySb7NwSnjJBE2kusbJJ8ThyXfQvcvOLZj2TUeVV6rShnFKiokyIZr6taNnmHVMup2WRH4riFlvtse25GZbGNTF6ZHNyyx1Dn4S/My2Ln1K9BuXK8zlsw+ywmZSmXC4jQwtPXk6SVGg/G4jPh3KP8m09jN4tEwKDolUIi+zeUOmm102n3UE5rkszjcENhyOw2txhxPV2DijbbSg2yWndQcOUzN/rKwj1UB+xlIkLajoNa0xozkh0yL0W2kqWs/UlJn6hUEpKi3IxpMrArW9xnKckuMLnz8lLTajqq+TLrVuzEPkzIKS2yak8ZOmakk4SfGPxSV5BdKehlx9aYU8sCuW9QGssmzbLKvYl5qO7jam3CajKsTSbTrXCqMhMMnDUlxvrOqTwmsOH7zM3GAUdbIVIYJS+8Vg58mgAAAAAAAAAAAAAAAAAAAAAAAAAAAAAAAAAAAAAAAAAAAAAAAAAAAAAAAAAAAAAAAAAAAAAAAAAAAAAAAAAAAAAAAAAAAAAAAAAAAAAAAAAAAAAAAAAAAAAAAAAAAAAAAAAAAAAAAAAAAAAAAAAAAAAAAAAAAAAAAAAAAABHcnpGdHuHkCsSl676eM3iJXYVVjmTwUyyk8XB1Jsm7xk5xeLwbb78ttwEiALXVZRjV651NJkNZYOdQiVwxZbbp9SpSkpc2SZ+Kam1pJXcZoUXkMVUq0rIMiJEnWMWO/PdNmI068lC5DhIUs0NkZ7rUSEqVsW57JM+4jAagdPHoBY10p2Y+a4/Yox/Oq2P2Zqcps1x5zBGZpakJLnukzPhcTuZEoyMlESST8yGvmcWvx6g2OnkuXjTEupgwrGVJOY6pns8p2S22pOzXGZ8UN/kaS7k77b8vv+pKVlsZEZCDEVUJ7pQ58TjCTIsDw4y5eU7HIt/wCohumaeVUJPuQL0QOhvR6E1KokBTljb2KkLs7V5vgN3h9q22nnwNluZ7bmZmZmZ9xFvFVw0wYbcdJckpIh1rq+LFZT1LSU8vIQrhcTEz6RyIiwADF8n1T0xwm6rMbzPUbF6G3ulJRWQLO3jxZM1SlkhJMtOLJThmsySRJI+ZkXeOasoAUsW1rJ0mXChWMWRIgLS3LZaeSpcdakktKXEke6DNKkqIj23IyPuMVQAAAAAAAAAAAAAAAAAAAAAAAAAAAAAAAKN+tZeMzURbmKwAvYWxNJHSkyIi5jkqZnqzQfMXIBbyLc1TR2y5EQ5XTx1pNJpIxcBrz01Ol/jHRC01aySZARb5PeOORcfqFOcCX3UERuPOmXMmWiWg1cPMzWhJcPEa0ryJ0ZpY7RckkDtLHc7yIfAnKvml3TOym8XdfPil1COtNbMGrhsR4zKd+SCSSDNZF51mpXnMxuJ0EvmpWV53mNdo90i34UmdcOJjU+SMsojG7KUeyI8lpBE3uszJKFoJPjcJGk+LiTYmZH0xZo4zPckhy7Sx3D3Mi3FbHkNyWydbURkZb8h6iXkeUeOiO2SEj1AR5a9Iro+0eQPYnd666e195HkFEerJWTwmpbb5mRE2plTpLJe5kXCZb8xBIYDhKkrLiSojI/KQp37OtizY1bJsIzUuaThxo63UpcfJBEazQkz3VwkZGe3duW4CpAAAAAAAAAAAAAAAAAAAAAAAAAAAAAAAAAAAAAAAAAAAAAAAAAAAAAAAAAAAAAAAAAAAAAAAAAAAAAAAAAAAAAAAAAAAAAAAAAAAAAAAAAAAAAAAAAAAAAAAAAAAAAAAAAAAAAAAAAAAAAAAAAAAAAAAAAAAUdvc1FBActb21h1sJo0pcky30stINSiSkjWoyIt1GRFz5mZEArAHG5ecUzFnWypkqvi2EZ6VBNBSmG3UqcYNaeJBLSR7p3TzLfbcuZAKoQxkvWp6TFYppZpPwHmc9/J29gTOPCVGKSnhMWmbSNEK/IJVNIvM1fy+9LJJGC08xTi72Ypa4rNvJKS8ljrTSaW2yRxrSjxSWe5l1iuLNfnpeHepjd3iV+q9r4eZGmlfbkG9CcI8WcWRxlkZoU0pxZnxN7pNXF3mRiedQNRcGwOwh0dxJnTr2e0b0Olp65+xsH2knsbpMMIWtLZHyN1ZJbI+RqIWGn1gwawvYWN5BAyXEbKzdJmvZyWlfgNzXT7mmX1p6hx0/I0lzrD9Edc1MszEox6NOdnZZTBYxzUO+ytEnGu1Zs3ZW79gVXkHXNl1JoeWZQHT4pSVQ20toQTSfpaNi3keA51vSdz1fnwLDf7RyMSmmjaUpK21bkXrEWwWya6T2fILyYFhv9o5GMTMTOixftZ3qNqDG01w1WQKq37WdIkx62qrI6iS7YT5DiWo7CVGRkglLURqWZGSEEtZ8kmMVj6Q6jZG2VpqHrrlLFm94/YMVNiurYJnz6tolNLfe4e7jecVxbb8CN+EvHXuUzQp01zyzLakxPNo063cMt0sRpMGbXofX5kNPzmHVK7kJbUszIkmYmEYVDDWUZ1o1lVLiuomTu5bjOUSVQKbIZERpidDnE2txMScTCUsuJcbbX1b6EN+Ojq1JNS0KVFmvGQYpjOX5m83qfjdDMyyvYh2eJ5pWokNZSyiPwtlUqakMyTWslqjqJJvklzbZglHu5IXS8uoScQxbCWV8V3kOXU8ivQkt1oar5jM6U8e3tUEzHU2aj2LifbTvusiORcM660oGSeM99u8x0in8nNKe5rc7YZDkmYVuHSsiyukqJWTwor9dEvZkWQzF8GjdOJ17TiXUfTSJRqSpKuMjVvxHuLLY5w1BxvEanVDVzKqDHocHII9daoySVCkz7aLONmE09LQpLkt8mErNLDi19eolKU26ady3FRQo28bmY9FUjZo4SLyecWaqZ7EtLS2PqZkj2QrVl+ouRQtSifxpdHi7Vy7GakvLiRTsUlXpWTclGy3VPIUlaWSLrC6tRms7gzqPlkS01SRgeZSMky5imt345xMumzzivkvdhEyjfZNFS6jckMlHJXXk24pSFciG00XAKursbG1r4xtS7d5Eia51ildatDaW0nsZmSdkISWySIuW/fuYu3sAnhSRnzLvC9JaWu/RQzu3uJ2TMN5dVXdCg4Zxk1+b2OWojSzSvtBHYzYrJkaiJozjpWvqj35NkskjaBtfGglechaUUDSHyeIi3IXdCSQkkl5Biq3YrsAAMqAAAAAAAAAAAAAAAAAAAAAAAAAAAPjV82yO9+f8A4QT/AF/sL4Ho7Lvv1Xau2yev28nFwdn39XCPsqNcem/0RMd6W2mbVDIloq8monHJVDam1xkw4oiJxlwu82nCSglbcyNCFFvw8KkD88ouOOHcpyCsVjpvFalMZ7D1O/Wdfxl1fDt5eLbYTRn3Qd6S2nWTQ8YutPXJD1pOXX10iHLZdZmOpZcePgPiI0/SmHV7LJJ7IPchs/0Ovmf2T41ltfqRq9EYRPrXEv1lK0tL/Uvke6XnnEmaN0HzSlJn42xmZcOx9aMKqZSZh9WNMLV6wqEdcZmaeW5jOBiuBUKqWqbbcTsoy3MZUM4lpqmxHIEFaqu2sbXnGpFKnjnt4RkS4yNt+J0n4HCX8KthOTzzMZlyRIdQ000k1rWtRJSlJFuZmZ8iIi8oiOR0jMFu0Ldw/HM2y6tbUaVW1DjMuVAXt3my/wABIkp99HNxJ9xGZ7kM0zaVaz6Oak5hKYtTnaitPT11cdyXEq86s8gmN5MchPVNOMSYzDVctS+sbcricS3wkZdWhKFLGdy7RqbmmmuR5JklgnN4jmQRZERd9KjRiulRkOFDbik8ba2+FPE02aV8TRJXsrc1HPWE5ZgepsFy2w27TMTEeOPLYdZcjSobxFubUiM8lL0dzYyPgcQlWxke2xkMt9hW+HYvN5x0vSzZrD0as7VZZVBYx3UO9ytuTjRys2bsbd+eVXkHXNl1PA8oygOnxSiVDbS2hBNI+lo2Lfa9h3rmiX5xaioi4yVv3C7Mtk0gkF5BmqYnksXh3AAGFAAAAAAAAAAAAAAAAAAAAAAAAAAAAAAAAAAAAAAAAAAAAAAAAAAAAAAAAAAAAAAAABhj2r2BVsfJ5+S38PHa7EbFNZZWNzKZiREuqZZdSonVr4SSZPoTurhPi3LbuM8UT0lMbs4NW5heFZTlllbuWXZaqrTBQ+ceDK7M/JN2TJZjk11ho4d3uNROJMkclcKwl4BiOI6qYTmVOxb19w1FN1mQ87DnLSxJjFHc6qSTrZn4vVOEaFqLdJH+mMjIzooGt+mM7LXcJXl9VDtjkNRq9iVPjtqtlORW5JKhp6zifSTbqTM0ly5+TYzWsM7AY1E1M03n5VLwWDqBjcjJIC0tyqZq1YXOYWps3EpcYJXWIM20qWRGkt0kZ9xbjwr9WtK7Zi3k1WpmKTWcflFBt3I9zGcTXyTXwEzINKzJpzj8XhXse/LbcBlgDD4+smkMvDHdR4uqmHvYnHcNp2+bvIqq5tZKJJpVJJfVEfEZFsau8yIVr+pGncV2lYk57jrTuSJSqmQu0YSqySrbhOMRq+nEfEnbg333LzgMjAY/jOoOBZrJs4eG5vQXz9JJOFZtVlkzKXBkEZkbTxNqM2lkaTI0q2PkfLkMgAAAAAAAAAAAAAAAAAAAAAAAAAAAAAAAAAAAAAAAAAAAAAAAAAAAAAAAAAAAAAAAAAAAAEDdIt7Isxv6DSjE8UpcjUUeRfXcK4uXayL2RKFR2EqeajSV8ZvOm4hPV7bxzPiI0lvPI8JUYpKOA+4WBqBD19mUUeqaz7LHKiyi4he4/LYROcNqVkMNxhJIYMyR10haErcaLgS6tCzUlJcyLG/Z2HQxsztlZ7fwJtxGw2Vk8zwlmHIi07sdlEqYgjcV2RBkTxKlNk2aCJxROJNG5T5b5DnWfZhbYPo4xUV0HHHkxLvLLeMuXGbmGklLhQ4rbjZyHkJUk3HFOIbbUok7OqJaEeF1i/SFwGGvIa3IqXUmJEQbsujOoKrsn0FzPschLymTcIt+Fp1siWexda33jpmpvdLSjDT+6nZhm2N08DUHKrTBIdndSqGYzks0ztojCYCmesmIe62cyiQ5ISlbi1k4hPCo3EmfFtzXyFyGesX5S3GG4Fe4zqJjddl2NTjkV9mwmQyakmhaSPvStB80LSe6VJMiNKiMjIjIxnDDJMtdWXmGa7dhCJui9BRZ6WVurNifaMh1OYZyu0luERu8EpHWxYm+25NRmFtsIR5CQZ+2UozkfLcTx/OsascRyqsan1VqwqPJYcLkpJ8yMj70qSZEpKi2NKkkojIyIxDON5WfRnbe0+zapuZGDsSn3sbyCur3ZyIER1xThV8xlhKnWupNZoaeJCm1NEglqQtJ8XGY9LLGZtY9U6LwbDK8jlINuK+5WSY1XBWZbE9JkvIQlSU9/VNGtxRkSdkkfGUiiqeUF4XDo05xd3WGJocntXbS0x2xs8dk2D23WTV105+EchexEXE52frD2Ii3We3IVDDai6Tmevbo4V4Jh6SIlkatysMiM9077kXMtjMtj57dx7Wjo5YHIw6hh1jkuRMVHQZvzH0kTsuQtRrefWRbFxuOKWtW3LdRi6RfF6UOf/eFhv8AaORjeJTFNViEsy6yDc08iqs4jMuJMZWw+w+2S23W1EaVIWk+SkmRmRkfIyMap4tS6zUeT6jYZp1q/b1eNYhkzFJU1cyFHskw4y6atmcDT0hKniJK5riUpUtSEoShKUkRc9t431FIhjTFKVan63EoiP8A/qDE/utQjFE2nUlimH6J3juRvZXl19bZHfy20sv21s4hTxMkriJlpDaUNMNcW6uraQhJq5mRnzGw9JWN1UJuM2WxJIiEYWOdahZzltrhGjEamroeOupiXeW3MZcuM3MNJKVChxW3GzkPISpJuOKcQ22pRJ2dUS0I87WL0k8AiOZDCySk1MhxUG7LolUxVVk8guZ9jkIeNk3Nt9mnWyJZ7F1rfeNV4k16dhEWTGAxvA8+x3UXGa7LMZmG/As2EyGVKQaFpI+9C0HzQtJ7pUk9jSojIyIyMZIOcxZQAAAAAAAAAAAAAAAAAAAAAAAAAAAAAAAAAAAABwZEZbGXIcgAhHX2jgSs70T6xlJ9bncxKj27yLGLxX9aSEj47jNXFbJ1qMkld++wwjXT9HWh33/TP7rXwk6m+ti+AbzTYV6UpQXCktiIcgAwIh15ht5pd4Do7Zc6HMLeQ7kDB906uhRXHzhq9468UcnC7lNJdQZGSzEtMMMxWW40ZlDTLSSQ22hJJShJFsRERciIi8gj7WvDMiyOnqMmwVyKjLsMsyu6RMtxTceU4TLjL0R5SSNSW3mH3m+IiPgUpDnCo2yI8Yj9LzSOCaKzPlX+GZETa1PUltRy1SN0cJOdQtltbUtBGtJcbC3E+MXcZ7CxEzyFHr1Cj4Dn2Dax4+23Es7G2bxS+6suH2TrnmX1sJc29stiQhtaFHuaULfSWxLMTPR2KbKA3JSe/EkjGrGWZtd9ILPKCZAxyyqMIxWQuwrSsmFxpttYracZKQuMoiWww0066SEOkTilucRoR1aDVs3h8J2DTsMukZGSSHSqjLRF+aRN5X0AGieOWMzTzTrC8PnS33qTMMqqbemdfdU52ef7MIdlwyMy5JURG+2Rmf8Az6S2ShJDEU5i9m9gDVCPqjqLaWcefI1FlKjZbeZFjK8fahQSTTsw0SialR19Sp03k9nbNzr1uNn15bIRyIR4Wq2pWBaVYZDxLN84mHi+HU1hNKHX48mGlUhWzabJ2ZwPONKJs20IgNpdSlKjUtxakbXhyXhvkAt9VaJsWiWXlLcXAYmLKAAAAAAAAAAAAAAAAAAAAAAAAAAAAAAAAAAAAAAAAAAAAAAAAAAAAAAAAAAAA1szPBc7qcrn53Cw6TeIrs/8Io1VFkxEv2EVVM3D6xo33ENJcbdUpRE4tvckK2PmnfDvna5BGw2mi5PolOu+x2NxMYjYtdsV15TOyZ7rzao00pcQkMrZXwuJbfQr2qTStJqJO37sZt491kKcquMkzMklufqHSK7RZLatUzxrWqjiVFgvD5uRzZWNXlCbbl1HckVhSX23IRTHn3E9elDTaW3XW1OucZb7O7m4LcxpzqMwuxxxOnJEeRuYx/y+UuGbdcmtjRjcN4utJ4zS404lrqkL3cUZnwJ2We3qaqMW/ilz9Q49iYnoELxISzSnFr2NkOotbpPRO1Uy5xO7yeTPu6+2gzFoROakmTjjcdxT8dXWPNocKQhk+tbIkdaRcSaTGdFNTXKX2FyOny6cdVV1WOoTezsfKJJjMWEd1woqK6O245HJDKlJVLWl3ZRp6riUoxuxKomnuEkkREXmHuinjJSkjSW5BngytU9RdLdSX720zHFWb+CuLmrWQsIxxypKwmNnTIhKcZTYpXE40uGe5PEg+FKjSoj4eKv0t0syykk0D02tnxFRcYvIKn58yG/JiSJ85qQSF9laaZJWyVGZMtdWjh4UqUREatpOwR9uHhLb4B0RWRkGZkkufqEzwtmtmiWI53UZHjsq/wABViLGG4iWJuGcuK8m4dJ1lRPMFHcV/k6epWpBvJbd3fV9LR42+zMRanGUqV3jyVWx1LJZp5kKlKSQkkp7iGaqrkRZ2AAGVAAAAAAAAAAAAAAAAAAAAAAAAAAAAAAAAAAAAAAAAAAAAAAAAAAAAAAaYX+B6ZsYvrNqtLwyiYzSqyq6eq8mZr2EXDEptLfZUsS+HrSUbhpQlBK2VxcGxkoyPc8RxYaD6Ru5r88ZjSnDU5UcjtR3hUUX2QN7bbrO0dX1nHty4uLfYapmInUQVI1x1tb1VeYKFex6ilyKroJDCnKBmlfZkR463lvqkPosil8T6zaSyXVnwNp4HN1KFcnWzUnFGMzyC6yS3snE0tjaUzEiLUvULyWXUkl6vfhqKWTTSXGydRO8ZalfSzIkq3nCx0kwq2yWJnVlh9JJyaC0bEW4drmVzWGj33Q2+aesSk+JXIj25n5x1p9IcGx2ytbvH8JoayyvzJVvMh1rLL9gZb7HIcQklOn4yvbmftj843+SmqMbi61Fq8jxHAq3pBWNoq0vVnZzDran2TjxPY96QlhXBH6gkqcaSaFdQlfVmouJZ+MMexLP8vvUuUUfUdvT+Hj7FjfOTo9bWlGnbW8xo25LbrXCmOhDKTcU0bLqje4jeSfM5PtcZ0k0IxNidX4TS0ldBmf8l1tHSstuvWEj6UluIw0kt5DvFweLsZkZ8RkklGWH2OmWqGaMVlnP0F0fhtU8xVlT1d/LVLlw5Kl9Yb3WsxFsxXzX4xqZ67ZXPjUfML02NWNnrxnydZat2uvcqsMYs76yo0tvQKSPRP8AZYr6lIikTqrZUhDzHCpxzZlWyzSkkm3vkGimqueWeRYuWSZ6rJo+c4q7ksiGqFFZTRPodZSTMdUdtKjYPr1o2fW65xMGfWd5C5YHW4Fe5tcIyDSWkw7U1o2J1uhcKM5JmI2U2zMZmtoI5bW3WIS5yWg+JC0tn4okbHNKsPxKbYWWK4nS1Eq6f7VZyIFe1Hcmvc/pjykJI3Fcz8ZW58zD8myasf6Lj0c9KVQTMvZOBkeQR7lJlsv2R9lZK31r8u7il9aR/pkuIUW5GRiXBDOaaXZfQ5TM1L0byhmgvbRtpFzAnw1Taq36pPC248wlxtaJCUESCfacSZpJJLJxKEJTDrOddIbXvG51Td3VRilEu0t6GezjMZ9FhM7FPfhOkmY66fZ23DjrM+rbJ0iWXC6gy3OU4c1Tot7My6Nl2xItcvco1f8AIc/Mr+TW8PJtTS7B7jcR7xx7rnEmXJRLJRcjIbKpPdJGIp0h04jYhXRIkWC1DixGER40dpBJQy0hJJSlJF3EREREXqErEWxbC4tr2ghE/SwQtroyatWEZ1xiVDwa+kMPNqNK2nEQHlJUlRcyMjIjIy7jIXeJp9SPTlq6gvFV3C19LL7FjWP7wMg/s58Z9WfXb33QzTXNPIsrK6ri1rJMx2ySReYhEUf7KLP/ALwsN/tHIxNIhqOtKuk7nrfVIJScEw9RubnxKI7DItiPntsWx7bFv4x7mfLbN7yqYI31FIhnTD/Ofrd/0gxP7rUImaN9RSIZ0w/zn63f9IMT+61CEcxX9FxxhOlKq5exWlfkeQRrpJ+3Kx9lZK31r85uKX1pH+mS4hRbkZGJcEN5vpll9NlczU7RvKWaG9tW2UXMGfCVNqrfqk8LbjzCXG1okJQRIJ9txKuEkpWTiUISmG2c66Q2veNzqm7uqjFKJdpb0M9nGYz6LCZ2Ke/CdJMx10+ztuHHWZ9W2TpEsuF1Blue4w5rnRL2Zl0bLtiRa5e5Rq/5Dn5lfya3h5NqaXYPcbiPeOPdc4ky5KJZKLkZDZVJ7pIxAlLGx7QXBUZBY08pNdWoZhw66rjpW6aeSENMtmaS8VJb7blslJn5BJ2Q6u6VYdUw7vMdSMYx+vnsJkxpNtbx4bTzSuHZaVOrSSi3Wgty8qk+chcW17QQy4BjtvqNp7QW9Nj97nePVtpkZmVPBl2bDMiyMtt+ztqUSntuJPtCP2xecR/M6SUOHbXjatJ83cx7G7R2ptMnSupKvjraNPWudWqcUtTaeMtzTHM+8yI9hysqYgFkXmuKJjFKTkNc4lch6G0lEps1OyWkrU4wjxvGdSTbm6C5lwK3ItjGG13SK0sucEsc7pcgj2SaasYtbOphyo71lAbeaJxtt9lLh9U4aT3JKlER89jMuYCTQGHS9XNPaamXf5ZllLjVemzcqESba2hstOSUOKQTaXCdNHGo0ns2Zk4WxkpKTIyKqmaoaaV2YQtPLDUPGYuVWTRPw6N62josJLZkoyW3HNfWLTshZ7kky2QrzGAycBjzOoeASb+zxSNnOPu3dJHKVZ1qLNlUqCwZbk4+ySuNpBkZHxKIi5i3Vus+j1zic7PajVfDp2MVijRNuo17FdgRVFtuTshKzbQfjJ5KUXeXnAZkAoaS9pMlqYd/jlxCtaywZRIiTYUhD7EhpRbpcbcQZpWkyPcjIzIyFcAAAAAAAAAAAAAAAAAAAAAAAAIh10/R1od9/wBM/utfCTqb62L4BGOun6OtDvv+mf3WvhJ1N9bF8AvYLgAAIOFESiNJluRiBtUcYr5/SI0+acbLZ3E8pWfLvNMmmIv9YxPQh3UH7I3Tr7zssP8A73RjVMzTOhzZljeDVEBCJCGUmsvKZC06ganWWO5DWaa6e4sWSZlbRlzUxnZBxoNZCSrgOZOfJKjbbNfiIQhCnHVEokp2Q4tGd1v1sn4CEY6WG2etOtXb9vZT2Ypuz8XtvYj2Ijdn2952v2U28nFx+sKqpqnUtZ1eY6VdS0dsVzpdknAXGqkZp59S4oi70InrlyUmryEaoySM9t+EuZc6e2un2q2JsJh4c1Vew042JOP2MBpt6lso6+JTami3QlxCzJaVoM0qJSHEKUlSVHLQ1wat267pZZ4zSrLsb1LjvsiSD5eyu0zrOL33ZPY318PB6haIvNoSUpRdJ8Nrskm5nXYlSx8gs2ijzbZqvZRMlNFtsh18k8a0lwlsSjMuReYWt/o/6UOLhO/OvxE3K2O9FhrOkjcUZl0zN1ts+DxELNSjUlOxK4j333EmR19YylZ+Uh6iZ5LLXTVfscjgLkRdxC6AAkzdQAAQAAAAAAAAAAAAAAAAAAAAAAAAAAAAAAAAAAAAAAAAAAAAAAAAAAAAAAAAAHlKlRoUZ6bMkNsR47anXXXFElDaElupSjPkRERGZmPUYB0gqO7yfQXUnGsaacct7bEbiDXob9uqS7DdQ0SfWa1J2AfG3pjfNLdYNac0saHSfLrbDcBgvrYgt1j64kyxbSZl18l1Oznj8z6ojJCUmRGSjI1HAem/Sz6R2lN8xf4frDlDTjLnWLiyrF2TEkecnWHTU2svhLct+WxiJVJNKjSrvI9jHAD9D3Qv6WtT0qdKIuYLhs1t9DdOBdwGzPq2ZaUpM1NcXjG0tKkqTuZ7bmndRpMz2JI9y3IfIf5jxFvK1rOrwyWVZYTq6Iwe/im8yh5TpbefhfZ+Mh9c4qjWwhR+YbrptET3pEvYAHnIkx4bDkqW+2wy0k1uOOKJKUJLvMzPkRDCvQBa6XKcYyQnFY9kdXaEyezhwpbb5IPzHwGewugAAAAAAAAAAAAAAAAAAAAAAAAAAAAAAAAAAAAAAAAAAAAAAAAxaNqhgcu7yjHI+RNLs8MbaevIvVOEuI260bratjT45GgjPdHFzIy7+QykaqalYVmVfeaoamYjjE+TexbBbbEVtrgXeVblTEQ9HaNRbOGTjfG3sZF1rJo3LiULTF5sNn6m2r72rh3NVIJ+HPjtyo7nCaeNpaSUlWyiIy3IyPYyI/OPCkyWkyJM1VNNKQVdNerpP0taOCQ0eziPGIt9j8pbkfkMxpbmuMTpSoTdtpzfWWVqw2khYFZs0z75UFo0Su0H2lKVIrVks2FOLcNonUIJG7nAaC8sjxCuraW8xiLo5Vpi2GoU2bauTdPLC5rXTcaNceQ7XQ+pKxQo1EknTUttleylcKkeLvhs5m40jUXDYmeRtM5FySMkl1yrViEbDuy4yV8BrJzh6vfcj8Xi4jIjMi2IzHXFdScLzW1yGlxi67bMxWeVZbI7O62liTwEvgJa0klzkZbqbNSSMjIz3IyLTHH6nUbFMfqM0awO+l32DY/BVFrYdcthcg2p1g07DZbUtZEXZpHiN9YsiT1WyjLZR1eVaf57Bxe1q1VbciGdrSzcjTKxiReQ7RHYVnKNdey427Pb7UtKlNNrM9y3NK+E0G4a3bxypUeFFemyXOBlhtTritjPhSktzPYuZ8iFpxfNMdzKBGtcclSJMKbCjWMaSuE+y08w+k1NqQtxCSUZpLc0kfEncuIk7lvphR4ucfEMLjaiYRdZPikRu8bqqlnDJjCa6a/JQqucRWddJdgtttJdQwt1STjJUni7P3FSz6DJ6nAoNdb6dvzYD9DiNdPatcWsb2LGSwxL6zr6qItDs8kLNtCmeI0oU4hxZGSA4doLt9NyPuMciBeikzeY7phExq7qvYxyFZ2aGYjdYuuYZjnMeUyliKpxzqGerNPA31iiSkyLc9hPJcy3GKqcs2WNUTZ83Hm9IrSeFbpSqBGqsls4SVlun2XbTBZYMt/05RJNnt5duP1iWhheqenjGoNLDQxYvVN3RzUWtFbx0JW9XTkJUlLqUq8VaVIccbcQfJbbriD24tyid7pB6047azMIu9JMZvMjrIkeW8/V5MuJGcZfW8hl5bLsdbsdK1R3yJJG9t1avGULTTNXJL2V/SQkR6XUfR7IK7hTdqubOtdUkvHOpcrX3XyM+/g7VHrjPycXD6hNWPzVT61p9XepJGNZ8fxPPdQs9TqNqS7Dfu0xjgQIsBtaYVRDUtK1ssGvx1rcUhtTrqtjWbbZElCUJSWzdJB9j4DUf0UkQ6V05KYieaRN1epKVFsotyEHdHSLHViFmo2kmfh7nPk/+lFoJyEJdHP9B1n9/mdf3otBzpaTU2hKEkSUkQ7jgu4vgHIyIp6WX2LOsf3g5B/Z74z6s+u3vuhgPSy+xZ1i+8HIP7PfGfVn12990LAvAhaP9lFn/wB4WG/2jkYmkQtH+yiz/wC8LDf7RyMI5iZI31FIhnTD/Ofrd/0gw/7rUImaN9RSIZ0w/wA5+t3/AEgw/wC61CEcxM6EpU0klFuWwhHo6xY6sQtFG0kz8Pc657ebKbQTe19TT8AhXo5/oPtPv+zr+9NoLSK7V7Bs3zvL8ZhU2S2+J0FExKtXbiqTXuyXbBSSYZjk3MZfRwE05IUpRtd5o4VEe5CMcR0xziBb1ddklGuwg4rjuQY1XWUxyKpcyO+5F7KtSG+EkqUyhbayJtCSNtXipSpO+1K2kOoIlkPJcBhe26e4WmqyTDTu00w1Oi4+9iTenirJzLsKosdVapnQ0t49JhEvjVI43EuqQlTpOtnHJ4zcQe/B4qjy7D9A4M7I8lv83jZC89YZRKsY8M8psPYySx9L6pxyvbk9kVuadzJxozMyI1FvsY2VXXR1p4TSXxA1XR2tjSkuXqGprSIs1d8ENVImUV+PLwF5FTVZra5Cu6OwiHGkxZkWb1ZNNk715OJckIQ4lbaSIzI0mstzTiVPpbqfP07g4u5p2ePSsawB/GerKbEUi1lyOzrPqFNOq2bQplfEbxNn1iz4SUnxz3QfgsSNuNPcPIqmKR78BfEHELdjV6Hi2ouF5A1lidPJuVMKlZNFcqIs2ClZIsJzTzUhXaXUN9UaGlJWRLNwiWWzauZFaL7B9ZJuesG1jU2poYeQ0lumFSnRN0bsdhEdK1OLU0Vm7KaUlZEf0po2mmyTvt1atuzrY3oF8Q6HUxTLY0kYZ781s1ebo9TUYVkeAM6QQ7GwiJvJMHIbd2ufiz1TX1vJRHaWpTinFk4SHCkNstcSPbOJ23xyqwjWGJZys2u8fyvI3o97T3rVdeyaFFpNbjRpDCmTKClqCl1pbiHGyNexklG7xH4qNxTqo2xFwFyHHsTF34uAt/gDPBZFegdRkGPYzJK+pUUj9xcWNyVSl1Dp16JUhbqWVqbNTZuFxbr6tSkEtSiSpRbKOYS5kQpma6OyvjSktxVDFU3kgAAGVAAAAAAAAAAAAAAAAAAAARDrp+jrQ77/AKZ/da+EnU31sXwCMddP0daHff8ATP7rXwk6m+ti+AXsFwAAEAQ7qB9kfp2X/wBDMtP/AL5RiYhDuf8A2SGnn3l5b/tlELHMSvW/WyfgIRzqlpre2WRV2p2nORFQZlURlwieeYORCs4SlcZw5rBKSbjZL8dC0KS42o1GlWy3ELkat+tk/AQqjIlFsZbkF7SNVG+kL0kMonZNhtXgOD45PxqyRSzbs7WXZkby4caV1jMI47Bcm5be3G+eyyURkpJEasi0S0kk41xSJs2fYzZklyfY2U9ZLlT5bh7uPumREXEexESUkSUJSlCSSlKUldtLYEWRn+sTrjKVceoCCIzL0aGoT/4RJmcZdS6Y4Nb5vax3XItRFU/1EdPE7Ic5JbZbLyuOLNCEl5VLIdYrimPyY5pa7JWkE22lBeQh3EM0ujua53Aav9dNQcmatZhdadBieRTKWtqUnzSwh6E41IlLQR7KedcMlqIzS22kyQVsydrNOjo5Dy2FmVxk+nJyWot7Av5Spk+lQ6tLbc2NMVu68yhakE80+pxRIUbiVp6s0L5RqrMsr6QemOF5NOxK8lZGqfVtsvWDkDE7afEgtupNSFyJcaM5HZTwkajNbiSSkjNWxFuJAhzodjGamwJTUiO+hLrTrSyWhxCi3SpKi5GRkZGRl3jW2x1Eh4bqxqHIsMUzSw8I2KhdWdViVlYRpZoiqbU2cphhUdo+MySfWuIJO+6jItzEJamadZlDpcZxKfp1WzLzG8Rrjr7BWHWF+61MbcUt9uumtPojVDzPVtn1hpU499L4Sc6tKD3FCXb5VOTUd5Mta+rnE+/STCgT0dWtPUvm0h3g3URErxHWz3TuXjbb7kZFc9yGjGeYrAjTc2itaQwH2cizeLYWcqbgU+8gPMHWo6t56BDNo7JPaEOFsa1JZdc61ZEZEYnrottXlFpNRYzeVq6+RXKlxyidhVDQw0mU6TaGmFLX1TRI4SbQS1klBJIlKIiM5NEwXTcA4HIwoAAAAAAAAAAAAAAAAAAAAAAAAAAAAAAAAAAAAAAAAAAAAAAAAAAAAADgy3Iy845AB8weml8yrVnGZWOqGg1rAqJVw+qXZUc/iRFN9R7rcjuISo2+I91dWaeHiM9lJTsktY8L+Zda22F2yznVvS0tYlz6eqM6uVIUnfubQSSTz86lFt5j7h913WW3k8LiSMvWIU6PrLE/D7R2fxSHizrNmUrdUalE23k1khtO5+RKEpSRdxEkiLkQ60TT2wkxPYxzo4aCUWlWM1mLY1WKiVdW3wtks+Jx1ZnupxxWxcS1HuZntt5CIiIiLY5tHAgkF5CHViMywgktIJJeoeozXXNc3Iiyiubitx6nnX9zLRFr6yM7Mlvr9q0y2k1rWfqJJGf8Ah3DNMYetVdA1U14oW7l62QiwpcVs0E9W0ERZcTCFRj3afmcJpW4+4lSkrM0tGhCS3zrW7E7LPtF8+wWmXwT8jxi0qYquLh2ekRXGkHv5PGWXMV+mmaVWomA0Oa0yeri20Ft/qTSaVR3NtnGFpPmlbayW2pJ80qQoj5kMKxzJOjro1kSW5LWCVlFbxUn2G7oI6K2zgq8hsyWCStJbkRmgzNtWxEtKi5C26S6gZGq3vtL9Q5bUrJ8RlNxnZ7bSWk2sN1snIs4m0+K2biDUlaS8UnWniSRJ4RLY1hi3jWSdKXN8jpHOsg1sCnxJbiPaOzIS5kiQaT/AE3CdillRl3LZWnvSZDeHTmmyTNkl03SNwC8xrJslhR7Yk4ldLo7GG4w2mSTxSCYS4hPHwqaWo+JK+It0krkSiNIzFvUfT53LH8CbzrH1ZPFi9ufpSs2e3tRuX05Ufi6xLfjJ8Y07cy58xrPlWi+pbGGtWGK07BX8m+ltWsB2WhCZlQ7duS23SWSjR1rSVdaglc+Fx1HJSuXr4D6guZWzj3gKsosHMbLL/CxyXF6l5qQ08lMZCErKT2jZ9LKuNomiabM+sUfCg7kie1L2T2evGh5daR6y4MXUSI0R3/4QxPpb8hPFHaV9M5LcTzQk+ai5p3F7k5/gkLLIuBTM1oWMmnMHJi0rtiyme+yW+7iI5q6xSC4VbqJJlyPzDV9rRbKm8CiUkfDopTIuk7+KoSS4/Gmc5wGqOS+LkSlEZmrfg35mYobPSbU5rVR551WZSqS0ySryXihzKJqpiqix47ez6nozll1yTjmRIYM21pWRcbZKXs4fvW6dWOkXjj9whrwNyhvGXbZVE1lrjUQqtyeT5x+pJHaO2JI30m0Tio5NGovb8Jko8vvtS8MoMal5Q7eRJcaLGmyUNRJLTjsnsiFqfbZI1ES1o6tZGnfkZHvtsY10VhOaN581ZY5pdd4zdv3LcyzyKqyJEbGLCP13E847WJlmp6U6x9LUtyEausMj67ZCVi1TcH1bsKZeFnp46wxUFl6W7JdlEU1POwbkHEVHSTnWER9fwr61DZpVttxJ3WGS6XbNVOr+l13QWuTwNQscXWUBH7NSfZWObdUpKCWtEtZLNLCkpPdRLMtvKDusWkbGIuagPap4g3i7Km0OXaruMUBCnCSbZHINfVkaicbNJcXPjTt3kNVssqsgosek57lGKVuF0+IQcdgqrrG2rorNuVdMJ8ybeN7qG2T3JDHaFtKNe5LJpJ8R0ESBmGo9GequnEe/hRk51Nv4sfFpNI7NlMv16IxvxnJxOVzxktThrUSzSf0023VmRcbh+9btubvWDSXGvY7wj1QxKq9mCYOu7bdxmO2E9xdT1PGsus4+FXDw78XCe2+xivk5/gkLLIuBTM1oWMmnMHKi0rtiyme+yW+7iI5q6xSC4VbqJJlyPzDVKl0Vy1nCsjp3sXfkSbDT5+jiIsJkJ97tL0mW+uOpTLbLCT3da34G0NJMiSkzJPEOLPSbU5rVR551WZSqS1ySryXihzKJqpiqix47ez6nozll1yTjmRIYM21pWRcbZKXs4Zds3M1o0erq22ubDVfDotfQvoi20t69ioZgPLVwIbfWa+FpaleKSVmRmfIuYyqBYQLSGxY1k1iXElNpeYfYcJxt1tRbpWlSdyUkyMjIy5GRjV1jB84xTGcNuYGn799JxfLLq6lUkOVDRJeRNcmJQ+yqQ4hg3ElJQsyU634hr2M1ESDlLQTH7zDcDr6C8jtRJPXzJioTLnG3BTIkuPIjJUXIyaS4Tfi+L4vi8thJot2l0sAOByMKAAAAAAAAAAAAAAAAAAAAAAAA8H4jb57qHuAC2rpYyt9klzHX2Djknh2IXQBbyLUigioVxcJD0TSxk7+KXMXEAvIh7UuxyqTltPpJphKiV97cRnLS1uZLBPppKptaWzdQ0fiuyHXFdWylfiFwuuKJRNdWsfRjxc2u0fPJ1T9mNt/ZXw1ncXH6XY+PsH+j2bh97tyHaZYRcN6UKZt68iPE1CxODR1Mh09kHY1kqdIXFI/I46zYKcSn9MURzb2ol8LyWQhptkuUYznNnpJqlMiz7qBHRZVF3HYJhNzWLWaCccaLxWpLTiTbdSjxD4m3EkgnCbRNqFEpJKT3GQ1l1GyaFlXSgqmsckokFgGPTau2eZURpTNsZEN9MZRl/zjTUFLik/pSlI9IbH1C1rgNKX38JDdVM5YqlIVohBuFGe6UOfpdaSovAPDj5l57HIvxCbxC0f7KLP/ALwsN/tHIxiJtKpZrquHGbSpphKT9RC4DyjfUUj1EvcBCXRz/QdZff5nP96LQTaIS6Of6DbL7+85/vRZi0ibC7i+Acjgu4vgHIginpZfYtaxfeFf/wBnvDPqz67e+6GA9LH7FrWH7wr/APs94Z9WfXb33QsC8CFo/wBlFn/3hYb/AGjkYmkQtH+yiz/7wsN/tHIwjmJkjfUUiGdMP85+t3/SDD/utQiZo31FIhnTD/Ofrd/0gw/7rUIRzE0NfU0/AIV6Of6D7T7/ALOv702gmpr6mn4BCvRz/Qfaff8AZ1/em0CkTYXcXwDkcF3F8A5EAAAAAAAAAAAAAAAAAAAAAAAAAAAAAAAAAAAAAAAAEQ66fo60O+/6Z/da+EnU31sXwCMddP0daHff9M/utfCTqb62L4BewXAAAQBDmf8A2SWnn3k5d/ttCJjEOZ/9knp795GXH/36gFjmJYrfrZPwEKsUlb9bJ+AhVhIhTSDxsu1We9PUB/8Ao1dcn/wi+dI2rtLLSCfJp696wk0VjTZJ2JhPE5LbrLOLPcYQn9MpxEVSCT5TUReUWLRjx7zUtz08/sP6MaKj/wAImkkktokn5SFnsFBjeSUOYY/XZVi9tGtKi2jNzIUyMsltPsrSSkrSZd5GRiJ+mBkFZB0HybCnZDfsvqBCfxKli8Rda9KmNqaNaC8pMtqcfUf6VDKj8gwfXXTO80hxLJNQ9Ec8v8Dd6zt0qDVKjPVzz7ryete7HLZeYbWo1qUpTSEGpXjKMz3Mdsa0Iny8p8LMpu7jJsgQ0qMVvdSSefaZUZGpplCUpajoUaUmpLKEEoyIzI9iHSjDidZnRJlK+mjTtlSoRINR7dwzb2DYNs0KLf1jyxujapIKIzZbbFsLwM11XqmYIiy1FQxiTwkRD0iU7EVzjQXMXEBjNKgAAgAAAAAAAAAAAAAAAAAAAAAAAAAAAAAAAAAAAAAAAAAAAAAAAAAAAAAAAAAIS6Of6D7T7/s6/vTaCbRCXRz/AEH2n3/Z1/em0FpE2F3F8A5HBdxfAORBwZbkZH5RC2V6a55huQWOZaH5VEpHbh85dvR2kBU2pnST2JUkmkONOR31EXjLacJKz2U424rmJqHVSUrLZREYsTYag1WqHSW1jpJTDl5QYbXItraklLx6vecsnVQZ78Jw2pL7ikMJWqOs9yZU4klFwrQotxK+j+kkLEIEWHDgJiRIiOFlojMzLczMzUajNSlGZmalKM1KMzMzMzMxS9HWJHViFoo2kmfh7nXk82U2gnBttDaSJCSIdZxIpptTFktrq8zhsmRbl5B4qqoqv0hefuFaA5XlVKmvjpLYkl8Q4XWxllsaS+IVYBeRRqrIykEjhLYvUODqopkRcBcvUK0AvIofYmMXcgt/gFK3QtpkG6ouR+QXgAzSKJFXGQe5IL4h2crY7hbGkviFWAXkUqK+OhPCSRyxAYYUa0JLcxUgF5AAAQAAAAAAAAAAAAAAAAAAAAAAAAAAAAAAAAAGNag4DjGpONv4xltQxYwHlId6tzcjbdQolNutrSZKbcQoiUlaTJSVERkZGW41j1Sw7WfC77A8Pqdf9QXcfyzIX6R+G9KhqeQwipsJhdXOKMU0l8UNBcRvmfCaue5kotwREGuiUnneh3Iv0ezP7rXo1TVZJWnSPRSpxCGzFrK1uHFacW9wJ3NS3VqNS3FqUZqWtSjNSlqM1KMzMzMzE4stJZaS2nuSWwoqYiKMWxC4i4lc1zqRFgQtH+yiz/7wsN/tHIxNIhaP9lFn/wB4WG/2jkYzHNUyRvqKR6jyjfUUj1EAQl0cv0G2P395x/eizE2iEujl+gyw+/rOP7z2YtImwu4vgHI4LuL4ByIIp6WP2LWsP3h3/wDsDwz6s+u3vuhgPSx+xb1g+8O+/wBgeGfVn12990LAvAhqOtKuk7nrfVIJScEw9RubnxKI7DItiPntsWx7bFv4x7mfLaZRC0f7KLP/ALwsN/tHIwjmJkjfUUiGdMP85+t3/SDD/utQiZo31FIhnTD/ADn63f8ASDD/ALrUIRzE0NfU0/AIV6Of6D7T7/s6/vTaCamvqafgEK9HP9B9p9/2df3ptApE2F3F8A5HBdxfAORAAAAAAAAAAAAAAAAAAAAAAAAAAAAAAAAAAAAAAAABEOun6OtDvv8Apn91r4SdTfWxfAIx10/R1od9/wBM/utfCTqb62L4BewXAAAQBDmffZK6e/eNl/8At+PiYxDme/ZL6e/eJl/+348LHMSxW/WyfgIVYpa762T8BCqEEJ6JFvLz573TPrk/4q0I/wDCJqR7QvgELaGePGzF308+yP8AoznE/wDhE0o9qXwDVXYkIq6VWxdHvNl+516XP4rqD/wGf1CUk85yL2wwDpW8ujlqEv3OjkOfxS3/AMBIFV9cOF74InSyruIkvsz1Fz7ObXTvSaTBpK3HDbYyHLJkYpZszFoS4mDCjmokOPJaWhbjrhmhvrG0khxRqJuWxEnR2eaiQM6xaYZJu6jPchesUK5OG3NnuzYSzLvNJw5MZKT7vpZl+lMiyPOwwLXzFYrlzhmuEzMpzCTcOlzCrrmYszb/AJpuTXRY7kYz7icWl8kntuhRD1xrpBVWSxcOej0EmK/ktrKpbGHMeS3JpZkZiQ5IZeSklEtaHIy2z2UST34iUZbby0NMsYrns71myrKMblseDvzwZsxhSVmXWtN0zdZIWyZEZK4pjche+5EZGaiM+W/TDpzXhJmyd8X6RWG5xqNGwXEmZU6I/UzbM7V2NJisr6h9houz9cylMplfXmaZDS1NmbaiI1HvtlWomftYJj7FlHq3LWysprNXU1yHSaOXMePZCDcMjJtBESlrXsrhQhZklRkSTgPG8bzjSx+iyHUCNEcx/CMfexiCWORLK5sZzS3YpNSFxWIxuIM0sbLbQTpJMuLrDIz4M2tcjrdbaaPH0+byaryLFJ0a9r3Mkw+5pojzrfEg2VOTIzRLS42txtRt8akEvj4VbbHKqYgibskrtYLOgrreTrPi8TE3adpmQuRWTn7avkturNDaGHzjMOuyOMiSbBMcZmtskcfGQ7vdIzSFihgZA5kFgTVnNfrIsIqKwOyXNZaW67FOATHakvpbbWvqlNEs0luRGRkMIu8S1lzzG568pPFaW2iza2wpaaBPkToXXwpSZHFImqjsOmTxoS2ZJY2bJPFs6Z7CgxzSvOTy2BnuUKpY9s9ksm/sYUCQ6+xFSqsOC02w8tltTyiSlClLU23vxK2LkW9imJJmySMe6RejmUFLcqcwMo8OrVcuSpddKiRlw0GROuNvvtIbd6pRkl1KFKU0s+Fwkq5DwR0ldH10CsiXeW7DKJyK04cjG7Nmy7S40p1prsC45SuJxCTNv6V9M5EjiMyI4osujpk17iEHFbS4hspaxO1oH32HXuInpMlh5tSOEkK4CJkyUZKQsty4efMqLBdDc2qriuv7yBXwZrF7EnyGlZhdZI4cePFktJ2mWXjmfHIM0tpabSguLdSzMMkd5dKsfpPadWOTY1U1S579TkVTa2irh6tmx2IBQXENutyesYIo6kqNwlk8ptTZtkSk7rSK6P0l9Hn6eyu3Ly4hsVLsNqQ1OxqziSVdrc6qMtqO9HS6+2654qHGkKQoyMiPkIyc0c1OrZLM/Hbaoiy1FlbZTDfd44Z2ckpEZ9tBsmTq0KbQS0KNBFuZkpW2ysUxXo/ajQZMiddORGnZzuPOOxpOY2+RqQqusFyHFFLsEE5stCiNLaUIQle5c+azuSEun2R0gcCq66wt7yZKZYj2rNTFixKqxlWUh9yK1IJrsCYpSeuJDhqU22hzgQk1KNOy0ozjGsnoMxo4WSY1ZtT62xZJ+M+3uRLQfqMiNJke5GkyIyMjIyIyMhAN5pbqTByCXn2IewM+2Zytd7Cr7KdIix5MdysbguIcfbZcNlwjSpaTJp0jJJJ8XjNSajBc6o9D6ljBsuiZlY2xOybOc9Q4FeWUHr5chyQ4hp6JEcbNKVOqSRcXFsRcREZ7CTRFtJW+q75ZrzqLT5BnLWPaaYtOx3T5xtNpYWWYPwZbqextynDZjJr3Wz2bc2LjfQSlFzNJcxlbfSD0vVk0DEXLSzRY2C47KFppJzkJiQ+31jUd+aho4rD6kmkyacdSs+NGxeOjiwCFoHp9l+e5Hq5luneLXsvIrGDaUUy3x8js4DDUOOhKFlKYS9HWTra1kjkaTPc9lbkVgzbRDVK61O8KpVw1JqIt7W21cpeWWrSGYzBtdZEVUNpKCpRKS64mSs1rM1Ek0p2StMimJJlsPhuWxMvpU3EZUY0KlSo3+TuOrRuy+to+bjbat92z3Lh2I9yI1Fso7+Iy0exq2xDGW6O0cZceKfPlGphSlI4X5bryS3URHvwuER8u/fbcuYkwu4SqLSsOQABkAAAAAAAAAAAAAAAAAAAAAAAAAAAAAAAHBmRd4440ekA7CEujn+g+0+/7Ov702gmvjR6QhXo5JUeG2iiQo0+H2dc9j2/RTaCwJrLuL4ByOhLTsXMc8aPSEHYB140ekHGj0gEKdHP9B9p9/wBnX96bQTYXcXwCFOjklR4baKJCjT4fZ1z2Pb9FNoJpJadi5iyO4Drxo9IONHpCDsA68aPSDjR6QDsA68aPSDrEF+mIB2AcEZKLcj3HIAAAAAAAAAAAAAAAAAAAAAAAAAAAAAAAAAAAAAAAAAAAACIddP0daHff9M/utfCXTURd5iLNZqq0s8z0cl1tZLlsVebS5c51hhTiIrB43dMk66ZEZIQbrzTZKVsXG4hPeoiNAkSm+ti+AXAW+p8SORLI0n6y2Fdxo9IWeY7CFo/2UWf/AHhYb/aORiZ+NHpCGYhGvpRZ/wACVK/+AWG9xb/+ccjCOYmON9RSPUeEdSSaSRnsY9eNHpCDsIS6OX6DLD7+c3/vPZia+NHpCFejilR4VYLJKjT4c5vzIuX6J7MWBNZdxfAOR0Jadi5jnjR6QgivpY/Yt6wfeJff7A8M+rPrt77oYL0po8iw6M2rMCDHdkyZOEXjTLLKDWtxaoLxJSlJczMzMiIiGd1yVIlOqUlREauRmQou4haP9lFn/wB4WG/2jkYmfjR6QheOpP0UOfnvy8A8N/tHIwjmJljfUUiGdMP85+t3/SDD/utQiZov1FIhnTD/ADn63f8ASDD/ALrUIRzE0NfU0/AIV6Of6D7T7/s6/vTaCamvqafgEK9HP9B9p9/2df3ptApE2F3F8A5HBdxfAORAAAAAAAAAAAAAAAAAAAAAAAAAAAAAAAAAAAAAAAABEOun6OtDvv8Apn91r4SdTfWxfAIx10/R1od9/wBM/utfCTqb62L4BewXAAAQBDee/ZMaffeHmB//AJhjwmM1EXeYhzOvpnSa0+JBGo/AHMe4t/8AzjjoscxLVd9bJ+AhVCkrzJMdJK3I9i7yFTxo9IQQtoH41Pkrvume5Z/RuZSP/CJqT7UhCvR5JTmK3T5IUaVZ9mvMi5eLkdgn/wAImglp2LmLIivpXcujRqev3PFrFz+Kwo/8BIFT9cO/dDDukjR22VdH3UnGsdgPT7W0xS1iQYjKd3H5C4riW20l51KMiL4RmNYSkSXTUhREau8yMI5C7iK9S9JJVvkjWpWA5JNxTM2IhQVWURtDrU6KlRqTHmR3CNEhtKlLNBns42a19WtHGrilLjR6QGtB8jMgibDTe+vOklnecZBozm+oVdCqoFHWWUp3EqZ2plTmZr85k2FvuyZDjRF2EzNbCmln1hkRo25zdpFpbBw6shwYNaxBhQmER4sZlskNstJLZKUpLkRERbbAjGbRvpCZfk66l4qqdh2MwY0rg+luSGJ10t5sj9JCZLBn6nEiVIvAhlKe7+AdOJam1MJbvFQmFERGktyIUxVSSc4yUfwb8hX8aPSDjR6Q53V4phMkZGadzHPY2OLi4OY9eNHpB1iC71EFx07Mz6I6nDYNXFwFuPcBLjyOMyZbcI8+wRt9+AtxUgFx5dmZ224R4PVrSy2QXD8ArAFuKKPXIZPcz3+EVDsdp0iJaSPYeoBceSIzTftUj1ABAAAAAAAAAGGZhq1hmE5RjmF20uQ9dZPMREiRIjJvKaSpKzJ98y5Ms7tqSS1GXErxU8R7kQZmA6oWlZbpPcdgAAAAAAAAAAAAAAAAAAAAGLZ/Yex9dHWZ7EqQlP8AQWf+AwbwlT6ZC668T/Y7HID3FtxWKEf+ydP/AAEJeE3v/lHl4GHnpu+03FuvzvZOJbtlLHhKn0yHlGu4cNs2YjLTCFOLdNLaCSRrWo1rVsXlUpSlGflMzM+ZiLPCb3/yh4Te/wDlHbgPc9RR3JY8JU+mQeEqfTIRP4Te/wDlDwm9/wDKHAXqKO5LHhKn0yDwlT6ZCJ/Cb3/yh4Te/wDlDgHUUdyU413DhtmzEZaYQpxbppbQSSNa1Gtati8qlKUoz8pmZnzMevhKn0yET+E3v/lDwm9/8ocBOoo7kseEqfTIPCVPpkIn8Jvf/KHhN7/5Q4C9RR3JY8JU+mQeEqfTIRP4Te/+UPCb3/yhwDqKO5LHhKn0yFJbZo5V10idHX9MaaWpPw8JiMvCb3/yils7/tUN2Ma9+sbcLbf3ihmrBtDw9v3NwdlxMS3KmZ+SY8nzHUEtG7nIMBfqWLuPXvvol2RLcbiJQ0tZupZSX09ZGktm1KQk99zVsXCqQMKvJNzjVRMnO9bKkQI7z7nCSeNxTaTUexERFuZmfIthh2D0kbI9PZeOznHW49pCdhvLZMicShxCkKNJmRkRkSj23Iy38gzbHqRqjiRayMbimYbDcdtS9jUaUJJJGexEW+xeQh4lcREy/nkL4AAOagAAAAAAAAAAC15DlOOYnCKwya8hVkdSuBK5TyW+NXkSkjPdSj5bJLcz35EMNk6p29xu3guHSn2z7rG6NUCLt50tmk33PgNtCT5eN5SCRhil5qdh9JOcp0z3LS3b9tWVbKpclJ+/Sjcmi7+bhpTy7xiEjH7vIjNedZjNsGld9bXb18EvUaW1G84XnJx1ST29qXMXyphVFBBRWUdZEr4jftGIrKWmy/0U7EAqYGreJuS26y+VKxyxdVwIjXDXZydV5mndzadP1IWo/UQzNK0rLdKiMYTNKFYxXYNhFZlRnk8LjLyCWhZeY0nyMhjDWGewRk7gOR2GN8J7lDbUUivV6uzObk2n1Mm2fLvAS+AjKNqPmdAZN5jiPsjHLvsMfM3ti864qzJ1PwNm8f8Ahl2MZ7iOYocPHb6LMcY5PsJVwvsH5nGlbLbPu5KIjAX8Bxvv3DkAAAAAAAAAABGXSJyDOsc04KXpvcxqvIZVzUwIkiTHQ8yXXzWmlJWlRH4qkqNJmRcREZmnYyIWjT7WKwznO2o6VLhwTxpMiXVOtp6yHZomOMvtqXtxGaDQaO/hPhJRFz3EiZrh9dm1TGq7N6S03EsYVog46kpUbsV9DzaT4kmXCamyIy79jPYyPmMLrdGsfodSrrVKoKWza5DDYhT2Se/yVfVKMyeJvbxXTIySpRH4xIRuW5bjdNu1FwzS9KNbttmrbeOlX9NZf4Cw+EqfTIWHWO3OtyyPGNWx+xzSzL4XXfxDBfCb3/yjysLCzUxL7/de6PONjw8W3OEseEqfTIPCVPpkIn8Jvf8Ayh4Te/8AlHTgPYdRR3JY8JU+mQ8k3cNElyahlpMh1tDTjxIIlrQg1GlJq7zIjWsyLycSvOYizwm9/wDKHhN7/wCUOAnUUdyWPCVPpkHhKn0yET+E3v8A5Q8Jvf8AyhwF6ijuSx4Sp9Mh5RrqHDbNmGyyw2a1umhtBJI1rUa1q2LyqUpSjPymZmfMxFnhN7/5Q8Jvf/KHATqKO5LHhKn0yDwlT6ZCJ/Cb3/yh4Te/+UOAvUUdyWPCVPpkHhKn0yET+E3v/lDwm9/8ocA6ijuSx4Sp9MhZbjLEwLCI7EaaTImvNMPOkkiWttBOKQk1d5kRrWZF5OJW3eYwHwm9/wDKMYyfVvT/ABm6q4uZ5xRUjq3UvNN2Fg1HWtBEsjUlK1EZkR7FuQzOFFOr1O+91Rsuw14tuVv4w3RpJByIDSz8qSMRJph/nP1u/wCkGH/dahFprOml0TamC0zO6Q2CoWhOykouGnDI/N4pmMD0o6U/RrkZxq5er16wGJCuM5jS4Dk7IIsQ5LCMdpmFOoS8tKlIJ1h5HFttxNqLfkY8K1pfDw26a+pp+AQr0c/0H2n3/Z1/em0F1b6WXRZJCSPpK6Vly/ZjXflhYujDY19zp6/c1E6POr7LNM0nQpcZ1LrMmM9ktk4082tJmlba0KStKkmZKSojIzIyEpE6F3F8A5HBdxfAORAAAAAAAAAAAABid/qlhGPzV1L1x261b9tW1rSpktPm4mmiUbZcj8ZfCnkfPkAywdVrS2k1rUSUpLczM9iIvOI1k5tqLfboosfgY1FV3SbhZSpW3qjMKJCT8xqePbyp8gty8JgWyyfze4ssqd34ursnSKIR+YojRJYMi8hqQpXL2x8zMMom6t4kUhdfjq5WTTUK4FM0rPaEIV5Scf3Jhsy8pLcI/UPSq1ZwuxmN1U2c9S2bh8KYNuwqG8tXmb6zZLvwtqUXrHlHXGhsIixGG2GWi4UNtpJKUl5iIuREPKxYrbiI5X28CNNiulstiS0lxtRetKtyMBnSVJUW6TIxyIgaw1dGZOYJlNpj3D3REudqgn6uzvcRNp9TKm+7v797jH1Bzyh8TKcSYuI6e+bQOePt51RXlEoi9SHHD9QCTgGMY1qVhWVyFQKi8Z9kEFxOV8hKo8xsvOph0kuJLkfM07cjGTEZH3HuA5AAAAAAAAAAAAARDrp+jrQ77/pn91r4SdTfWxfAIg6TGS45ht5o1lWX39bR0tdnklUyyspTcaLGSvGrtpBuOuGSEEpxxtBbmW6lpSXMyIVdV0rui41HJLnSS0sSfmPMa4v/AHwvYJkART9Fl0WP3S2lf/bGu/LB9Fl0WP3S2lf/AGxrvywgumcXXYrpDClbf5OlX9NZf4DGlXcNcluatlpUhptbTbxoI1oQs0mpJK7yIzQgzLy8KfMQwjN9YdO87yRU3TjP8cymHGhtNvyKS1YnNNOGt0+BSmVKJKttj2M99jIWPwm9/wDKPNwsLNREvvt17ojaNjw8W3OP5pY8JU+mQeEqfTIRP4Te/wDlDwm9/wDKOnAew6ijuSnGu4cNs2ojLTCFOLdNLaCSRrWo1rVsXlUpSlGflMzM+Zj18JU+mQifwm9/8oeE3v8A5Q4CdRR3JY8JU+mQeEqfTIRP4Te/+UPCb3/yhwF6ijuSx4Sp9Mg8JU+mQifwm9/8oeE3v/lDgHUUdyWPCVPpkHhKn0yET+E3v/lDwm9/8ocA6ijuSx4Sp9Mg8JU+mQifwm9/8oeE3v8A5Q4B1FHcljwlT6ZC32WeyqyTBZiL+uZCUL+DhUYjfwm9/wDKMDyHUHP5mfN4vheF01omtiwbB6XbXj9e2pchcttLTfVRJHEaSjGpRmZbcaOR77lmrCinWXqN97rjZNiqxLd38YTNqnqhqBUWGU3+OZW9W12nVFX3blWiFHcaulvLfN5qQt1tTiUE0wRINhbSiWozUpZFwjYKssk2DKXSLbiSStvhGpmU4RrtnU1i8lae4VEZkRo8S3r4mpUoo11GYcU4yzJSvH1rSlC3Fn9JW0pRKNKzUnZIkyry/pMxyNRaQaXc/IrUexTt/wDkZjxJpiz4dOoCG/DvpNftP6V/zk2P5iDw76TX7T+lf85Nj+Yhi0qmQBDfh30mv2n9K/5ybH8xB4d9Jr9p/Sv+cmx/MQWkTIAhvw76TX7T+lf85Nj+Yg8O+k1+0/pX/OTY/mILSJkAQ34d9Jr9p/Sv+cmx/MQeHfSa/af0r/nJsfzEFpEyAIb8O+k1+0/pX/OTY/mIPDvpNftP6V/zk2P5iC0iZAEN+HfSa/af0r/nJsfzENQ/mhWrvSexSDpvd4rAq8Szv2bkRqONhmZz7mVaMLZJUlt2ucq47UltKm4x7rNfCZpIkHxmaVpH0gGB6r45c5CeIrp4nXlV5LFsJZ9YlPVR0NPJUvxjLi2NaS2Lc+fcIZ6MnSF1cnafNSelhUY5iuRqWlENmDINUmc1w+3XFTx8Dp7b8Lalb7n4je2wlmXqXkd2k2sOwh9tlXIp98s4be3nTHIlPq+BaWvhFmJpnVObOaglpZ2WZ7i0X+pWGY5LOrm3KZFntyrYDa5cw/N9JaJS0l75REnzmQwpeN3V5urNc0sJ7avbQK0zrYRerZtRvLL1LeUk9u7v3vdNWUeOROwUFRDro++5txWUtpM/OZJ7z9Z8xmdVezesWMxVpbyqDa4xxmXVu28Xq46iPuM5CDUyg+7xVrSr1chmkSdDnx25cKU0+y6klIcbWSkqI/KRlyMhia5SFpNCyJSVEZGR8yMvMMVewLHmH3J2MPTcXmuKNan6V7s6FK9JbBkbDh+tbajAS6Ai2PkuqOO7JlR6zLYif0zJlAnEX3KjUy6r/SaL1C9VWsWFzZTVbbS38fsXT4UQ7lk4i3Fei2tX0t4+/wCprV3H5gGcAOqVpUW6VEY7AAAAAAAAAAAIP6WM/wBjsIqH+Lbium0f93kH/gNXfCf7YXxiXfmkk+dW6QYvKr5j0dzwtYSamlmkzLsM3ke3eXqGg8HU3KIpEl99qUkvdUbH8advl3Hu93YE4mDNUd/g/Qvk26PV7y3DG0UTHr1Rb4WbN+E/2wvjDwn+2F8YgCLqylWxTIDrZ+U21ksvl2FzY1HqXiL/AC00H5lpMv8AgPMnZ5jsfaV9GMbD50fz/gmzwn+2F8YeE/2wvjFn0YzLDUpyCdkbKTbTCQzFunar2Tg1L61GSVyGdlFssy4EmaVGSu5J8xnOYYtWWuG2GbyIVfFdr8dhz4s+hdJEC2Wt/qlOnHUw2phRbbGgkp8bn6hwqiKKssw+d2mnD2PavNsbDmIvFN+yZqtaI7+esROaOc05fymPeE/2wvjDwn+2F8Yky70502o6quxCzh3TrkzLWKiNNhkwUxKn4bLm7zhtHxNoUtR8BEXLnvyPfHXNHsNp1Kxu8tryRf8AsBY3qZMR5lEPhjrUhDZtqQpe58O5nx+rbyliMSiXgYO8t34tMVWqi/LTnHf8Itr2/FivhP8AbC+MPCf7YXxjOD0S09j2sbFZuaqauUO1iHS9nK81ze0GnrkMxC3fZUhK0qI1kolF5Oe4863RjA8keYnUd3eRa6JOt4lgidLjkt4oSSMlNumhCGSUff1hKJJHuZ8ubiYa9Z7siM+uXne2nKZj7YjT36TabsL8J/thfGHhP9sL4xf5Gn2l8OkvMp8IptjGqaONYrrq2/gynY0pbptrYdkstuNqLfYyUSE8vIKbNNNcQoqPJ2am2t/ZvEayvtZj0p5pUOQ3I24kIShBKQaeItjNSiVsfd3jUVUTNv77PGHkYe07DiVxREVazEcu2csfKa6Yvy1vF4vMWnwn+2F8YeE/2wvjEMPZ/VsfVLFvl6Jmr+rcW+RqpAa3JhuQ8fk2LhL5T3+QeRGzzPY+mo6NYtfq0Snfwn+2F8Y96+/7VYxo3Hv1huFtv9qWNaZmq107umFFZYI/KszWr/AvkHGFahWkfUChsL6fbSYiJLxOMQIL8pat4zpFsxGQpa+Zl3JPbvPkW4zi7NNOHNUvX9I+i2Js+5Nrx67Rlw659+lMvrHpSnbHIx+dJf1DPthrrpx0jNPIFDHZeotTFKJJb9VpfkzhfGmAZGMy+ic01/Y/qn/NRlP5vHzuJ60vyvCWQETfROaa/sf1T/moyn83h9E5pr+x/VP+ajKfzeMKlkBCWVdJXFpWMW8XEYGpMC9egSG6yXL0iyl1iPLNtRMuOIKvI1oSvhM07luRGQ1t6JHzVWn1uuo2nWpenNnVZWttaimUEN6bAkdWndalNESn4/kIiPrE+ktO5EFrjf8AHVa0NoU44okpSRmpRnsREXlMQt8/u0zA3mNPKiDFaaUaHJtw+S3Wz7vrNpXEXwOONn73mLLOqHMicJ/OL6fkaiPco8pZNwkn6orfC0rbyGslq99zMBJFrrPiEd5yFjfasomoM0Kbp0JdaQrzLkKNLCDI+8jXxcj8U9thjczJNTMl3KTawsUhq/5isIpcw0+ZUh1JIRuXeSWjMt+S+RGKJl5iM0iPGbQ002XChCEklKS8xEXcPTthekA5qsZx+pmHatRFSrJZbLsJry5UtXq65w1LIvekZJLyEQvfbPfCx9sL0hq1iiM3yW9trGko9THbhnM57TGRP5qssfYisz1EptVcdgfElLKVNEjsRkatjIyL6YQbg9s98HbPfDWbGukTmmQZjJjsY7Jco1yrWEhvwStmSgHDN1KJLtmsuxyUOqZMuBskGg3ElxL2ULJI1e1bo04/qbk9tTyoisAs8ik0FXWSmkuuEcVTbZKOU4SlpNwkk51ZntxkSd18g207Z74O2e+GsFfrxqvKoprTVNFfsit6aDCs7HEbehhuNzXyaeT2aaonVrYLdXEhzhXxI5I57Xmt1S1VuHWsBjTsVj5cVlaRXLddPKcrVMQyZVxFEKUlxK1lJbLhOQZJ4Vq3VySA2G7Z74Wi7x7Hcicbftqxp2Sx9RlIUpqSz+9vIMnEf6KiGvt70gNQ6/P/AAYh40chNPLrYFtCg4tb2RS1yENqedZs2EdmioZJ4lcL7ZqWSD36olJMT72wvSAcw52ouMbewOUNXsRHdBvi+mEXooltJ4y+FxDp+sZDX63Ucc0x84q5uLvciN+YknIJn5ylN7tpL984D9Qx3thekODlpURpVsZGWxkflATHDnwrGO3MgS2ZDDqSW260slJWk/KRlyMhUDXdvHINbJVYYnYTcbmLM1qXVuk204rzuR1EbLh+tSDPv5luLsetGVYNHJ/N49XcVqT2ObEfRCkl6jYeV1bivuXEmfkRz2ATkAiNrpQ6aLIiOk1JWrYjM42muRS2+Zb+K6xCW2svWlRl6x3+ic01/Y/qn/NRlP5vASyAib6JzTX9j+qf81GU/m8d19JjThtLa1UGqBk4niLh0rygzItzLmRV/inuR8j2PbY+4yMBKw42LzEIn+ic01/Y/qn/ADUZT+bxrH0pPmkFp0e9R8SsaTC7W9wXIILzE6tu8UuMdsY8thwjW/GkT47bb6FNvtkbaUK2NrmpvrCMwkDpSXHsdqZFY49uKljr2+F+QX+AiLwn+2F8Yi3pK9IqBrTnGN6n6dryCrqrXEoakRrSGqM6lRTJu5mg90LLu2Wg1IPyKPYyKPoWqmQMESZjTEki8uxoUf8ACXL5B9BsezzVgU1f3zfp3od0YxNr6P7LtNFpzU3t285bJ+E/2wvjDwn+2F8YgWNqtEc5SY8hk/Vsov69/kFxZ1CqXtuCxQX3e6f6x383mOx7uvo1i0etRKafCf7YXxh4T/bC+MRCjLGXfqclC/uVbjv4TF7oJwXHqKY7Et+E/wBsL4w8J/thfGKK3k1bPR3oMibgxUz5GSSozksmUk8ttLJGSDXtxGkj57b7CQa7SGnzTEsXk19rJbtn4FVKkNk3HabKJIfW26v6W0lS1I2I+JalH5DM+Q4VTTTF6u+z0G0Yuy7JRxMeMtOeqi/vpm1/hdhfhP8AbC+MPCf7YXxjKo+mGmlnYYvBqbPIHGciTZzu1qnsGSIUNxRFwI6guNbiUlsfERJPnsouQjfUmux2gosUy7FZNomsymK+6iNZKSt9hxlzgWXGhKErSe5GR8Jfwi05aptH9/3aW9kq2TbManAopmJqvEXjtjNp7vUr+774vfvCf7YXxh4T/bC+MRJ4TF7oPNzLo7X1WW2jbv4lbDtwXvI3DM8oS/4T/bC+MPCf7YXxiFHtRKlgj4p5KMvIgjVv8XIW2TqwwjcokN90/OsyQX+Jixs8z2O1HRnGxPVolPvhP9sL4xkGB2Z2l+lpK9zQ4wff5+sGpE3VHJJBGmKbMUvIaU8SvjVy+QZ70cNTmqXNbN7Kl5NYE63CU2VdRWFrwbKf33TEZc4O8tiMi357b7GOO04HDw80vlvKD0br3f0cx9prmItNGnbrXTD6fUlVJXXM8MhReIQrFY6+pwnFPr3IRvSdJbTdmE0hVBqgeySLxdK8oUXyV4uP0Tmmv7H9U/5qMp/N49DNU3fm+yQSq5ZFsUlY7xapbb5POOGoy84jv6JzTX9j+qf81GU/m8PonNNf2P6p/wA1GU/m8ZvKpYHIib6JzTX9j+qf81GU/m8PonNNf2P6p/zUZT+bxBLICJvonNNf2P6p/wA1GU/m8ahSfmqrumPSEyXSLVTBbO3x1NqXsJa11FNq7WPFkkl2OxJrZyW3XFoS6lBrImzUSCUlDnGRmH0WAQ7YdI+mk2CaLEsfly7J1tLiCt1exTeyiIyPgeT2hW2/PhZMvIZkYtFjaZ3kxKLI8zehRl98GhScJG3mU/up8z9aFtkfm7tglrJs+w7D+BGR5DEiPulu1F4jcku/vbKCNxf+ikxhs3VjJrY+rw3C1RmT5dvv3ezp29JEZvidX8DhtH3/AMOKVFRQ0HWHT1ceM48e7zqUbuvH53Fn4yz9ajMxcu2F6QC2Xcp6dZV1TqDnVpZSLhbjcasgNOQ4a+BHEs1Nsbr6si23N91SN1ITvupJHkdVCqaKGmvpK2JAio9qzGZS0gv4EkRDV6cqfkWsWcx5+I6tZHGgWkGPFfxvOV1UCA2qEwtSFR/ZSLxHxKUszS0vcld5n4pSzqvns7B8WYl1FlChzZctqEw5Lq5tu5uojM+qhQ/8olubJM+BKkbJJSzWRJPcJU7Z74O2e+GstL0jsr8F4t1dVEN9yZX3DUVTddJgHJtIcrqWmzjyFm6yTyVJV1K91oNKyNR+Sovdc82pNSKzGjsKOVDKzr6exhw8Xtn9nn0J6xarUlFCirSpxJlGWTizSSfH4nCJIbJds98HbPfDVSi1dySjq7x9y5jnKjxFnGl2p2E8icdupsdCUxGFKXIUlKUEhppKXHDJKOsSnhNN2xjW/UfKqmuo652lbyCdksql9lJ+NWNfHTHYjdpU6qskPJktuGjZskLeTz+mEZp2QYbK9s98HbPfDU/GtWNW4mIuRKifRyZ2MVtjfXT10iTKOehFhKbTEjuk6jqfFjrInlk7wl1ZdUZCSNUtYZ2J4Zj91QRHSmZPLjxIzh08q27GTjK3jcVDhmT8jhS2ZcDZp5nuakpIzASvd1FDkjCY19Uw57aD4kde0SjbV6STPmk/WWxihiw8sxwyVh+cTG2U90C4I7CPt5iWpRPp831UyL0T22EAxdbtYryrrI9bVU1PZqqLmwmSLrH7GOl7sD7SG3GoT7rD7SH0OGokrUo2+IubhJPizTSrUjNslupdZmSKPhfpK2/hFWMvN9mal9aRx3VOOK65SDa361KWiVxfU07bmEzQtYbaq2bznC5cdBcjn0yjsI+3nUgkpfT59ibURc/GPvPNsbzTFMvjqk41fwrBCD2cJh4lKaP0Vp9sg/UoiMRh2wvSFotqDHruQibOr0FNbLZqawtTEpr7h9s0uJ/gUXcQDYEBBFff6jY0ZFTZW1dRU90O8b3WReZMloiWXwuIdMVkXpMMSHHKeHppkN7kDKiSutoZdfITtsZqV2h+Qw02Rbdzym1HuXClW5AJrARD8/TOj7uirql+EsW/PIfP0zr9yrql+EsW/PICXgEQ/P0zr9yrql+EsW/PIfP0zr9yrql+EsW/PICWZDPXtG35xa01Ehvcm31JL1COvn6Z1+5V1S/CWLfnkPn6Z1+5V1S/CWLfnkWJmBI3sZL/AFSsPYyX+qViOfn6Z1+5V1S/CWLfnkaedM7pxdILQXVfBL/C8EyKmg5BCegTcOykqiWxPUy8k0SI51syQ+08rtCmzNSkIPq29kucKiSvImbpL2a6jUWLEce3UdMwvmfnfkfiEUeE/wBsL4xE/SK1zznUzM8bzq0wq90+sJuJxO0Udi+lxbSimTPG22I9jIy26xCF8uaSLYzwSFqpkDBEmY0xJIvLsaFH/CXL5B7/AGTZ5qwKav75v070O6MYm19H9l2mi05qeXbzlsn4T/bC+MPCf7YXxiBY2q0RzlJjyGT9Wyi/r3+QXFnUKpe24LFBfd7p/rHfzeY7Hu6+jWLR61Epp8J/thfGHhP9sL4xecuyOpwLJca0/psArMkr51HGkPNJhIcn2rklBmbjUlKFvNmR8kdXyLhPkY96fSnErGDV1MiffM5Fb44/kjSzca7KwhtfKOtHV8Zq4SMjXxFsr9J5B496Yi8xpL5ecbZ8PCpx8aiaaataZ0m8a3mY5xaIvPx0mZvEY/4T/bC+MPCf7YXxjOpuk+kkCzsK5czMHDrsjr8cUpM2MXWOyyQaXC3Y8UkcZkZc+Lb9LuKB7RrCqatbTkuZogyZ6bRUadIu4MRlg47ym2EKjPbOvm5wHxKbURJMyLn3jMYmG40bx3bVETaqL2teOd4zaf8ATr362iJnRinhP9sL4w8J/thfGM1VpjptW2Mlhh7IJMqijUlnJKRLYNiQmW6lK2eDqN07EZGSjNW+5kZctzySFhlIvUm7boYl9jzdvZzqJEpiyrIUdttLRKWUVp1HXPmaiIjJlKTQRqLjVsoScSiHHE3psVMTNNM2iL3m0dlM+/nTVeNPda+iJvCf7YXxh4T/AGwvjGX0mnWHxjrKyNKtHbe2xGZdOvvqiuRkGjdJIS05HWad1FvxkviSRcj3PcY5qTgmF4tj+XSKO4uCscFmQItk5OW0qNL7Ski4miSlJt7LPuUpfi+bcbiqiZy/33PMwdp2LGx4wKYm82tp31RREz3RNUxEfHlEaqPwn+2F8YeE/wBsL4xCj2olSwR8U8lGXkQRq3+LkLbJ1YYRuUSG+6fnWZIL/Ex5EbPM9j6ijozjYnq0Sn3wn+2F8YyLALMrTIUNmriJDrB/H1g1Gm6o5JII0xTZil5DSniV8auXyCXeiLbWtznFwqysH5JpTA4ScWZkndUjuLuL+Actp2eaMPNL5byg9G69g6N4+1VzEWmjTt1rph9Lcfroyq5gjbI/ELyC6FWxS7m0/EKagLaAyXvCF0Hz8zq/OEKX2OjegXxB7HRvQL4hVAMil9jo3oF8Qex0b0C+IVQAKX2OjegXxB7HRvQL4hVAApfY6N6BfEHsdG9AviFUMD1J1godNX4kGxrZ8qXPTvH4SQxG33MiJcl5SWknuXtSUa+7ZJ7luGZex0b0C+IW+7n4xjUFVlkVtArIieRvS3kNI3826jLn6hFM7NtSsmTuq5gYzCcLcmqpBSpJpPzyXk8BcvRaIy8iu4xa4WO0MOcVs7Hcn2Zf+cLF5cuUXn2ddNSkl71JkRbFsRbEAzCdqtAm7tYLiNhdqP2syUk6+D/1jqetUXrbaWR+fu3x6fV5PlL6JWU5GzDQhK0Ii0cco5pQoyNSDkr4njI+FJmbZtb7Fy5Cr7YXpB2wvSC470GNYxi5LOhpYsR136q+lPE87926rdaz9ajMXntnvhAfSOtbJMLCq+BHyma3Y5M3HlV+NXSqudNa7JJX1aZBSY/CRKQlZkbyCMkeXuPC6DVW6wfAMmvaSBk7DK8jjUNXU5NJl5HaVMpRpbfckNsPyJDyOI+tQwh5SlJ2NKkJWRkG2HbPfB2z3w1Me1D1GzKzwqxvp0qqrqm0tXbBluluaFy7REi9c08hl2Sy600ojNJsvpfbNaTM+MiIc0fST1Stcdm2yMeaWuZDgza1+Vh9zVRYTkiWyz2N1yWaUTVEh4lE8yptKuBR9WRbbhtl2z3wds98NZLjXnUimzwsRZrU3PsHMrq22RX4TcPJsVyENqekMy2VvR4CGkukvqnzdUokK3WgjSoXDH9Y9S13sC0yJGOKxqzsr2rahwoMhM9o4KnzbfN9T6kLJaI6iNsmkmSjIyWZeKA2L7Z74eMwodjGchWEZiVHdLhcaeQS0LLzGk+RiAiz7Ul/FqHLshex1ytyKypHoLMBMyG/Cbkvo4mXlE+ZSOFCy+mfS0KMjJTJpHjplrpkuXakFjM+ZWz6qwr5k6I7Cxm1gNx+oebQRNzpezNkhSXd+tYbbSXCR7GSiATJGxc6EyXg+RWWOcPtY0dwnoXwdmd4kIL974D9YvULUzPaIybybF417GT3zKNzq3vhVFfVyLy+I8s+/ZPnt3bC9IO2F6QDPsa1SwfKpPsfW3jbVjtuqvmIVGlp8+7LpJXt6yLb1jKyMjLcj3EEW9fS38bsl3WRJzJHulEhpLhJPzlv3H6y5kKaAWU41seHZrOjtJ5lBtDOxi/ARuKJ5BeYkukkvNyIBsCAheJ0h00llGoc8oUNTJKiQ07TySmce/6Y458MhJfcocIvKoTGxIakJ4mlEZAPUAABqH80x/zMYv8Afex/sE0fOMfRz5pj/mYxf772P9gmj5xj6TdH5ifj/KH6y8jX6Mx/mV/yAAB7R/VmQYdn+V4E/MexiybYTYxzizY8iIzLjSmTPfgdYfQtpwt+ZcST2Pu2GURukVrFDtF2sbLUINdeiq7GVZEOAiIhRKQ0iGbXZ0EkyIy4WyMj32Pme8bgMTh0VTeYh4GPuvYdqrnEx8GiqqdJmaYmZj3zMJYT0qteSekSFZylx2TJ7YtblTBWpMjqktE6g1MmbayQhJEpOxlzMj3MzO/4/wBKi5x3T2ViDMK5sbKVVyq1M+zs4r7cftCt3XG0lDTJ8pmTa5KkEo+I0qMi2ggBidnwpi2WHg43Rjc2NTFFWzURETE6UxTrHK+W17XnSdLSk6P0l9bYsWJEj5saOxnF4XyronaHSjGZsJef6rrH0oMzMkuqUXqFDXa+6u1Soyq/Mnmey2Em0bIorBpORIIyeNZGjZaFEZkbat0e9EfgNcHD+rH2PJjce64iYjZsPXn+RTrpbXTumY+Es+utd9VcghT6yzyklQbKAxVvRGYEZiOmKyvjbaaabbShkiVz+lkkz8u488g1w1SynFCwq+ypUqpNuOy6g4jCXpDbG/UpekJQTzyUGe6ScWoiPn5BgoBGFRHKmPsbo3Ru7DyzRgURlm8Wpp0nTWNNJ0jXnpHcAADo9iDMNHC31Vxov/SH/wDZXhh4zHRr/OtjP/1h/wD2V4cNp/NS+Z6afo5t/wDk4n/ZL6wabVhO49GV1h80ly/gGZewqfdFfGMd0w/Q7E+4L+oZuPksSZzS/DlPJavYRPuiv4wewifdFfxhdQGLyrF8mweFlON2uMWEmY1Ft4L8B9yLIUy8ht1s0KNtxPjIWRKPZRcyPYy7hGuA9GfTzSmI3QaY4nAx2sb4eNMVBm6+oi2JTzqjNx1W3LiWpR+sTkONi8w1TXNPJJi6M8t0aocmS1JlxSKcwnhamtGbUlv1JeQZLT/AewjyywTU/E1GqrtGr6Ijf/J7IuB7bzJkNl/roUfvhsgPNxhp0jJaCPf1BmvzLNXPD+LAcKNlVfMx98z4d5qC7Oo/U+kzb+AlGlXqF/bsG3m0utOpWhZcSVJVuRl5yMTRb4XT2za234jaiWRke6S5iKLzo8w4S3JeGzpVE8ozWaYSiSypR+VTKiNs9/KfCSuZ8yDLE8pFB2z1i20VTT4zGkQ6SJ2ZmVLkT3U9YpfE+84px1e6jMy3Woz2LkW+xERC12VdqTiqjTcULdzHTy7RXfSntvObLiuE/Xwr3PyJ8gpq7MKazfVDjzOrmILdcSQhTMhHwtr2Vt69tvWMzTMc1u6s6X4BHyN/KW6d7tz5vr4FWMlUVlx4jJ51mKbhsMurI1cTjaErVxK3M+I96iRp7g8puqZkUvWM01c7URWVSnuqOE6hKFsOo4+F9BpQjk6SuaSMufMVnbPfB2z3wgtNNpXp/RMOMw6uY+p2XGnLfnW0ubIU7HVxMF1z7q3OrbPmlvi4C3PZPM9+95plguQx3mJ1dMZU/OdsVSYFrLgykvuoJDpofjuodQlaUpJSEqJKiLmRi59s98HbPfALLJ0i00k2VdZqx02jrEx0sxY86QxCc7P9QN6K24TEg29iNBuoWaDIjSZbEM37Z6xidrldNSkgrOyaZW59Ta3NTrn3CE7qV/ARi2pyPKrlXV49jxxWzPYpNnunf1pYQfGfwKUgxqmmqrlCXsz05uxbmovjGOTtSaJl1cSrU/cy0HwmzXI60kn5lObk2g/UpRGPOt0jvcpUSslnTLRCu9h36XF+DqUbJUX3fGfrEq43o3AgtNoeaQlCCIktoSRJSXqIuQ6cKKfXlL35IjRI1IydfVx+oooy+XDHSUmSZfviy6tHwEhXqUMnxbRBxU1FtNbdkTS/8smOKffL1EtZmaS9Sdi9QnSsxWqrUElmMgtvULuhptstkJIg4lNPqQWmebGKPEDrY5NqfWr4TF19hE+6K/jC6gOc1TOstLV7CJ90V/GAqUi/5xXxi6gJeRavYRPuiv4wivUjow6W6jZxX6k5hi7V9e08FMCsKxcW/EhpJxThuNxlH1ROmpRbuGk1bIRsZcImkcd/eLFUwPlh07KNeP611sFa+I1YtDc+DeXMLb5BruNpvmkH2QdZ96EH/bJw1ZH1W75zbNTM+/8AjL9p+Tn9Fti/w/8AtIAAPMfag9EyZCOaJDifgWZDzAEmInmzug1v1HxzGWsOg2dZJpmJK5jUSzooFilt5RbKWk5LLiiMyLbkYq4nSI1jr5TcyvzNcVxmqcpGyYgxm0IhLUajaJCWySXMz2VtxJ7iMiEcgOc4WHPOmPseur3Nu3EmqqvZ6Jmq8zeinWZ5zOmt+1msHWfU6texuRAyt9h3EUuJp1IYaI4yXFGayPxPphK3PcnOIjIzLuPYUea6o55qHLizMsyBck4LBRYrLDDUVhhojM+FtlhKG0bme5mSSM/LuMWAWMOiJvERd1o3ZsWHixjUYNEVxe0xTF4vMzOtr6zMzPfMzPa7qffXvxvOK3791GY6AA282IiOQAAACf8AobN9Zml0nfvRA/1pAgAbBdDD9G919xX/AOtIHh7d+afzjytfoltPxw//ACUt7swyvKsRu8JqKfGGpFTeWrEGztZUtKEx0LQ6ZIZaSZrW7u2RmayS2lJ8jWrxSk2PWtSE8TbqjL4Rj2QYceXwMcWVh2X2Dto9sZdVx9cTbbier9sXDv1m/Fz7u7mMuq2jabNJkPl6pfj2Hh7CJ90V/GD2ET7or+MLqAxeVWr2ET7or+MHsIn3RX8YXUAvItXsIn3RX8YQ3C6Kel+M5pdahY7i7KspyOe/PsLua4qVMNTqjM223HDM2WiLZJNt8KSSlJbctxPI42LzC01zTNxgU/S+quqM6e6iMTmTL6nIaS4nfz7K7j9Yjuz0WybHzU7hmTzIradzTEl7zI3wcKz6xJepDiS9Q2CHVSEqLZSSMXPM80s1dkXmaY8o28qw95xtPI5dSo5CfhUyoicT8CesFXUZhRXvGmqtWH3G/qjPFwut/dtq2Un+EiGxMykgTkml5hCt/OQwLLdEMSyYicl1bC3W+bTvDs40fnQstlJPv5kZBameWhqgu60gwW8vp+SvvZTBn2ikOTFVOX29Y2+tCCbSpTUWS22aiQlKd+HfYi3F7yzEcczaqjVGQNTVtQ30SYz0Sykw5TDqSNJLbksOIeQrhUojMlkZkpRHuRmLna6QZ5jhmvG8kdlsJ7otok5CdvMTpGTpH61Gv4BjMrILyiUbWW4tOgEnkcqKRy4x/wAKC6xJetTZF6+8JomC7u3pfp01XVdSnGWFRKW2O9gNrecX1E41KWbxGajMzNS1nsZmW6u4dZmlmAT8kdyuVVSlz3pbFgtJWktMbtbPD1cgoxOkyTpEhKTcJBKUkuFRmkzI6yvyCttmO1VdjHltd3Gy4SyI/Mex8j9Qqe2e+GFWeZpNpzOhSYD1E6huWlKVrZsJLLqDTJXJStt1DhLaWl91ayWhSVEZ7EZEREXR3SPTt2jdx72LntR3p6bRT7FzNamJmEgkG+mWh4n0OKSnZSkuEa+JfFxcat732z3wds98Ax2fonpVYwK+rfxpbcStS400zHsZUdLrLjpurYfJt1PaGFLM1Gy7xtnufi7DJ8lx2gy6n9g7yI4uKlaHWjjSXYrzDiPaOMvMqQ4ysvIpCkqLc+fMx5ds98KKzyinpkJXaWbEbj5IStZEpZ+ZKe9R+oiMB1qNN8DoorESspDbRHhS4CVLlvuOONSVpXINxxazW644tJKU6s1OGe58XM97pUY7j1FMKfVQCYfTXxqsl9ctX+SscfVN7KUZeLxr5+2PfmZ8hjPhdd2h9XjWNSFpV3SrAzjNmXnJGxun8BpSXrFwg6e5rlCi9m7uYtpXfGgkcRnbzGaTNxXm5r2PzDpThVTryS8Ltb51j1I72WfaNnKMt0xWSN6Qr4GkEa/4dthaF5fmFyfVY7jaILau6TaK4lfCTDR7mX3TiD9QkTEtCoFY0TbcJiK2Z8SkNNkniPznt3n6zEkVOA01aktoyTMvKZDWXDo5zdLzKAIWlmTZYolZNaT7JtXewtXUxvg6pvYlF93xn6xKmIaUopGWmmuFhpHtWmkklKfgIuRCTWYUaOkkttJIi9Q9ttu4ScXS1MWW3etjNGwhskq5mXnHp7DRvRIXABzvKrf7DRvRIPYaN6JC4AF5Fv8AYaN6JB7DRvRIXAAvIt/sNG9EhiV9o/g1rlCc8dxarcyduCmsat3IyVS2opLWvqUOGXEhHE4szJJlvvz32LbCOk9jc7KbHTKtqLV2stWcmfm1sxBn9Ils1ktxk1F+mQakkS0/pkGovKKDQHURrN801Dt1Rzh2KZlZDtIKlbqhTWoaUvMK3IjPhV3H3KSaVFyURjVN+cJ7mnHT3om8f1wrYLZmfFisNw/hOXNL/Aa4jaP5o2ri1/qlefEIP+2Thq4Pqd3zM7NTM+/+Mv2p5Of0W2L/AA/+0gAA8x9qz+o151WoqSJQVmUIbYror0GDIXXxXJsKO6RktuPLW2chlJkZ7E24nbybBXa96t1WJowmDmDjdS1HXDbScSOt9EdSyWphMhSDeS0aiLdsl8Pk225DAAHPhYc/qx9j1tW5t3VzM1bPRN5zepT62uvLnrOvPWe9IMjX7VyVLlTn8vWp+bbRrx9XY45cU2OREy7sTexcJJLxC2Se3MjHtF6RWskODLr42ZGhExcxanewRTkMnLVxSSYfNvrWCcVzNLSklvz2EcAHBw/qx9iTuTdkxFM7Ph2i36lPZFo7OyNI9zP3te9WpEifKdy9Zu2caHElKKHHSa2opkbCS2b8XhNJc07Ge3MzF9T0sNekye2JzSKT5SFy0O+wVdxturIicUg+o3QaySXHw7cXPi33PeIwEnBwp50x9jFe4d04kWr2XDn40U90R3d0RHwiI7GdK1x1SXJZlqyk+tj1D1C2fY4+yYLpmbjW3V7czM/G9sXkMgy/XDVLO6FOM5TlSplf1jTzqExGGVyXGkEhtb7jaErfUlJERG6pRlt5xgoDXCovfLH2O1O6N30104lOBRFVPKctN47dJtpr3AAA29gDYLoYfo3uvuK//WkDX0Zrptqrlmj0LJsvw7TWxzKcy3B/yaIfiRy3kfTXSSRuGgu8+BJ9x7qQXMeHt02wZfzjys/oltPxw/8AyUvshRfWLX3Bf1C5j509Bbpm606qUuWZtm+E5Xm0mVatQIVbjiqOJW0zDLXGSW0TJzEg1uKfVxLc4yMm2yJZmSiTtujXXO1JI/oVtUuf/wA5Yt+eB8rVE8349hL4CIfn6Z1+5V1S/CWLfnkPn6Z1+5V1S/CWLfnkZVLwCIfn6Z1+5V1S/CWLfnkPn6Z1+5V1S/CWLfnkBLwCIfn6Z1+5V1S/CWLfnkPn6Z1+5V1S/CWLfnkBLworetZtYTkKQ2hxp1JoWhaSUlRH5DI+8Rd8/TOv3KuqX4Sxb88h8/TOv3KuqX4Sxb88gLTc6Bor3XJeF2UuhcUZq6uCsiYM/Wwoja+EySR+sYrMb1OxdRouKGNeR0/8/Xn2d/b95cM0KP1k4n4OexSAeuedHyPoqapfhLFvzyKaRrHmEpJpd6KGqBkfnscV/PI3miecJZgsDPqCfJTXrmKgzlcihzm1R3jP3qV7cfwp3L1i99s9YoskvrPJYrkSx6IepD7Tntm3puKrQfwkdwZCM7Sj1fYkQ4unWjmf4z10+I285kFlRy6yNDOQ32lam2bN58jSx1poSyXNfARlsZmGWJ5F+9I9tU097JrJlrE696ml9vhK6xSeqf6tbfHskyJXiOLLZW5c99tyIWq4wHDL5dy5Z1S1rv0R0TlNTH2TWpjfqXUG2suqeRy4Xm+FwuFHjeKnalkTM4otyv8AFVzGU98qqV1nLzqZXssvgQbhjvW5dS261MwLFtb6Oa46923kfdNr2Wn+EiGZpmnmt7vSj08wnHW4KKypcNde9IktPyZr8p9x59HA84868tS31qTyNTqlHsRc+RC3VmjmmdQUlMSikLTJNkiTJtZcgo7bTxPNsxyddUUZlLiUqJlngb8Ui4diIhfu2e+DtnvhBb7zTbBckyNjKripeenMOMuqSiwktRZDjJ7srkRkOExIU2exoU6hZoMi4TLYtq2Nh2Jw+w9nqUkVbMlz4xG84okPyes69Rkaj4uLrnOR7kXFyIti279s98HbPfALHU6QabUq1LhUb6j69l9opNpLkpjdS71rTTBOuqJhhKyIyYa4WuReJsWw9sV0r0/wq0auceqpbUuM28xGXItZcpMZh00mthlDzq0ss7toMmkElCTLxUluYuMu4hwGFSp0xmMyjmpx1wkJT8JmexCxqzxE0+DGqibbKPkTyU9THL19a5txF60EsWImrSBn3bPWKG1yinomSkXFpGhoUeyTedJJrPzJI+aj9RcxjETHtRMmUSZVkVcyr/mKxvxtvMbzhGZ/ClKDGaYroLHjv9uciEUlwtnJLyjdkLL3zizNZ+Xy+UdYwZj1pszm7mJu6hWNgfV4tjMuUR8ikzt4jPwkSiN1X8QiPzj0jYjqBliuG4vZKGV98asScRrb1rIzdP8AgWRHz5CeKbTOnrySbjJLUXlMhlcWqhREklllKdvMQZsOnlFzWUOYZoozSePFjNROM+Jzq0bKWfnUfeo/We4l+orPY2OlnjNWxeUV5JJPIi2HIxViTXzWIsAADCtQ/mmP+ZjF/vvY/wBgmj5xj6qdNbR7K9adMqmgw+TVsy6u8btXTsHnG21NJjSGjSk221nxbvJPYyItiPn3b/P+X0ZdVYb6mHUUZqQexmmW+Zf/AKA97uzaMPCwppqnW/g/Rvkv6X7j3JuGNl3htNOHXnqm035Ta3KJRWAk76G/VH3Ol/lT/wCQD6G/VH3Ol/lT/wCQHsvO8Hv+U+D+i+kfot7bT+LwRiAk76G/VH3Ol/lT/wCQD6G/VH3Ol/lT/wCQDzvB7/lPgekfot7bT+LwRiAk76G/VH3Ol/lT/wCQD6G/VH3Ol/lT/wCQDzvB7/lPgekfot7bT+LwRiAyXT/Ty81QqJF5hNtQWMOLNer3XG5b3J1o9j/5nuMjSpJ+VKkn5RlP0N+qPudL/Kn/AMgHnmDPb8pPSP0W9tp/F4IxASd9Dfqj7nS/yp/8gH0N+qPudL/Kn/yAed4Pf8p8D0j9FvbafxeCMQEnfQ36o+50v8qf/IB9Dfqj7nS/yp/8gHneD3/KfA9I/Rb22n8XgjEZjo1/nWxn/wCsP/7K8L79Dfqj7nS/yp/8gMm0z0F1Dx/Paa9s26zs0F1xbhMPurWfEy42WxKaSXesj7+4jHLH2nCrw5ppnX4S9D0p6e9G9u3HtmzbPtdNVdeFXERrrM0zERy7ZfS3TD9DsT7gv6hm4wvTVpxmgituJNKiQXIxmg+YxPWl+SaeQAAMNAAAAAAADgyI+RkOQAUsmtiS0ml5lKiPzkMIy7R3FMqY6mxqo75EfEjjbIzQrzpPvSfrLmJBAaiqY5JZrReaG5bj5qdxLIXnGU90OxI5Le3mS5uTqf4VKIvMMLn2V9jqjbyzG5kAk98qORyY3w8SS40l61oSXrG5Km0LLZSSMWqxxqssUGl6Mg9/ULemecDT8suVOM28dq5VqrfbrW09XHI/W6vYjL7jiP1C5V+GZ1kqyKwslQ2Vd8esSaTMvMp5RcR/CkkGNjWdLqRqR1xMJ2LuTtyGTQKGugIJLEdCdvMQ3fDp96ayhHD9B4kAzdTCbYW7sbrhkanXPWpZ7qV/CZiUqXTynrEpPqEqUXlMhliUJSWySIh2EqxaqtFtCnYgxoySS00kiL1CoAByUAAAAAAAAAAAAAfM35pB9kHWfehB/wBsnDVkb79OHo46h6majw9QsXlUZV0ahj1jjMuS82/1rciQ4ZklDK0mnZ5PPiI9yPl3Geq6ujbqkkzSbVLuX/pT/wCQH0ewbThUbPTTVOsfHvfqjoR046Pbs6P7Lsm17VTTiU02mJvprPuRgAk76G/VH3Ol/lT/AOQD6G/VH3Ol/lT/AOQHmed4Pf8AKfB9V6R+i3ttP4vBGICTvob9Ufc6X+VP/kA+hv1R9zpf5U/+QDzvB7/lPgekfot7bT+LwRiAk76G/VH3Ol/lT/5AWvJ9D9R8Wo5V9NjVLjMUkcSUSntz4lkku9nbvUQeeYPf8p8EnykdFYi/ntP2VeDBQEmp6OWp6u5FL/Kn/wAgOfob9Ufc6X+VP/kA87we/wCU+C+kfot7bT+LwRiAk76G/VH3Ol/lT/5APob9Ufc6X+VP/kA87we/5T4HpH6Le20/i8EYgJO+hv1R9zpf5U/+QD6G/VH3Ol/lT/5APO8Hv+U+B6R+i3ttP4vBGI2C6GH6N7r7iv8A9aQML+hv1R9zpf5U/wDkBM3Rg0lzHBcsnS75qGaZvZUtlFccXt1Zu78XEhO31Qttt+4x4217Rh4mHlpn+L4byj9NNw746N7Rsew7TTXiVTRaIvebV0zPOO6LvojRkRwWiP0C/qFyIiLkRbC3UZGmG2RlzJJF8guQ+anm/MsAAAigAAAAAAAAAAAADottCy2UkjFssMarLBJpejIPf1C7ALEzHIQ/lfR9xW6fVYMwuzTT7pUVamH/APrEGSjL1GZl6hHFxpVqRjRmqqtGbmMnuZsEdW7t5ieaLb+M2Z+cxtOPNyOy6Wy0Ee41nv60JZpnJyOTTr6nJ6WfTKI9usfb445n+/I3QX+kaT9Q8EZVLsT4Mdo5lhv3PrSceP8ADxrLdRetCVDbm0w6os0KS9FQfEWx8hZoemFLGf602CPnvsZCxGHzk1a5wMJzvI1EVhariNK/8nrG+DcvMp5e6z+FJIEgYloJDhL7T2FDTrheO8vdbyy984ozWr+ExOcKjr4SSSywgtvMQrkoSktkpIhrixT6kWS3ew2m01p64kqWyS1F5TIZTGrIcVJJaZSki8xCrAc5rmrmsRZwRERbEWw5ABlQAAAAAAAAAAAABQ2dPW2jkWRNr40h+A4p6I660la47hoUg1tmZboUaFKSZlseyjLuMxaIuG1UCwlWkCtixpVg4h2Y8yylDklaUkhKnFEW6zJJEkjPfYiIu4hkoCxMwPmX80cTwdICrT5sQg/7ZOGrY336cPRx1D1M1Hh6hYvKoyro1DHrHGZcl5t/rW5EhwzJKGVpNOzyefER7kfLuM9V1dG3VJJmk2qXcv8A0p/8gPotg2rCo2emmqdY+Pe/VHQjpx0e3Z0f2XZNr2qmnEpptMTfTWfcjABJ30N+qPudL/Kn/wAgH0N+qPudL/Kn/wAgPM87we/5T4PqvSP0W9tp/F4IxASd9Dfqj7nS/wAqf/IB9Dfqj7nS/wAqf/IB53g9/wAp8D0j9FvbafxeCMQEnfQ36o+50v8AKn/yAsmbaRZjp7illmeVSaSJV1TPXSHTlP795JSlJdTzUpRpSReU1EQeeYPf8pPSP0W9tp/F4MMASBS6FZ5kVTCvKWTQy4NhHblRn25b5pdaWklJUX0juMjIxXfQ36o+50v8qf8AyAeeYPf8pPSP0V9tp/F4IxASd9Dfqj7nS/yp/wDIB9Dfqj7nS/yp/wDIB53g9/ynwPSP0W9tp/F4IxASd9Dfqj7nS/yp/wDIB9Dfqj7nS/yp/wDIB53g9/ynwPSP0W9tp/F4IxE/9DdpL2Z3bau40QC/pSBh30N+qPudL/Kn/wAgJm6MGkuY4Llk6XfNQzTN7Klsorji9urN3fi4kJ2+qFttv3GPG2raMPEw7Uz/ABfDeUfppuHfHRvaNj2Haaa8SqaLRF7zaumZ5x3RduNimiOF0F9PzDHser6+zvSZXaSY0dLTk1TXH1anTSRcai6xfjHz2Pv7hJjdLHJBEouewiKk6QURi/1Aw+di7saVhENUuA4uUXV3SG4jT7xIPg+lKbU80hSfGMicQrmR7FLeO3iL+krrgmOoOfEZldVxcXV8aCVw77FvtvtvsQ+dqmqeb8yw9PYaN6JB7DRvRIXABi8qt/sNG9Eg9ho3okLgAXkW/wBho3okHsNG9EhcAC8i3+w0b0SD2GjeiQuABeRb/YaN6JB7DRvRIXAAvIt/sNG9EhwdLFPkaSMXEAvItjmP1zrZtLYQZH5yGE5boniWUN7T6qO8pHNtSkEamz86Vd6T9ZGQkkRNqXrnNwHIJ8OHhzVnTYzBi2mT2Dln2dyFFkOOIQcZkmllJWkmnFrStbJEgiNKlqPhFiqqOSWYBdaG5dQmp3FcjfcZT3RLJJymyLzEvcnS+E1KL1DDp8vKMeUaMnxSYwhPfJgkctn4TJJE4n+FGxecbgMPxpzZLRspKi3I/OQpJ+O1s9JpejoPf1C3pnnA088NYUk+rpY0u2dP9LEaM0EfmU4rZtJ+o1b+oVkSn1ByFRJStinZV5I6e0SNvu1kTaT9XAv4RskvS2kVJ64mCIt99iLkMgrsWqq5JEzGQW3qG44dPvNWv2N6CJkSG59jHclyUnuUic4b7iT97xckfAkiISvSaU1kMkrkI41F5xICGm2y2QgiHcScarlGhlW2DQ10FJJZjoTt5iFwShKC2SkiHYBzmZlQAAQAAAAAAB5SI7cls23UkZGMdkYPSvLNaoDRmfPfhIZOAsTMchiPgBR/re18RfiDwAo/1va+IvxDLgFzyloYj4AUf63tfEX4g8AKP9b2viL8Qy4AzyWhiPgBR/re18RfiEe6/aOZXmOk1/h+lUinqL+8ZTXFZT1OJRCjOqJMl1BNoNSnSZNzqy3T45pPiLYTgOFJJRGky5GGeS0PmF0JejJmmhOTX1g1mcPIMNm2FxUWceREcjvtTKyyfiNSWUEbiDS4hpxSyNSTLjSXj8BGN3MZyHSDKsTx3M6O0izKnKZCIdVJbjubPvq49kGk0cSD3bWR8ZJ2NJkexiy6LQm1YZljTbHG54a5olKSTuZmd3OMiL4xF+OYRnGBRdIoVViVkukuJNPPu4yWDSqjsmIKkuvutmRKQh4iSlZ/pXUEZlu6Zl1zRMREJazZ0sBold1e18RfiHPgBR/re18RfiF+qHjfZ4jFwHOaphbQxHwAo/1va+IvxB4AUf63tfEX4hlwCZ5LQxHwAo/1va+IvxDs3gdK2olJgNEZeovxDLADPK2UcGC3DbJttJJSXcRCsABnmAAAAAAAAAAAAAAAAAAAAAAAAAAAAAAAAAAAAAAAAAAACjsayLYtm3IaSsj8hkLA5gVGpRn7HtfEX4hlYCxVMchiPgBR/re18RfiDwAo/wBb2viL8Qy4Bc8paGI+AFH+t7XxF+IPACj/AFva+IvxDLgDPJaGI+AFH+t7XxF+IRj0l8LpoOh+US24LaVNNR1EZEXf2loT4Io6VP8AmAzA/NFZP4pDYtNc3LLzW4LSLW4RwWz57e1IUWIN6aZ9XyLbDJ9fcQos6RXOSYp8bXaGFmh1CVbbK4VEaTNO5bkfMZbHgwrOPLrbKGxLiSkLZfYfbJxt1tRGSkKSe5KSZGZGR8jIxgmkNHMxxrI686hysinlFm5EYOObKOzm79LU2nYi6s0kXCZctiLYamqb8xlfgBR/re18RfiDwAo/1va+IvxDLU+1IcjGeS0MR8AKP9b2viL8QeAFH+t7XxF+IZcAZ5LQxHwAo/1va+IvxD3i4XUxHCcZhNpMu4yIhk4BnktDxjskykkkXcPYAGVAAAAAAAAAAAAAAAAAAAAAAAAAAAAAAAAAAAAAAAAAAAAAAAAAAAAAFHY1kWxbNuQ0lZH5DIWBzAqNSjP2Pa+IvxDKwFiqY5DEfACj/W9r4i/EHgBR/re18RfiGXALnlLQw5/BsejMuSHoLSW2kmtZ8O+ySLcz5EMRoL/R3KcYx/Msftos2mymSiHUym47m0h9XHsg0mglNnu2sj4yTsaTI9jEp3KFu085tpClrXGdSlKS3MzNJ7ERDUDHcJznA42kcKqxKzXSXEmnn3cZLBpVR2TEFSXX3WzIlIQ8RJSs/wBK6gjMt3TMtU1TMjZwsBold1e18RfiGqXzQ3o35vqrpQuvxO7qcfxTHYNjkl8tSHHZk56Iwa4sVttJJT1aj6w1KUvkZIMkmaSI9zKh432eIxi2usRM3RTP4yk79Zi9qj44jhCZpvaSzWToZaI5bpJhnzvcxvIWSVER/rqGcllbb6YjqSWbTyFbkk0uKXw8K1eKou7YiG0qcBolERlXtc/UX4hR6aNx38WopJNp3dq4jnd52UmM6IiItiGq67zokQxLwAo/1va+IvxB4AUf63tfEX4hlwDGeVtDEfACj/W9r4i/EHgBR/re18RfiGXAGeS0MR8AKP8AW9r4i/EPeLhdTEcJxmE2ky7jIiGTgGeS0NddSNAsnyOkzwqS4rq/ILi3dtccnKStxEY11zERTchPCR8DhNuoWSDPxVJUR8RFtLeBQJtTS11RNNKnYMNiM4pBmaTUhskmZGZEe25eYhli2m1nupJGCGW0HxJTsYua8WV3AAGAAAAAAAAAAAAAAAAAAQPrLpFmmT32QJxt2kKizyshVGQOy33WpcFuOt3d2O2hpaZCnG3jb4VrZJBpJXEv2ongdHGkOlsstxYm03FnoGlNIJBEZISWxb+Yhex0bZbaLZCdh3CZuAAAgAAAAAAAAAAAAAAAAAAAAAAAAAAAAAAhTQUtqrJkebPcr+W3kn/iJfXXMu7mot9yEQ6E8ouXI9HPcl+WwdV/iJpT7UhqZHlGitxUcCC5D2ABkAAAAAAAAAAAAAAAAAAAAAAAAAAAAAAAAAAAAAAAAAAAAAAAAAAAAAAAAAAAAAAAARR0qvsfM1PzQUn8TyDEriKOlX9jxnJ+asM/iWkwEgVP1Zz7oXFcZC3CcMW6p+rufdGLuNTzHBcuQ5ABkAAAAAAAAAAAAAAAAAAAAAAAAAAAAAAAAAAAAAAAAAAAAAAAAAAAAAAAAAAAAAAAAAAAAAABSO1zLpmai33FWADxjRW4qOBBchhWvUeJL0N1Eiz2usjPYpbtvI4jTxNnDdJRblsZblvzLmM7Ed9I1/svR71Pk77dTht058UJ0wHGjlRGx/AsVoa9nqYdbRV8RhviNXA23HQlKd1GZnsREW5mZiRRi2HR+zVsCNt9RiMt/E2RDKRqpIAABlQAAAAAAAAAAAAAAAAAAAAAAAAAAAAAAAAAAAAAAAAAAAAAAAAAAAAAAAAAAAAAAAAAAAAAEKaHcizZHo57f/LKNX+ImlHtS+AQjoXKbkSdQUNJdT1GoN20rrGVt7n1iDM08RFxF43ti3I/IYm5HtS+AansSHYAAZUAAAAAAAAAAAAAAAAAAAAAAAAAAAAAAAAAAAAAAAAAAAAAAAAAAAAAAAAAAAAAAABFHSs+x1z4/NTuH8RkYlcRR0rPsctQj81FIP4i3ASBVfXDhesXcWiq+uXfuhdxagAAEAAAAAAAAAAAAAAAAAAAAAAAAAAAAAAAAAAAAAAAAAAAAAAAAAAAAAAAAAAAAAAAAAAAAAeMuZEgRnJk6UzGjsp4nHXlkhCC85qPkRAPYBH8vWbHZClR8Mr7HK3i5E7WtkUMvWctw0sqLz8Clq9R7lva5FlqZkW5T76Di8RX/k9QgpUoy8xyX08Bf6LJGXPZXcYCRLvIKLGoSrLIbmFWRU8jelvpaRv5t1GW5+oRPq5fTdX9Lsx0209oLGQvKqCwpWrmcycKBHVJjrZJ3d3Z10kmvi+ltqI9j8YuRi5VWHYtUzitygqnWhf+cbF5cyX69nXTUpBe9SZJ5FsRbEMh7Z74BZK3UuLj73V5zj1ljaUkSe1OtlIg8vL2hniShPrdJs/UJErLeruobdhUWMabFeLibejupcbWXnJSTMjGLds98MXm4Li70xdpVMv0Vi4fEubTvqhuOK87hI8R74HEqLu5ciFmbiXQEUx7zVHHNiTMrMtiJ/SyUlAnbfdtkbLh+rgaL1i8V+tGIqeRCydMzFpizJJN3LRMNKV5kSCNTCz38iXDPu5cyEGfAPNp9l9tLrLqVoWRKSpJ7kZH3GRj0AAAAAAAAAAAAAAAAAAAAAAAAAAAAAAAAAAAAAAAAAAAAAAAAAAAAAAAAAAAAAAAAAAABCmiRcT2cuefPbz5HiL/AAE0o9oXwCFtDebOZr9LPch+SYsv8BNKPal8A1VyhIdgABlQAAAAAAAAAAAAAAAAAAAAAAAAAAAAAAAAAAAAAAAAAAAAAAAAAAAAAAAAAAAAAAAEUdK37G7Uc/Njsw/iQYlcRT0rvsatTD82Mzz+JpRgM/qvrh37oXcWip+uHfuhdxZAAAQAAAAAAAAAAAAAAAAAAAAAAAAAAAAAAAAAAAAAAAAAAAAAAAAAAAAAAAAAAAAAAQzqFrTlON3ciibx1jHIjbhtt3t4hx2M8W+3E2TWzREfeXWPoV3bo79gmUzIiMzPYiGEXGsuC1z7kCsnPZBPaPhXEpWu1qQr0VuEZNNH++LSIskwDy1opOX5POydl4uImHnkogKL1RmuFpZeY1ks/WLxGVGhMIiw2WmGGi4UNtJJCUl5iIuRALtNzrUu/M0V8arxSIf6d0/ZCcZeoi4WWlf9cXL18rT4J08ySifksibkkxs+JD9w/wBoJCvOhnYmWz9aEJHr2z3wds98AvhS0pIkp2IiLYiLyB2z1ix9s98IM6RFGWXZtpvUHp9iOakb9q57FZQ91UFW0ZPjmrs0nx0+T6Uff3kA2P7Z6w7Z6xrrh3s5pRcUWJzHaOgq7Zm8tDo6jhVXVpNpjm2xHWtptRoQXWuHwttkZrWfAREQjuuz/M5qLPUmNqKqBZQtPKK/kMtQoy/Zd0lSzJp0ltq4WVmfDsz1a+JadlkRcJhud2z1h2z1jUefqBb4dlWX5LXwYjkiKrIbJLT8dClJdar6xSS6wyJaEkZnxElSeIiLfuLbKstyfLcYqYmMQNYMkyO8ubBg2GqitpDu221MOPKbQqR1UFps0tGpK3mlK4ErSRrUaVJDY7tnrHR55mS0tiQ0h1pwjStC0kpKi8xkfeIq0MzO6zDS6lvshmPSbB3tDLr76Y6XXeqfcbSpzs5mx1hkgjUbX0s1b8Hi7DPO2e+AU7OJwqhw5GG2thjDpmauCtdIoxn76MslMc/KZIJXrLvF5haiajUGyLykgZNFT3yKtZRJRF62HlG2s/OZOp9SeexW7tnvg7Z74BneP6u4NkEturK2OutHOSa+zaVEkqPzIQ4RdZ8KOIvWMyJSVFukyMQRZRqy5iLr7eBFnRXPbsyWkuIV8KVbkLUS5mExznY5nkqghs8zjznylV6S83A+rdtPqbW2QDY0BDOm2utpldwmjs6BmSxwmfs3XG4iGoyLfY0vJSfPuLq1OlzLcy57TG06h5BLQfIxbTA7gACAAAAAAAAAAAAAAAAAAAAAAAAAAAAAAAAAAAAAAAAAAAAAAAAAAAAAAAAAIU0H8aBlivSz3J/ks3i/wE0p9qQhbQPnTZIv0s9y35LmWX+AmpPtSGp7ByAAMgAAAAAAAAAAAAAAAAAAAAAAAAAAAAAAAAAAAAAAAAAAAAAAAAAAAAAAAAAAAAAAACKelf8AYz6on5sUsj+KOsxKwinpYfYx6qn5sPtj+KK4YDP6n64d+6F3Foqvrl77oXcWeYAACAAAAAAAAAAAAAAAAAAAAAAAAAAAAAAAAAAAAAAAAAAAAAAAAAAAAAAAAAAAAALZc0ca5YUxISSkrIyMjFzAWJtyEHXfR8r47zk7FJcuikrM1muuc6pCledTRkbSz9akGMUnVeqmLKNM6uh5BGR+nY/ySTt9yozbWf8AC2Q2bMiPvIeD8KNISaXWkmR+oazRPrQlmr8bUGiXIRBsnHqiYs+FMayaOOpZ+ZCleI5/oKUL92z1iW7/AE3x6+juRplew626WykLQSkqL1kfIxFlt0fHqnd3C7mbUbc0sNL6yN8HUubpSX3HCfrDLE8pFP2z1infarpMyNYSYMZ2VC4+zPraSpxjjLZfAo+aeIuR7d5d4sFhE1HxlRpu8cbtWE/+U1auBzbzmw4fL/RcUffy89PAzGmsZBwmpvVTCLxoklCmHy/+zWRK29e2wzNMxzW916yCgxbLGY0bKsbqrlqHIRLjN2ENuQll9HtXUEsjJKy8ii5kKN7BtPpEivlyMFx51+pNpVe6usYUuIbRKJo2jNO7ZoJa+Hh24eI9ttzHr2z3wds98IKxNVj7c1dkijr0y3FOKXIKMgnFG4lKXDNW25mpLaCPzkhJH3ELGWmGlKaBWKJ0zxMqRUrtyq0qaN2U5PuxtcHB1nvtt/WLh2z3wds98AudezW1EYoVVAjQo5LW4TUdpLaCUtRqUrhTsW5qMzM/KZmYqe2esYVNzqjhvqhNylTZieRxoTZvukfviRuSPhUZEPJqbnt8rgrKqPUMq7nJR9okbfvaDJCT9fGr4PPqmiqrlCTMQzlc9DaFOOLJKUkZqUZ7ERF5TGNydS6PjUxSpk3j6TNPDXIJxsj8xvGZNJPfyGrf1CpqtErC/cQ/kb0y2VuSv8uXxNEfnJlJE2Xw8O/rEqUGj8CGhHaEJ2QRESSLYiHTh00+vKXvyQ2iRqTkiurilGo2F+4J7VJ28/GsibSfq4F/CMgodC3LCU3ZW6H50pJ7pkT3VPrSfvOLkj4EERCfa7FqquSRMxkFt6hdkNNtlshBEHEpp9SC0zzYJj2mcOrNDq1GpRcxnMdhMdom09xD1Ac6q5q5rEWAABlQAAAAAAAAAAAAAAAAAAAAAAAAAAAAAAAAAAAAAAAAAAAAAAAAAAAAAAAAQn0feeO3qvSz3Mvkv5xf4Cay7i+AQn0dz4sUuF+fPc3+TJrIv8BNhdxfALI5AAEAAAAAAAAAAAAAAAAAAAAAAAAAAAAAAAAAAAAAAAAAAAAABxuRd5gOQAAAAAAAAAAAAAAAAEU9LD7GDVo/NhVyfxQ3RKw1b6ffSHwDSTSDJtO86ZuIT2oOHX8Gks24XXQFziimhERxaDNbbqzdRwmaOAy4jNRcJ7BsZV/XTv3QvAhzo/dILAukFW3GWadN2rtBBs110azmxOzNWSkIQpbsdKz602yNZJ4loQfElRER7GJasZK4ldJmNEk1MsrcSSu4zJJmW/xCzzFSA14036SOUZbhWGy8gpamvymzuK+Ddw2ycNkosthb7MmNuviJK2yRsajVsonUHuaTGwTD6X07pCYmB6gACAAAAAAAAAAAAAAAAAAAAAAAAAAAAAAAAAAAAAAAAAAAAAAAAAAAAAAAAAAAAAAAADgyI+RluOQAUcqrhS0ml5lKiPzkMLyrR/FMnjmxY1MaQjfckutEokn5y37j9ZcxIADUVTHIs1sutAr+l4ncQyOWy2XMoszeWx8Hjn1iS9RLIi8wwW6eyzDmHpWYY6pqFFQpx6whO9aw2hJbmtaVcK0EREZnsSiLbmY3LUhKy2UkjGlHzUeXqbN0QXpppNhNtZPX7EqyyG0jsmiLXU0FKXnyckKNKELcPgIkcRqWhDqSSfEQt4nnCWejM7LrkyTTUBRG1d0ixVsZl5yZQZqP4FKQYyCq0evshUlWQWM6wSfeyR9nj/B1aNuIvUtShZugZPz2TppEwjWrEJtZk2JGiq7TITxtWMVKEqjvtvEZpd2QZIUZKPxkGZ8zG4saFFYQRNNJItvMOszTh8o196ReUS4volX1rDbPZmWGkdzTLZISXwEXIhINXhVPWpLq4yNy8pkMhIiLuIcjnVi1VLERDyajMslshsi29Q9QAc1AAAAAAAAAAAAAAAAAAcbl5yHIAAAAAAAAAAAAAAAAAAAAAAAAAAAAAAAAAAAAAAAMJudYMLrJTtZWSn8gsmT4XIVK2UpbavRcWRk0yfd9UWnvIBmwobm8pcdgOWt/bQ62G17eRLfS02n1GpRkW4jSZlGpmSEaGnoGIQ193UcM6w2+6WXUNH6uB0u7mKWvxLH4c9FzLbetbVHtbGzfVKkJP3ilmZNF3cmySXqAZDI1WkWx9VgOJTrdKu6wnb18AvWSnEm64XmNtpST29sXIW96lyrI/GzTNJPUK762j4oEbbzLdJRyF+vZxCT5+J5Cr+2e+DtnvgFmRppjtUZP4TLnYpIJRr3q3iJlxZmZmpyO4SmVmZmZqUaeM9zPi3PcV7GYakY3sm9oImTw08u1U6ijyiLzqjPL4VeczQ7ufPZHcQqu2e+DtnvgF7xvUvDcpknXV1uluyQnicrpaFRpbZeUzZcJK9u/xttuXIzGTkZHzI9xFd5UUOSxkxL+piT2kHxNk+2SjbV6SD70q9ZGRi3RYWYYyrjw/NJDkdPdW3nFNYIvMh4zJ9HwqWsi2LZPnCZgEZw9ZFVhkzn2LTqbbkc6JvOgH6+sbSTjZetxtBF5xnlLf0eRwG7Sgt4djDeLduRFfS62r4FJMyMBcAAAAAAAAAAAAAAAAAAAAAAAAWB7NaePmD2FyCealsVKblx9ZJJhLBuqb2NXFuSiNBmfLbby+QX8QbrbpplWbW2XIqorRRbrA1Ucd551BNuSzkOL6lZc1ElSVERq4TLZR958hYi8jIKvpJ6WZBcFWYrcpyCMuZXwm7SpkR5cB1ctD6kKQ826ZKSns7hLMi3IzIiI+e3rj/ST0Rv8S8OFalY5V0x3EmiTKsbiIw2qay6pvqiX1poNS+DjQni4jQpJ7FvsIahYrqHk2cozmVphKxJmTa0D7kKXNgLkJbhtTG3XHOzPON7l1jRJJK1GaODuMlIRieTaW6vMdiuKurzSMddIyitXEx6Tj6n5kexnpktv/wDKaXWSjqQXAv2j6T/5taR04cW5s5m291qjpnjV1CxvItRMZqraycbZhwJttHYkyXHN+rS20tZKWatj4SIjM9j2FLP1f00hTMjpo+bUljeYpAdsrajg2Ud6yisob6wzXHJfGjdJp24ySR8SefMa6NaMZOzjeTV8fGkyZsvEcaoobz8th915UBx5Ztm6aWiPqzWSiWbbZGZ7pIj5FXFh+pR32X1MDFLmHTSIt0qO1YyKmTXOSZiVmTla83tPbcdcXxOplbNp3UlG6SSoOH71u2JTn1OvFqfLUNOlEu+wdQh16Ow4ntakE3xG64lG5dYW6UqUoz5IJajIjx7K+kLo1iNLl1vM1Fx6Y5g0c5F9AhW8VyXB57JQ62bhdUtSvFSThp3VyEU1T2omYae47hdjo9lGNy8em42867azqhbL6IsuOp82jizXleKhtavHSnctiLdXIY1NwTVCfWZ5jMHEbqFWPUNpAqodtJp32EyJC+Im6mTH4ZZMOGSlO9v4T4uo4SIkq2zFFyZs2QY1k0lk39TibWp2KHfX0RudV1XszG7ZOjrSpSHWWePjdQaULMlJIyMkqMj5GMwIyPmRjTe9xPWi91DasfB7IaumTkVLeKhsHQNVr7LKWCcVKWRLnuTm1JUR8LqWTbaQSVL24F7bUch2RHJTveFVNouRN3yt+aedP7UGn1BsOjropksnH4VGlDeRXFe91cuVKUklKituJ8ZptBKSSzSZKUviSeyUnxfNCBleUVV4nJ6zI7SJcIc65NgzLcRJJzffi6wj4t/XuJd6cOKXmHdLnViuv2Vtvzcqn2zBq/TRpbypDCi9XVuo+LYQcMK+v3zMrp8ZlqtKkaIazW6rW9r4na6e6fMuvmx0GROMvny43EEaTJftlJ4uLmniV9J2nUvNk4g9yMtx+eToEYfkuVdIuok47fWdGVNDlzJVjXJYU8w2plTJEkn23Gj4lupLxkK5GZlsZEZfaGg0x1Ck1zLiuknqmW6e5DFARf2WOk03pipL62T6AhT50+eH7bpH6rH/AAUZf1VofOkzY/bdInVU/wD7SnL+qvIYsqawEKfOgy8/bdILVU//ALzVl/VBHHznsnP22vmqp/8A36vL+qGGWRNgCE/nNZCffrtqqf8A60hl/VFD5y92fttb9VD/APXMcv6o4ZZE2ANa7vH6KkmrqHtf9U59oj21dXXRSpSfNxNssGaC7/GXwp5Hz5C84SxqhTNS2Kq4t2okxSFFJzGxTaS2SIjI+qYY4Eo3Iy9s8rmReJ3kaYsJ5WtLaTWtRJSktzMz2Ii841h6ZmEae9KfRu30gqJq7i/Q+3NqJVXFOW1Xz2jPhU48WzLZGlTjSiUslcLitiMyEhrwmBbKJ/N7iyyp3fi6uydIohH5iiNklgyLyGpClcvbHzM8njrjQ2ERYjDbDLRcKG20klKS8xEXIiEEMdHKkwvSHHsf0mizHaRFJEREjxbVg4T0p0vGcdSStkOKccUtajbNRbrPYbJy46Zte/DS6SevZW1xbb7cSTLfby94w6xYrbiI5X28CNNiulstiS0lxtRetKtyMY21hq6MycwTKLTHuHuiJc7VBP1dne4ibT6mVN93f376qqzczkx+X0cUNO6ay4WVSWJunzUSNJcajETd1HYYUhDbrZqPg4Vq6xCiNRo3WnmS1CbaZDqWNnSMj9YwKPn2dUXi5TiDFxHL202gc8fbzqivKJRF6kOOH6hk+M6kYTlL6q+nu2SnoLicr5CVR5jZedTDpJcSXI+Zp25GE1XiwygBwRkfce45GQAAAAAAAAAAAAAAAAAAAAAAAAAAAAAAAAAAAAAAAAAAAAAAAAAAAAAAAAAAAAAAAAAAAAFL7J1vskdP7IRu3pYKScXrU9cTJqNJOcG/Fw8RGXFttuWwCqGAdICEU/QzUKMZb8eK2ydjLffeI6M/GDa6ofc0R1Cbiy+yPKxW2S2/1ZOdUo4juy+E+Stj57HyPYImwotN6WCqipp7aC4na+M5xefdpJiRUp4UkkvII50YYnwtPsSgWs45syNQV7UiV1RNde6mOglucBck8R7nwlyLfYSONVzMzqkAAIp14uMsjT9NsUxTNLLFTy7LXaqfZVkaG9LRGbpLSbwtlMYfZSanYTJGZtmfDxEWxnuWVSsAhJOmmpjm5t9KfVZRequxb8zDt87DU/8AdS6rfg7FvzMLaRNYCFPnYan/ALqXVb8HYt+Zg+dhqf8AupdVvwdi35mCwmsBCnzsNT/3Uuq34Oxb8zB87DU/91Lqt+DsW/MwWE1gIU+dhqf+6l1W/B2LfmYPnYan/updVvwdi35mCwmsBCnzsNT/AN1Lqt+DsW/MwfOw1P8A3Uuq34Oxb8zBYTFZWMGnrpVvaSm40OCwuTIfcPZLTSEmpSjPyEREZn8A+BHTE6fOrfSUzK0gU+S2ePaesvLj1lFDkKZTIYJRkl6UaDI3XFkRKNKjNKN9kl3qV9Z9YNFdXMl0lzbHK7pHamWsu1x2yhMQJUHG0MS3HYziEsuKZqUOkhZqJJm2tCyIz4VJPYy/Pk8y7HdWw+2ptxtRoWhRbGlRHsZGXnCwyzTfV3U7R++ayXTLObjHLFpZL6yDJUhLmx78LjZ7odT50rI0n3GRj7sdBLpfJ6UukzN5fRo8LKal8666jscm1PERGl5sj5khxJke3kUS0luREZ/n5H0x+Y/095Vw81yhZLRXW0+BDjb77KcjoeU6ZfwSGy39XqG8OnNNknR9N1666awsFrdQL7IYlFAuScTXMWstiLIlvJJZ9Q0lTnC46om1GlCVGZ7fCPXCdY8Xz1uwdqIVmwmtrq+zd7U02niamR+0NknhWrdRI5KI9iJXcZlzEFP4BqBjFVh8tOmrmTOt4zbYxMrm5cFBwFTH23EvuKfcShTBpb4XerNbhEaOFtzxiLzxOl1U0rQpiBpfaZOq/wAbp4Kl19nAbRWTYsXs60Su0Ptn1XNCiWwT6jJLniFsglooiYuXT3T62aX2rGJplZnT09lm0FqfSU9pYx49hMbcQSiJtg1mpxRb7HwcREe/MZLHyjGZZxUxcirHjmyHokYm5bajffZ4utaRsfjLR1a+JJbmngVvtsY1iLTrULFLbDaWgpbWUmHU0tbb2MdyrfopqYXec1iWRTWlNmbimFQ+9akG4ZEnYu1Bjuq8e9paN/AEsQccyLJLP2WlTorsOciciYqMbbaHDe4d5KUOpcbQZK9rxp3WTJcun2BrPo9as3Eir1Xw6Y1jrpMXC497FcTXOms0EiQaVmTKjWRp2Xse5GXePNrWfTA6Kxy6VnOOxMarezqVfPXcL2PcbfaQ404TyXjJCVE4kiNzgNW5GklJNKj1OqtMNZrdkjyqhvnGXKasquwWiqBhmGce0jvOsxG6xCEpidWhZtk6tbnCg0mSD2Jci5Vh2oEPOJeo1fh8nIGK/Lot2zVxpUREicyVP2M1s9e4hsnG3F8RE443uSFGSvakbh+9MzZits625gRrWosI06FMaS/HkxnUutPNqLdK0LSZkpJkZGRkexkYqhEmgdDfYlhUepvIbUCTInT7E4DThOIgIkynX0xiUndJ9Wlwknwnw7kfDuWxiWi7hmqMsrGrkAAZUAAAAAAAAAAAAAAAAFkyXNMTw5hD+TX8Ov63k0264XWvH5m2y3W4fqSRmMDsdYr61M2cIxBbTR8vZG+NUZG3pIjJ3eX8C+p8vPz43kejdhidpKyHAbDrn5SjXIZt2+1Kc38hSi2fSX3anCLyEMaczyRTr6jM8enUqiPY5BEcmIfr61BboL1uJQLlm1xks+tssm3POsonXbau+Cg+yQCLzdQ0ZdYXqeU5/ULrDKFXRkQq+KzFjtFwttMoJCEF5iSXIhY4dzDsYyJlfNYlMOFuh1lwloUXqMj2Me3bPWIL520vSERZFrZn8C6zIqDAMbmUGDKR7JTp+UvQ5TieyokuG0wmC42eyHNi4nkbqLmaS5iQe2esRdC0RwifqHlGf5xg2I306ysosupmTKxmVLhtsxmWyInHW92zJ1tSyJCjLmR8jMwGdJ1twD2fg4w7byWrCeTKUcVfIOO08831jcd2SSDjtPqSZGllbhLURlsk9y3sUjpIYW5kFBR0ca5s27m7kUTkxulsEx47zLbqlmTpxzbcJK2jQoyWSU+Mo1bIMYBa6IW8jVOXk7CY8qotbyLfSHZGVXDHZnWUNJ6tNWw4mJIVxMIUl5xSeEz8ZtzhLe8o0yyOLSYtXR3alxyoyGzsZhHIcaSqNM7WkzbUTSuJ1KZSVcKiIjNJlxF3gM4Y6QmlT8C6tDyhbEOhhqspciVXyo7a4aTMlSmFONpKUwRlt1rPGju8bmQ9Yeu+nU+ns7qPa2JNVEhuJJjO0k5qabzhEbSW4i2SkPG4RkaOrbVxlzTvsYgvHejpktVjltjsgq3dvHHMdrZknLLq0OQlRo3WbEpRswEGTSN2Wku89tlkSdjzvKNPMrlZVMzXH3ql6ZGn1ljXQ5cp1hqQqPHfYcaecQ2s2iNMgzSokObGkt0gMzsOkJpbWVtdbTMglpjWbankqRUTXFRGkudWtyYhLRqhIQvdC1yCbShSVEoyNJkWfInocQlxtwlJUW6VEe5GR+UhrLqDo7qFnk9rJrNujftrWoKntIcXK7uohQ2ydcWky7EpC7FKUvKSpt4mCWaeJJs8aklPEA0wIMeC2ZcMdpDSdjPbZJEX6YzPyeUzPzmYDI+2l6QsUvGKN6cu3rykVFmvmqdVvqjPLP3/AAeK6XqcJReoc9s9Yds9YC51+damY2aUSTgZbDT3mvhgzyL4Ul1Dp+rZkvWMvoNZsIuZLVZOmPUdk6fCiDbt9lcWrzNqM+rdP97UryiHLTUjHa19UFqU5YzkHscSvbN9xJ+ZfD4rf+maSFlmTs1zZlVcVPBrK97ktEhpM59ZetKi6lB/CThDdNFVfKEvZtslSVFukyMciLdHsfmYjRt0bPbDjJWbhHJeNxRGZFyT5EJ5ckpIklz2IhKJd3MSqnLNlcgADIAAAAAAAAAAAAAA6OtIdLZRDuACjXVxlq4jQW/wDldbHWWxpL4hVgLeRRt1kZvuSXxAusjrPc0l8QrAC8ihOpjcXFwluOyquMrYzSXL1CsALyKFdTFWe5oL4hUsR246eFsth6gFxqh03OghgXSvgxb9ctzH8yqmeoiXMdknOtY3MyYkNmZdY2SlKNOxkpJqPY9jNJ/OZXzJnXGHedjtM2xRusJexyWO1OP8Hn6k2kp39XWfwj7jmRGWxluQpHqqE+ricYSZ+shqmqn9aEaZdFDoe4zoVTexVAw9JmTFods7WSgiflrTvwlsXJDadz4UFvtuZmZmZme5tdAahxG2CQXipIh6sQ48ctmmyT8BD3FrxM+nYRFnXq0eiXxBwI9Eh2EVZTrzAq8kkYVj+PvS7qOo0H7JPpr45mR7bo4yN51Pvm2lJP0uZDmqU+BHokLBk2dYXh/AjI7+HEfdLdqLubkl397ZQRuL/wBFJiJ7G0zvJiUWR5m9CjL74NCk4SNvMp/dT5n60LbI/N3bdKiooaDrDp6uPGcePd51KN3Xj87iz8ZZ+tRmYDKZuquR2xm3huEnGaPl2+/c7Onb0kRm+J1fwOG0ff8Aw2SXT3GQ7nmuYWFm2r20KGZ18L4OraPjWXqccWQ9O2F6QdsL0gFwqoVTRQ019JWxIEVHtWYzKWkF/AkiIVnbPfCLtZbufWadWU2rnyIklD0MkPMOqbWklSmkqIlJMjLcjMj9RmQiW41f1Ewa+yuC5dN2CrfNPYuqW3jFlb+xLCaxuQszhxH1PPpMkknhb6pJLUtwz2PhINq+2e+DtnvhrKrWnWa9r6lFBUUVFOXjtrcWCr6lnpNTsOQ20hLcVxxh5pD6VKWRubqbI07kvnve6fV/ObLNqSPYoq6aht4sN2PHk0k9ztnXx0uKW3aoX2RpwnFG2mK431i+rMyURLTsE/8AbPfB2z3w16oc1uo/RfmZXKnybCyj1di/10iW+TjikPPcO7ra0ulsREW6VpUREWxkPWbqbqGec2GLPTamliOxpDdY1Nx6xUbxlGNbchuzJ0ojyzWSt4ZEh4kJWrj8XmGwHbPfC3XdRQ5IwmNfVMOe2g+JHXtEo21ekkz5pP1lsY1QLXrUjC9PMPW7k9NbT4+NV9naI8FbizkTSdMtiekMOmzW7oSoifkLdJxXErgQlBke0SJ3Eglb7blv3gOIsPLMcMlYfnExtlPdAuCOwj7eYlqUT6fN9VMi9E9thfIWsNtVbN5zhcuOguRz6ZR2EfbzqQSUvp8+xNqIufjH3nZu2F6QdsL0gEn43mmKZfHVJxq/hWCEHs4TDxKU0forT7ZB+pREYvY1+tqDHruQibOr0FNbLZqawtTEpr7h9s0uJ/gUXcQqq+/1GxoyKmytq6ip7od43usi8yZLREsvhcQ6YCdwEXYNrzSZbfHicyqkQrdtJm4TDzcyKRkW5kbzRn1fdyJ1LZny2I9y3k9C0uJJST3IwHYAAAAAAAAAAAAAAAAAAAAAAAAAAAAAAAAAAAAAAAAAAAAAAAAAAAAAAUcu1gwXCZkv8KzLi24TPl/AXqHh4RVX6p/oq/ELaW4w65i8RK5gLZ4RVX6p/oq/EHhFVfqn+ir8QWleFifVn7FzEJRMYpsZ6SV7bU0I25t1iseTPkuvOPOvq7a6SSNbilKJCS5IbIyQguSSIjMS14RVX6p/oq/EPGRc1EgiI5RcveK/ELF4OFifVn7FziqNbKTV3jBekI/2XQPUqVvt1OIXLm/wQnTGVtX1S2gk9q7veq/EMC6Qkh3JNA9Ssdxth2fb2mIXMKBFaQfHIkuQnUNtp35bqWpJF6zEtJwsT6s/YyTBo3Zqasj7bdTBjt7fA2khlwxiqnQIPClUpHChCUlslXkLbzC6eEVV+qf6KvxCzeUjBxI/Vn7FzEQ66fo60O+/6Z/da+El+EVV+qf6KvxCNtW23sgzHSOdUMOSI9HmUqfYuJSfDGjqx64jpcVy7jekMI5eVwhLSvCxPqz9iSqdCFRi3SRiv6pv0CFlr7iuisk25KTv6kq/EKrwiqv1T/RV+IWb3OFifVn7Fw6pv0CDqm/QIW/wiqv1T/RV+Id272td9pISfMi57lzPfz/AYlpScOumLzEq3qm/QIOqb9AhylaVpJST3Ix2EYdOqb9Ag6pv0CHcAHTqm/QIOqb9Ah3AB0Npsy24CHzm6ZnzLHH9VstsdUNILtjF7y1cVJsq59g1QJchR7qeTweMytRmZq2JRKM99iMzM/o4Oq20OFwrSRkLE25j4j4V8yh1JXdIRqTm1RFr0LLjRRpdkPup35pJTzbaUGfn2Xt5jH040A0MotM8frcbxynbrqmrb6uOwn1nupSjPmpSlGalKPmZmZidDp4Br4zjo3+5IVJJjxGVLM0NNtpNSlKPYkkXeZn5CHXiRTFqYS3e8zgsqTwqLybDzKqjERkSC5+oRu90ntG+udRU3N9kLDKlIdm43iltdQkKSeyiVKhRnWC2Mj33Xy2GZYVqJg+o1Yq4wjJ4FxFbdUw8qM6SlMOl7Zp1Htm1l5ULIlF5SHK8qu5VcckGjhLY/UODqopkRcBcvUK0AvIoTqIpnuaC5eoehV8ck8PCW3wCqALyKZiAwwrjQktxUgAgAAAAAAAAAAAAAAAAAAAA6rbQ4Wy0kYtFli9XZJMnoyDM/ULyAsTMchCuR9HyldkO2WPLkU85w+JUivc6hSz860l4jn+mlQwiyx/VLFFKKTCj5FFT3La2iyiL4DPqnD/hbIbQjwfhRpCTS60kyP1DWaJ9aEt3NVoeb08mUmulOvV09XIok9o2HTP3pK5L+FBqL1i8ds98JkyfS7GcmiORLGrjSGnC8Zt1tK0n8JHyEUXegdxSGp7C8glQ0J5piSN5Ub4OBR8aC9SFpL1BlieUl1F2z3wds98MXsH8wxpRt5Tisjqk98ytJUlrbzqb2J1P8CVEXnHauyKttmjfrJ7ElCT4VdWsjNB+ZRd6T9R8xmYmOasm7Z74O2e+FiXPS2lS1rSlKSMzMz2Ii84sq84hyVmxQRZNy6R8JnDSRspP1vKMm+XlIjM/UERM6QM37Z74UVpk9RSMk/bWTEVKj2R1iyJSz8yS71H6iIzFgh0Gf5Kokvy0VbCv+Zr09Y6ZeY3llt/FQR+ZQzvEtBo8d7tzkTaQ4Wzkl5RuvrLzG4szUfefLfYdYwZj1psl+5hSsxvbU+rxjHHjQrul2PFHb+FLWxuq+BRI+EV0DTXLMrMjyO2mTG1e2jM7xovwcCD4ll6lrUJ8pNNaitIlLZStReUyGVRq6JFSSWmUkReYgzUUerF01nmibFtFIFcw2ycZlhlHtWmWyQlPwEXIhItVh9TWJSTUZG5eXYX0iIuREORmrEqq5rERDo2y20WyEEWw7gA5qAAAAAAAAAAAAAAAAAAAAAAwjU/VFnTRujbRht/lFhkVidZArqVUNLzjpMuPKM1TJDDSUkhpZ7m5v3ERHuAzcBHlJrnhEuhubzMHHMDPG3UM3kbKJMWKqtNaUqbU68h5yMpC0rSaVturQZmad+JKkl2a160nl5bjGHVmb01jLzGtlW1M9DsozzEuOwpBKU2pLm7nFxqNJoJRGTTnMuEBIIDFsZ1U0yzavs7XC9Q8byGHTKUixfqbRiYiGtKTUaXTaUrgUREZ7HsfIUmH6uYbmGEvZ8UxdLVRDf7aq4NuKqETXNSn91GlsuDhc3NXtFJM9twGaAI5o+kHpHd0d5lhZtTwccorJqscvJtlGarpK3WWHWlsyOsNtbayktpSZmRqUexEfIzyHAc+o9R8YjZZQJkIhS3ZDTZSCQSzNl5bSj8RSi2NTZmRkfMjLu7gGSjjci7zELWaMj11z27xeLkVjRadYfJKstF1UpcWbkNn1aVvRu0I2cYiMpcbSo2lJccdNaOJKWlE5cldFDo3knrI2jWMwp3f7KwYnZLTi9LtzRpk8Xvus39YCWAEHYxfZhpDqJH0nzbI5eR0F5Gem4neT1EqcnqVJ7RXS1kRE6ttLja2nj8dxvrCXutpTjk3NOpebJxB7kZbizFtR3GN5nhdTmdcqtuYEaYwrn1b7SXEkfn2UXf6xkgBE2Gvtnotk2Pmp3DMnmRW07mmJL3mRvg4Vn1iS9SHEl6hjsi8zTHlG3lWHvONp5HLqVHIT8KmVETifgT1g2iUhKi2UkjFDMpIE5JpeYQrfzkNZqZ5wjXaozCiveNNVasPuN/VGeLhdb+7bVspP8JELn2z1jOct0QxLJiJyXVsLdb5tO8OzjR+dCy2Uk+/mRkI5tdIM8xwzXjeSOy2E90W0SchO3mJ0jJ0j9ajX8AZL+rJfvdbyvq8krHaa6jdphvKQpbfWKRuaFktPNJkfJSUn3+QY9b6ZYNePWcmdAnJftpTU596LbzIzjcltvqkvMLadSqO51fiKWyaDUnkozIdJWQXlEo2stxadAJPI5UUjlxj/hQXWJL1qbIvX3itr8grbZjtVXYx5bXdxsuEsiPzHsfI/UMzExzV1rNP8IpozEStpEstRq9+rQRSHVGcd9ZLeJSjUZrWtaSUpxRmsz3M1bme9NA0wwOrvI2QwKyWzIiNtIaYTay+x8TTZNtuqiG71C3koSlJPKQbmyS8bkQunbPfB2z3wgxqt0S04qmJkGIzkRwJ7EiO9XPZXavQereMzcJMZySplvc1GZGlBGnfxdhdo+nWFRcmdyxmvllOdNajaVaSlQkuLTwLeRDNw46HlJ3I3UtksyUrdXjK3r+2e+DtnvgGLuaFaVOx2YjlJYKjswU1vUHe2HVOxkqUptDqOv4XurNajbNwlG3y4DTsW0iJlElJJI+RFsXMYtZ5RT0yErtLNiNx8kJWsiUs/MlPeo/URGLX4XXdofV41jUhaVd0qwM4zZl5yRsbp/AaUl6xqmmauUF7M+7Z6xZ7fOsepHeyz7Rs5RlumKyRvSFfA0gjX/DtsLTB09zXKFF7N3cxbSu+NBI4jO3mM0mbivNzXsfmEh4loVArGibbhMRWzPiUhpsk8R+c9u8/WY6cK3rzZm/cjteX5hcn1WO42iC2ruk2iuJXwkw0e5l904g/UK2FpZk2WKJWTWk+ybV3sLV1Mb4Oqb2JRfd8Z+sT/U4DTVqS2jJMy8pkMiZhRo6SS20kiL1Bnop9WPtLTPNGeHaVpom2kM8LDTftWmkkhKfgIuRCTYrHZ2Ut777EPXbbuHI51VzXzWIsAADKgAAAAAAAAAAAAAAAAAAAAAAAAAAAAAAAAAAAAAAAAAAAAAAAAAIv1EuTgZAhji23ioV/TWX+Axjwm9/8otmvVz2DOWGOPbesaV8br34hHPhMfuvyjz8HCzURL+kbn3Rx9hw8S3OP5pZ8Jvf/ACh4Te/+URN4TH7r8oeEx+6/KOnBey6j9yWfCb3/AMoeE3v/AJRE3hMfuvyh4TH7r8ocE6j9yWfCb3/yh4Te/wDlETeEx+6/KHhMfuvyhwTqP3JZ8Jvf/KHhN7/5RE3hMfuvyh4TH7r8ocE6j9yWfCb3/wAoeE3v/lETeEx+6/KHhMfuvyhwTqP3JZ8Jvf8Ayh4Te/8AlETeEx+6/KHhMfuvyhwTqP3JZ8Jvf/KMYyzUitqLKpiTMhgwVvSCXwPykNqWgiUW5EoyMy38ow3wmP3X5RbnqrG8vvIblxQVlg+2402TkqI26om/ph8O6iM9t9z27tzGasLLq9Nv/dXm2768W3K38YbZY9qBhcmAyZZjSKUpBHsVg0Z/6wvzOR49I+oXtc5v6EpB/wBRiL6nQfSabAaclaUYW+pSCMzdoIijP42x6u9GjQ2R9X0N08c+7xeCf9bQ8GqIvo/nsJXakxny3ZkNuF71ZH/UPTcvOQhd3oo9HZ093ejxpes/OrEK8z//AER0+hQ6PaebegenjX71jURv/VbIZsqa9y84bl5xCv0LGhSeTejmKNfvVchv/VIg+hf0XT9T02rW/wB6W83/AKqyFsmqaty84bl5xCf0MOkpbm3iMpn96up7f+q+QfQzaZJ+p1eRNfvWX3Df+rKIMqptEM6m1TWsGqcDRK1dcPEqinbyfKoKT2TbJefcYgQXvPGWuPMddRv4/Z20K3QpaVeH0NmBJ+pPZ21+9aiZC3/qzSGO01FQ9HXWyJeSZt6nGtRayLjb9jdX8+27HaxX33YLS5E151bLT6ZktCS4ib61LaSLjeLeWGxUWLGhRmoUKO1Hjx0JaaaaQSENoSWyUpSXIiIiIiIu4Qj0icai4NGe6S2JpKtyDEWUP362CJCLqhbP/KWJRF9UNlo3H2Vn4yFt8JGSHHCVOYgnpe5hVs6YTdH2HyeyHU2O9j8WEjm4mC8XBPlr25oaajrc8c+RuKaRvxLSFMTMxEDnWzXKywHE8WtqnL8PxZu9vm6qZd5XHU/X17Jxn3eNaUyo3M1NJQW7qS3X5T2IdMb6Q7MTF6qxl5dQatTMhtnquqe07gMx47r7cZx/qDORYvNkvZlZGtT6Ekak8RJLdQopenWWZxjOOzMVyivorfGrhNxEfsqhyxjOH2d5g21styI6tjS+oyMnC2NJcjF1qNPtQrOfj1pqDmlFZTscuHrFk6bHnq5p1pcN2P1SkuzJB8RG8pfGStjIiTwl7YdaqYiqYSJXHFOkxjGVPk2WDZrWtvVMq2huS65pxU0oriW5TDLLDrjynmnFpRsbZJcM92lOJ8YebPSFROYejT8IyTDbiFb1EF+tvosKS8tmc6SGnUnDmraJKjJaeI3DWg0GZtK5ErGp3R0ly8ej0beYyIy2KS7pyksROFzeweQ71pfTOXBwcJp38Yj70jHsM6LPgcmS1Ck4tV9usKeykRcaxNFPAJ2A8pe6I6HlmRuJNJGpa1qI0me5lwoTMlKXlOukucTc909x7KrZmM1NtoDcp9EZKktJWot9kkpSjIvhMxmgj/SvDXsExSnxJcs5ZVMRuKUjqur6zh/TcO58PwbmJAGKoiJ0WAAAZUAAAAAAAAAAAAAAAAAAAAAAABwpKVFsoiMcgAt06ir56TS+wlW/nIRLqnpHp1EpLTOMjNmrjUsJ6dLtErUy5GjtINa1m4jZXClKTMy325dxiaxget2kdBrnpzYaZ5XaXMOltXY6p6aqQlh2Uy06lw46lmhRk2s0ElfDwqNO5EotzGoqmEs0b6Imd4l0rqO4tlNyVWNHbLiuVthJJ7q4qlGqI8bZbIM1II0moyM+Npwy5bDdDHtIYERCDkpIySRESSLYiIhq50TOizg2nGQ2GpenMSypHiv8sx2RBZnLdiSokXIJjEbrEO8auNpqM0hKkqSZkSuLiNSjPeuCbhxkdYXjbcx1muaaYiEtqoa/G6yuSSWY6C29QuiUIQWyUkQ7AOMzM82gAAQAAAAAAAAAAAAAAAAAAAAAAAAAAAEQ6/12XHOwDKsUwi0yosayB2dOg1kmEzJ6hcCSwS0dsfYaVst5G5dYR7b7EYl4dHG0upNCi5GA1Iy7HNYLpNjqVU4ZcVFjZW1YhuqhrpJV/XV8Rp8uvYVMW5XIkqefUR7uOETBq4VE4rhTa8a0/wBXqKqr47+LquLLseYxXXLN+A6ybs+UmRGcmIa6ptaHer4VpZa2JS9uAk7mW4CamKk9yQXME1EVJmZILn6h1zwlmmFHgOus+LkkWyby5hWY09Njq5t+7j6Z1ZERIkFMNDdY2UYkoZdM2iMnjM3E8RbEaCyi+0q1MqfZyqiWV1ntZYSajJTftvYqO7ImQJLJrg8EdmMyROsMNEhSm9iUg+NwiMttpvYeIZ8RoLf4B7FAjkjg4S2DPBZqc3jGoca4d1R+dJOW63mzuRoxhmZW9ucafqkRDeJSnyilIQ4azWXXkRl1hpWs+HilrQHH7rFMGg0V5UtVUluXPeOCy6hxthDst51CEqR4pkSVp22IvgLuEplVRiVxcBfEO7NewwvjQnmJNcTCRCLujq63Ars5w2Wok29HnmQvzWz5LNqwnvWMVzY+ZpONMZSSu7dtRF7UyKWxFOpmlt1KyiPqnplkKcczOJFKC+85G7TCt4aVKUiLOYJSTcQha1qbWhaHGzWvhVwrWlWE2Wr3ShYSqqTplp5DkERpK2O/nSkb+l2HsjR7e97V/peUSKJq5LdS9LuRMuMr0qw/GL46vIIlzNyRcpphD648BqvkRF8SFeLst2cyRcXfwKMuaD2vtDietMiuacLpBWrRGkvFTjdae38ZszGLaa6SXz+Sz8zzC4lX2SXSmzsbaU2ls1Ntmrqo7LafFZjt8auBtO+xqUpRqWta1bK19czEiNsEgvFIiHSuIopintSNUSeBOs59/SLvi+5xuq/xYMceAusp9/SOyYvucepy/rjGJl7Oz7mXxB1DXoF8Q5XhbIb8AtYD9t0ksvL7mhpC/rhmOPnf6tn39JXNy+5pKH/GAYmXqWvQL4hz1LXoF8QXhUM/O81YPv6TOfl9zTY9/jWmOi9M9UXC2X0mtRv4KnG/8asTT1TfoF8QdU36BfEJeBAs3RPO7AjKR0kdSVb/APzXjRf/AMSLZD6M8djtL1tl+QZFYPrJbdlObhQ5TBEW3AldfGjkpO/PZZK5+rkNjeqb9AhyTaC5kkhqK5hLNWrfSrUnGt1Vdmzcx08yZsEdW7t5ieaLb+M2Z+cxi0nI5NOvqcnpZ9Moj26x9vjjmf78jdBf6RpP1DcxyOy6Wy0Ee40Y+amanWWCaOHpvpxVT5mWZhGlSpa65hbjtbRREkudLWaCPq0bGhs1K2TwKdPcjQF6Z5mq6IyqXYnwY7RzLDfufWk48f4eNZbqL1oSoXSBhOd5GoisLVcRpX/k9Y3wbl5lPL3WfwpJApOgxnJ6u6Yw4+oFVMrs4xdZUmSQp7CmZKZTSEml1aFkSiN1tTbh8iLiUsi9qNvYVJXwkETLCC2LyEOk5MPsumsoNxLQSHCX2nsKGnXC8d5e63ll75xRmtX8JiT6bTWnriSpbJLUXlMhmSUJSWyUkQ7DNWLVOkLaFJGrIcVJJaZSki8xCqIiItiLYcgOSgAAAAAAAAAAAAAAAAAAAAAAAAAAAAAAAAAAAAAAAAAAAAAAAAAAAAAAAAAAANNelrk8Gr1bh1bk5luQuhjPE0bhEoyORJIj27/0p/EIg8J/th/GKX5pAW3SDrPvQg/7ZOGtULIbuvIiiWkhCS7k8Zmn4j5D6LYtnivZ6av75v1V0K6NUbZ0d2XaKataqeUx757Wz/hP9sP4w8J/th/GNeY2o1+1yfJl8vOaTSfyHt8guLOpZnt18JxPn4Fkr+vYeR5tMPfV9FsWjsifgnXwn+2H8YqfZWx9jvZjsknsHX9m7V1aup67h4ur4/a8XDz4d99uYgxGocBftnXEfdJP/DcTZhr9tqH0fplFg8CReXFfmDcyTAgpN2S3GcidWl020+Pwcfi8W2xeU+RjnXh8OImXqd47rnd1FGJiU2pmqImZ0iInS9+XOz3sLOyqJBRLWHKhPmhLhNSGlNrNCi3SrZREexlzI/KKbwn+2H8Ym116tybNbesqcdhXEqA/U1My4TVRryNBdaimT0aUypxK47RKI+KQ33KSaDPiTsLPU4dTT6SsyeFjlDNpWMHt+1WENlD0RVi04ok7OGRmpwiIzSaj4+FJnvyMeNGLTbWP7s+Vo3vgU0RONh2m1Pb21UzVH22tEXv3xCPCcufB48pUwSavtPZEvreQk1u7cRpSgz4lbF3mkjIvKZCmVaWSK5FuuHKTAcdNhEo2lEypwi3NBL24TURc9t9xOlJgFXGgtxbzGqWY0w9j3ZHY+MMx4jiHHmyeNmUp1x+aRpcInFOESSMy279isuKNYZkyFTbHGMZOejKbyvqYya+Mw3IdYjqONFUlCUE6XL2qt+Iy3Pc+YkY1Os2cad94NUV100ZqaZ5x3TTmiNe3vnSI7pjVDnhP9sP4w8J/th/GKbpA2lRjJYd2+vhUuTTaJuRfV0eOmMbLxn4inI6EpSy4pHM0ElPPyEIdc1Ego34VuufcpP8Ax2HlYeFxKc0Q+z3duqd5bNTtOHRNpv8AKZjSe2JteJ7YtKa/Cf7Yfxh4T/bD+MQQ9qY4RGUeCtXmNbm3yFuLbJ1DyF7cmXGo5eQ0I3P+lv8A1DrGzS9pR0Wxa+cRHxbE+FBFzN35Rk+k+SQbzKnIsacy+5GXGU4hDhKNBK60i327u4xprNurax3KbYyHkn+lU4fD8XcJT6MUXPJGY2p4TkNBWKS3C672Vpnp5LPif4eHq5THDtz334t9y7tufDatnijDu+R8o3R2jd/RnaNomq8xNHKO+umH1jx0iKvYL3hC7CCqdHSaahtdXqHpgsiSWxHhVgn/APlTFw7V0nEl+izS90/vbsW//wB8ofOzE3fmRMoCGvZLpOJ77PS9z/1dYt/++UB3nSdQfKNpa8X75Yt/+FQmWUumUWLOc0x/TrErTNsokOM1lSwb7xtNKddWe5EhtttJGpxxazShCEkZqUpKSIzMhG/hL0nk/wDyd0sc/wDXFi3/APtVDDc4u9YLjONJ6bU/HcLg4zJzlhcp2muZUt1T7NfOfhpW29FaSSO2MxTJXGZktLZEk99yWlWaVdD0gNSIqL7Js9e0siyfpkWix6DBm2Udo+ae1zJrT7BumW3E20wSUHuknHNuM6PI52tmiEBeV2GSPao4hBI3bht+rYjX8GMkjNcpnsiEMTCQXNTBMtOGkjNClq2bVN4CC2Y/kNRk9VFuqWazLhTWUSI77SiUh1paSUlaTLvIyMjI/WPLLMUoc0x+djGTVEOzq7JhUeVDlspdZfbUWxpWhRGSiPzGNTNJNX39MsJg49QVdbOKwzO6xvGEWVoVZXIiosppQSdkk26baFRmWkNkhpxSlKbSSeZmU8RNdodJjr9hqpjVhjdrEsfYpVfWxZl12980E4Sq8mI5SJrXAZqNSWEmnq3eNKSbUY3VTNM6Jdg9lonqXjKPY3TzXbUGkp0Fwt1yZMKxQ2jyIQ7PiyH0JIuRElwti5FtsQ8cI6Piau8lZDYuzrK5sSQidb2ktcudJQgzNCFOuGZk2niVwtp4UJ3PhSW4zy96Tmh9DFgzbHLZDsawgN2rb0KlnzENQlrUjtD6mGVlHaStCkrW7wJbMiJZpMy3VvSHwNeeWmn9ub1dOi3SKaG+mNIfiyXFxWZDfWSUNdRGWvrjShtxwlOcBmji32LVOJNPKC10h0tQxVQkRW0kRJLYV3Z2SPfgIYRR636bZJmDuDVFxOds0KkIbccp5rMKUtgyS+iPNcaKNJW2Z7LS04s0mSiMi4VbZ0RkotyPchzmZ7Vdeqb9Ahx1DW+/AQ9AEHVLaE80pIh2AAAAAAAAAAAAAAAAAAAAAAAAAAAAAAAAAAABCPRzSR4facv/AJfZ1/em0E2pLZJbCE+jn+g+0+/7Ov702gmwu4vgFkcgACAAAAAAAAAAAAAAAAAAAAAAAAAAAAAAAAAAAAAAAAAAAA4MiMtjLchSPVUJ9XE4wkz9ZCsAL2HgxDjxy2abJPwEPcAAAAAAAAAAAAAAAARJ0uWet6LOsB7+1wLIFfFXvmJbEU9LL7FjWT7wMh/s58Bf6HFI0OyckMmZKJQyq2WtimmuNrUlbcZxSVJPYyMknsZGKSs+u3vuhdJDDUlhyM8nibdQaFlvtuky2MuQ1VM1TqcmoOmmpucVeK6XYNmOYWk21mz6i2iWj8tXX3FXIjuLcaeVxcTqmXVdWvffdPUKPmobcwpXaUcQwKforgUtrFY68aZWnBnG3ceUpxxS4CkMmyk0rNXEr6Wo0mSjMj8u5kRjOKqKuKzwLPmLNrJCuAAGFAAAAAAAAAAAAAAAAAAAAAAAAAAAAAAAAAAAAAAAAAAAAAAAAAAAAAAAAAAAAfM35pB9kHWfehB/2ycNWRtN80g+yDrPvQg/7ZOGrI+r3d/w1P7f4y/afk6/RfY/8P8A7SAADzX2oAAAAAAAAAAAAAAAAA2B6GSSVm10R+hA/wBaQNfhsF0Mf0b3X3Nf/rSB4e3fmn848rX6JbT8cP8A8lL6fUcZlUFrdBe0L+oXE4bHoEKOiMigtc/0hf1C5bl5yHyk8349h4dijn+kFqye9xDCaSTkmX3ldS1UQiN+ZPkIYZb35ERqUZFuZ8iLvM+RC+bl5yEK4LQQdXtS7zV3K0FYQMRu5mO4bXvES48B2EtUedYEg+RylyUyGScPc0NMJJBp6xziXVVK6SuibSe0TZ+TQa8tzO2nYZcxask+l252ImNw++6zb1jI84w7F9YtPHa2ryAkMWCGJ9TdVbzbi4klpaXosyOvxkKU26htxPek+HY9yMyPPhrxc18Xo86w0Pgmz2LC9TpUuLJp2tkRa++bZcllIjoItmykstSjdSWyesYQsi4nHDO06zYXKt6Q17gUZNHr5gl9Es4n0tV5jFNKuKyxIj2J5tqKlyVHUoi3U040ZIM9kuOEXEMX1D6RWU6jVLuI6H4/kFImySbErLbqvXXqgMKIyUqHEfIn3JO3JJutttoMyWZucPVq2CfqqzIYiXXmkrJZb77C3xtPKOO8TqYydy5jdPDib1Jqg6l0fu4WnkTHMPxzG7SrixigP41kW6K+zhdV1fUuvEy+psy8VXF1ThK4TSpPjcScXndGzLCxevOqqKKpnVV89bwcUx/KbOiq69h2MUdcaPYwWm5DZe2fM0x0oWta0m2XF1g29jwo8ZomWmyJJctiAobBKNXBzMKsTNMyWas0egmVV+K5BQMrqWHrnDXKBBFNmyEoluvynnDW/JN19xBqklu4tSlqMlK4E8kjJPnO5P8A8qJKRXEufmFTkKVca/qEVuIhaVeJ9U3jL4S5lzTuotz22CTDYSe5IIduzNeiJxCzVvFdHtU6rVWBneU3JTirp1mZvry21mlMjyUqJlSK55KYcBTZcCDQySuItz6wuaV7O1anFRUm5vvsPVUNhR7mgh6oQlsuFJbEMzVciLOwAAyoAAAAAAAAAAAAAAAAAAAAAAAAAAAAAAAAAAAAIS6Of6D7T7/s6/vTaCbC7i+AQn0c/wBB9p9/2df3ptBNhdxfALI5AAEAAAAAAAAAAAAAAAAAAAAAAAAAAAAAAAAAAAAAAAAAAAAAAAAAAAAAAAAAAAAAAAAEU9LL7FjWT7wMh/s58SsIp6WX2LGsn3gZD/Zz4DPqz67e+6F4FnrPrt77oXgWQAAEAAAAAAAAAAAAAAAAAAAAAAAAAAAAAAAAAAAAAAAAAAAAAAAAAAAAAAAAAAAAAAAB8zfmkH2QdZ96EH/bJw1ZH066UvRVx7WXJGc8lW99GtIta1WIZhOsJYU02664RmS2lq4t3lcyURbEXLynra50IVoUZeymQ7F7+P8AkR7/AGLbcPCwKaJvePH4v0b0R8qO4dybk2fd+1TXnoptNqbxzmed/e1XAbTfQSL/AF0yH+PH/Ih9BIv9dMh/jx/yI8rrHC9/y8X0fpm6M9+J9z+rVkBtN9BIv9dMh/jx/wAiPAuhnDOedWWQ3XbSZKQcbtEbrSaNXCS+Dqd+HcjLfbbctg6wwvf8vE9M3RnvxPuf1awANpvoJF/rpkP8eP8AkRi2qvRLmYRphl2aQ7e9Q/j9FPtWjcOOpHFHYW6XEXU807o593LfmXeHWOFHZPy8Unyz9GYi8cSf+j/9ICAbRN9CvrFGlNrkG5fbI/5Een0Ei/10yH+PH/Ii9YYXdPy8V9M3RnvxPuf1asgNpvoJF/rpkP8AHj/kRi2Y9FCVjd9hVW1Z3fBkt67VvcamDPgTWTpZcP0nkfFET378uIvLuU6xwvf8vE9M/Rn/AOz7n9UBANo2uhQbqeJNpkO33cf8iO/0Ei/10yH+PH/Ii9YYXv8Al4npm6M9+J9z+rVkS/0YdPcFzzMbVvNMJoMhKO3CSyVrWsyybJSn+Ik9alW2+xb7d+xCR/oJF/rpkP8AHj/kRJehnRsl6aZC/PivWL/bTZJ05amz4SbNfDw8CE7fVFb77+QePtO2YeNh5Y/k+P6eeUvcfSLcONu7Ys/Eqmi16bRpXTM637olNtT0T+ji7DbWvo56WqM0ke6sPrzM/wD2IrfoS+jf+5x0q/7G135ES7TtqaitoUXNKSL5BcB8/M6vz+hL6Evo3/ucdKv+xtd+RHj0fDo9LLvI+jmcGLSqrLKdkWMQmWUsR5NNOkKkrKMlJEnaPKffZU0gvpaeoMyJLiBOYwjU/SnFtT66KxfwVnLrH+11s+K+5Gm18jhNPXR5DRpdZXsZlxIURmRmR7kZkaNdBm41i14y6uz3WTEdPcefKX876W9kF2+1zbiznojsSJENRcjdNmXKdWjvQnqTMvpiR72+kWs5kqqc6Quo8qpPdHZEv18dZJ83a2IiJm/vuv4vWPaq0eiaXaeXs7H4LVb7F1s6wZ4EEtRyCbW4byzXubi1L8ZSl7mozM1Ge464dEUzmqlmZvyTriKHEU7BO778Bd4vY00071vy2vqHLA9SdQcjYcweXcTGssxaPQOsT2mW3Eexi1VkUpJGRvcZ9XJQgktKMyJRE5K5dI2zYvCQjCW5WKV1nXUFtdKtyKazYTG2VNmiGljhcZSqSwlbhutqI1qNLSiTuOc0zM3W8J0AebL6H08SDHoMKAAAAAAAAAAAAAAAAAAAAAAAAAAAAAAAAAAAAAAAAAAAAAACEujn+g+0+/7Ov702gmwu4vgEJ9HP9B9p9/2df3ptBNhdxfALI5AAEAAAAAAAAAAAAAAAAAAAAAAAAAAAAAAAAAAAAAAAAAAAAAAAAAAAAAAAAAAAAAAAAEU9LL7FjWT7wMh/s58SsIp6WX2LGsn3gZD/AGc+Az6s+u3vuheBZ6z67e+6F4FkAABAAAAAAAAAAAAAAAAAAAAAAAAAAAAAAAAAAAAAAAAAAAAAAAAAAAAAAAAAAAAAAAAebrKHU8K0kfwilVVRlHv1afiIVwBcW/2Ije5p/ikHsRG9zT/FIXABbyLf7ERvc0/xSEMxcKx7G+kVdTqiuJEy3xdiVPkOOLedeV2x0kka1maiQktyQgjJCCPZJERidh4SY5PkRH5BYqsKKPVx3GkqNpJcvRIRh0rquO30XNYXEtp3TgOQGXIv1ufEwNI6tBJ8wizpZfYsayfeBkP9nPiXkZjXVcY5TpdUnv27hdfYiN7mn+KQp6z67e+6F4FmZFv9iI3uaf4pCJdcKyO3nWiBE2nZWeTCPkX7F70/8BNQhrpFynqa00py9dLeWFbjmaPzbM6eml2j8dhzH7eKhw48Rtx5SevksIM0oPbrCM9i3MpeRI9TVRlRy+lJ+IhXexEb3NP8UhFNX0l9OGmCSvH9Udy82lWUH/VXit+ic01/Y/qn/NRlP5vFmZuJJ9iI3uaf4pDsiqjoPiS2nf4CEafROaa/sf1T/moyn83h9E5pr+x/VP8Amoyn83iXkXPMtX4WN5KjTzD8Ys8yzFcZMxyprVNttwY6jMkvzJLppajIUZK4SMzcc4VdW2vhVtandQOkJSNnZZJoBSzK5BcbjWL5n7IWKEeU+zyocRtZkXPhQ8oz7kko9iPr0WIcebo3S6lPMoVc6lst5pbyTIjcdenIS622o/KTLBsx0F+lQwkvIJdEGM4DqNiWpmPMZPiFn2qG8pbSkuNLZeYeQo0uMvMuETjLqFEaVtrSSkqIyMiMZMNfMncjaZ9J6GdKhMeLqTjsu0s2GyIkKn1j8NjtJl7o4zPZbUrypit+YT5DfKRHQ6X6YtxqabRceptoVzNJGLfkNHEyPH7PHJi3W41pDehPKZMiWlDiDQo0mZGRHso9tyMt/IYuQDI18idGtEeMdTkmpmaZZEj1D9LXJtSrGvY5l1nqVqa7HDY43Db2TxO9ZsXcRbnvcJXR6qHskavVZBkBVxyolhKoUvsHXzJ0ZCEMSnSNo3iWkmmj4UOobUbaTUhRluc4mhJnuaSHPCk/IQ3nlMsLfTsOMs/TBcRwREXIhyMzN1AABAAAAAAAAAAAAAAAAAAAAAAAAAAAAAAAAAAAAAAAAAAAAQl0c/0H2n3/AGdf3ptBNhdxfAIT6Of6D7T7/s6/vTaDmBTO4/0kry0VeW9m/aYpHcMpsnibjNlNdJDTLSEpbbQkvKSeNR81qWexlq1xNgDyjrNxpKj7x6jIAAAAAAAAAAAAAAAAAAAAAAAAAAAAAAAAAAAAAAAAAAAAAAAAAAAAAAAAAAAAAAAAinpZfYsayfeBkP8AZz4lYRT0svsWNZPvAyH+znwGfVn12990LwLPWfXb33QvAsgAAIAAAAAAAAAAAAAAAAAAAAAAAAAAAAAAAAAAAAAAAAAAAAAAAAAAAAAAAAAAAAAAAAAAAAAAAAAAIp6WX2LGsn3gZD/Zz4lYRT0svsWNZPvAyH+znwGfVn12990LwLPWfXb33QvAsgPN5onmzQruMegCC1ewaCPxVqL4DD2ET7or+MLqAt5Fq9hE+6K/jB7Cl7or4xdQC8iAdOc2q9Apx6HamSmqSmjyXTwq/lK6uvmwHHDW3AceVs2xKYNZspbWZda0htSDUrrEol3LNQ8EwWjPJMyzCnpqwk8aZUyYhtDnmJG5+Oo+4kp3MzMiIjMxU5Ni9TlNa9V28FiXGfSaHGnmyWhZeY0nyMvhGuOdaEaH6EY7datRNMKeC3UNFJkKoKCOU53dZJImyQlJrUZqLlvufk5jdNNNXOUW6jvrjWzVt/VR2mmVdMxDTTYxEmNKalHC6zrXpjzSiJTK33Cb2aV4yW2GjUSVqUhO1dUypiE02rvJJEIuwm1wKLcUdbVyFTCv6V6+hz2+A4yorSmSMzXxbkZ9oQZcjLYlbmXlzGp1Z0qu8edyuk1LxWfRx5Jw3bKLcx3Yjb5GRG0p5KzQS9zLxTPfmXIaxKomIpp5QQywBiWPau6UZbYQanFNTsTup1nDVYQo1fdRpLsqKlRoU+0htZmtslEaTWkjSRltvuLbba66XQccyHJafL6vJWsVkoh28ainx5kiHIU6TXVOoS5s2slHzSs0mXCrluWw4qz8BjVpqBj1NlUbFLJxxh6TVTLg5ThoTGZjxltJcNxZqI0n9PSfdtsSjMy2LdjWpum+Z10K3w/UDG7yBZyHIcKVW2rElmS+hJqW02ttRpWtKUqUaUmZkSTMy5BYZKAxPItWtKsQrIl3lmpmKUldPlLhRJdjcxozMiQg1JWy2txZJW4k0qI0kZmRpPcuRjzutW9O6WyVQLzCikXiCacOobuIbc0mnHGkE71brqPEI32j38vGkkkpSkpUGYALBB1AwOzymdg1bmtFKySsaS/Np2bFlc6M0rbZbjBK6xCT4k7GpJFzLzi/gAAAAAAAAAAAAAAAAAAAAAAAAAAAAAALHlVw7Tw2nWnOBS3iRvsR8uFR+X4BjHhrM/VZfxU/iHGtM/2PoYT3FtxTkI/9k6f+Ah/wmL3T5R5GDhZ6bvqtz7pp23ZuLNN9ZTD4azP1WX8VP4g8NZn6rL+Kn8Qh7wmL3T5Q8Ji90+UdeBD2n0eo+r8kw+Gsz9Vl/FT+IPDWZ+qy/ip/EIe8Ji90+UPCYvdPlDgQfR6j6vyTD4azP1WX8VP4g8NZn6qL+Kn8Qh7wmL3T5Q8Ji90+UOBB9HqPq/JImJ+xeF1r9VRmpLEizsrdfW8K1donTXpkgyMy7jekOGReQjIvILku+jOWB2y48Q5ymSjHJOO31psko1E3x7b8JKMz4d9tzMxFPhMXunyh4TF7p8ocA+j1H1fkmBOZyklsmSRF6kJ/EOfDWZ+qy/ip/EIe8Ji90+UPCYvdPlDgQfR6j6vyTD4azP1WX8VP4g8NZn6rL+Kn8Qh7wmL3T5Q8Ji90+UOBB9HqPq/JMPhrM/VZfxU/iHjN1Derors2Q+S22W1KMuEi32SfmIRJ4TF7p8oxvP7/ACqVj64+ILqe1rWZPeyXWdX1PAs1cPV8+Pfh235bbiTgREPG23cdOBs9eJFPKJn5NrMVv039c3NTyJwtyF8GtGnNl0jmaNhNd87bquEvq5T+L+jyGY+zPSf82lnxWI8eui06PiY1TMAhn2Z6T/o6WfFYh7M9J/0dLPisRi0qkLUbULE9KMFu9Rs5tE19Fj8Rc2bIMuIyQnuSlJc1LUoySlJc1KURFzMfHDWz5sH0jcwyKSWjZ1uA4+y8pMMuwMT5zzRH4qn1yELbJR9/ChBEnfbiVtxHsR81SyDpAJ6MTEPLF4iikm5PBZnFRFL65SCafWgnOt8Xq+sQ36+LgHyCEmLD6MdHD5sNqzQ5LCpekazCyfHZTpNybiHBRFnwiM/qvVspS08gvKgkJVtzIzMuFX11rsyxmyxtGXM3kEqVcQp5WCn0pj9mNHH1puGfCSOHxuIz225j8uQ+z3RMyW+sPmeTkS+cdU83h1y02bnf1CFSUsfwdUlvb1bDdNOaJRv7YXdNUwU2drbwoUNa2m0yJEhDbSlurJDaSUoyIzUpSUpLfmaiItzMWG+1Y0sxXJYOGZPqVitRkFpwdhqZ9zGjzJXGrhR1TC1kte6iMi4SPcy2Iap6z3cCVkc+mzDNbiDbxbPEzxWjj2jyGJleUuEt9/sKPpcj6f1qXHloWplKEmS2iPc+mTZtR4pgWo2CXGS4lQ51kF3byptbklS9Mk5Uw7xdmRDjsSI0iYao5xmG1sKcNCmjbJJrQZEyF27JGR9x7jkaL5lqNqbC1erIM3JK+gsUTKJNBBk5pawH5MRbbJzW26NmI+1ZkalSELdeUameElGbJN9YeTYrZZhX3dFm9fmuWWVxdX2WVjkGZeSn69yO0qauKymGtw2EKbUw0SXEoSvh3SajSexOHJduEA+emE6i6h3GOXEQtSkpkS4lS1flU5/a3c2FbO2cdDxrJ+Iymnd4VPoVCacIi5EloiQajkDNspVi2oD1CxqPlUDKqiwo4eB0C8lmvnbVyiaKWtyM64fslvvKJ59/rlspbJfG2aeIIomS8NywFDWzVS291FzFcMclAAAAAAAAAAAAAAAAAAAAAAAAAAAAAABFPSy+xY1k+8DIf7OfErCKell9ixrJ94GQ/wBnPgM+rPrt77oXgWes+u3vuheBZAAAQAAAAAAAAAAAAAAAAAAAAAAAAAAAAAAAAAAAAAAAAAAAAAAAAAAAAAAAAAAAAAAAAAAAAAAAAAARZ0rVpb6LusLi2kOpTgWQKNtZmSVkVe/yPYyPY/UZH6xKYinpZfYsayfeBkP9nPgM/rC/yt7n+mF3FnrPrt77oXgWQAAEAAAAAAABg+tWO3GVab2dFQwu1zn3oS22esS3xE3LacX4yjIi2ShR9/k5cxnA4MiMtj8osTabjUnNdEtQXcryqkx9EfwTtcTvIdQ+5J2OFNnusLdiKSriV1JraW4lSUmSScUjYiSgj6SMAzbPbORk9tpkvHY0ixxNB0c2VDddWmrmG+5LV2d1xnhSSkpbIldYaWS3SnkkbZKgsLLZSd/hHn7FxuIlcBcvUOkYjOVrQrSrLnLFqRDpWYCnc2vbl2U0tpJoZlQJLDUlXCriUZm42nYvHIttyIi5R1ieieqzmOWdFbMZV7IVmLMY5XOZDPo0QpCmJDbyERiq4pPHGNTBGl2UZOpJw/pW5qMbv9gY224S+IdFVcZSuI0Fy9QmeCzW+zrs61VnWWRZHpJbUUKJi0+kbpra2gom2b0p1hxXVOw35DTSEpj7EpxZGpa+aUpLiO0VdXrHAi45mVjheR30ymyldg7Bs3KKNkMmIuvdida+uEtuucUhbhcJE4lXUITuallwntOdXGNfHwluXqA6yMauI0lv8AZ4WzTm7wXXNeJ01JXUllVy5cLIo06TQKonH47syat1tmS/YtumUFaFEaijIU7xEkzTy2K/UmmudFiN9BXjxtWNlNxRxKTksmpbcFuCTxGolmkuA2nuW/PY+Hfct9pvYmLz8QufqHLdXGbPdKCL+AXiQlmsWK4Pn8LNqKmm4auDDxbKrvJF5MqXGU1ZMzu08LDSG19eTh9pQThOtIQXUFwqc8UbP1rq3Y5KX3gusjrPc0l8QqG20tJ4UlyGaqrrEWdwABhQAAAAAAAAAAAAAAAAAAAAAAAAAAQx0o53sfhtU9xbcVu2j/u75/4DWrwm+2CV/mhOT2GJ6VY3YV7bS1O5SywsnCPY0nCmK5bGWx7pIaQQdZmXCJNhAeZP0mlEsvl2P+se42DBnEwpqjv8H958nm4MbeG5I2iim8Z6o+yzYjwm+2B4TfbBCcXUmll7dXaNpM/I4ZoP+lsLgjKUuJJbb5KSflSrch5nAmOb6+vo/Xh6V02/Ylzwm+2B4TfbBEvhMfunyjLNMKz54WWNUT1mcKG0w9NmyCIlKbjtJ4lmkjPmrbkXw7+QZqw4pi8vG2jdWHsuFVj4ulNMXn4Qy7wm+2B4TfbB5KxGBk+NNXGEYzmsGRKsmIdf7KMKkRbBl1fAlxMhuO200olbbkpSi8xnsO8TRTMbKY2xV5PjcuOpyaw7MbkvkzHfi/Vml8TRL4iLcyMkmkyLcld2/P8AIjnNnrb7DRE8arJMXiYnstF+y8fPsmOcTEdvCb7YHhN9sFArSrJ0qOYvJcfTSlUs3J3Sn3yiFHdUaGyMuq64lmojLh6vlse4qLHRrNqprefc0rbz1qinhMJdfWudIW2lxvqjS0aSQpCiUSlqSRc+LhPkH+z72v8A468U8SL/ALf29nONLx2Xi9nv4TfbA8JvtgxrOcOvcFrWbl+7qLavdmvVq5NY+taGZbXt2V9YhB8XIzIyI0mRcjGFeEx+6fKN04cVxeHnbNuzB2zD4uBN6fBLXhN9sDwm+2CJfCY/dPlFLIzuuib9osmUGXkNwt/i7xqMG7yadwTVNqabpk8Jvtg7MX3apTUbj36wnC/9msQDM1fqY+5R+0SVeTgTwp+NW39Q9cA1Rtb/AFEoqlMJliNJfeSvdRrXsUZ0+R8iLmReQTF2eqKJl4O/+jGPhbm2rHmi0U4dc66cqZl9LtKorSsdjmpBc0kM97DH9AhhelaTTjkXf0SGeD0GJM5pfmaFP2GN7mQdhje5kKgBm8qjvXPRPEdd9Ksh0qy1pwq6+i9SbzO3WxnUmS2nm9+XEhaUqIj5Htse5GZD4U63dAPpJ6MZFKrDwKxyurS6oolpQRly0vt7+KpTSCNxpW225KTsR77GouZ/oaFstKCvtUGmSwlW/nIWJidKh+f/AER6B+tGpl9EVmGNz8Qx4nCOZJsGuplqQXehlhRcfGfcRrSSS5nz24T+1eg+ncPC6CBUVcEodfWxWocRkt9kNNpJKS3Pv5EXPyjPY2nlHHeJ1MZO5cxksaIzEbJtlBJIvMOk10005aEtN9VDIp0PGZ78z8o8ioUpRskz4vPuLyA5ZpVZFY62tBkvmfnHozQtNJ22F3AXNIsjuOsrcJew9VUiDa4E8hdgEzSKSBCKGjhI9xVgAnMAAAAAAAAAAAAAAAAAAAAAAAAAAAAAABFPSy+xY1k+8DIf7OfErCKell9ixrJ94GQ/2c+Az6s+u3vuheBZ6z67e+6F4FkAABAAAAAAAAAAAAAAAAAAAAAAAAAAAAAAAAAAAAAAAAAAAAAAAAAAAAAAAAAAAAAAAAAAAAAAAAU1jIXDr5UtskmthlbiSV3GZJMy3+IQDpv0kcoy3CsNl5BS1NflNncV8G7htk4bJRZbC32ZMbdfESVtkjY1GrZROoPc0mLETI2HEU9LL7FjWT7wMh/s58Siw+l9O6RF3Sy+xY1k+8DIf7OfEGfVn12990LwLPWfXb33QvAsgAAIAAAAAAAAAAAAAAAAAAAAAAAAAAAAAAAAAAAAAAAAAAAAAAAAAAAAAAAAA1D+aY/5mMX++9j/AGCaPnGPo580x/zMYv8Afex/sE0fOMfSbo/MT8f5Q/WXka/RmP8AMr/kDsh1xo+JpxSD86T2HUB7R/VuatburZrYkz3j29JXF/WMt041jyvTXKouUVpRZptJcZkRZSPpUlhxJpcbXwmRkRkfeR8jIjGCgM1UU1RaYeLtGw7NteFVg41ETTVExMW5xKeKfpOVuBxHo+lunTlS7OtYdlMetro7EzbjOdY3HaJDLJIRuaiNSuNZkrv3IjLIJvTPeenuymMPvpDciPZNuotsxkz+BcpBpR1SVNk0020SlESSbNZlsRud++s4DjOy4UzeY+cvR4nQ7cuNXxMTBvVN7zNdczN4trOa86Rpe9uyzYqi6YVlT1MKg8F7CPDZx2PRyH6q/XBnKcYdU43IZfS0rqua1EaDSsjI9jMeGQ9L26slVD1PirkN+lyVN/HdnXcixWpCWktkw4t76Yrck818ZFzMkpTyGvgB5rg3vYjoduSnFnGjA1m9/wAqq030m8ZrTppy5Jj1P6QrGaY+3jGJYSnGoDlxJvpvXWPbnZEx4uHkvq2yQ2lJmRJ2UfdurkIscyC4c75yy+5Ii/qIW8B1ow6cOLUw9tsO6tj3dhcHZ6LU6zrM1Tee+apmZ/bPuez0yXI+rynXN/SWZjxABt58REaQDMdGv862M/8A1h//AGV4YcMi02v6LGdRMeuckuoFTXsSXidlzpKGGUbxniLiWsySW5mRFufeY4bT+aqfNdNNOjm3/wCTif8AbL6/6YfodifcF/UM3GvOnXSj6M0GhjMzekTpjHcSkiNDuXV6FFy8xujMPosuix+6W0r/AO2Nd+WHyOJ60vw5TySsAin6LLosfultK/8AtjXflg+iy6LH7pbSv/tjXflhhUrCK5XSDo7CfLrtM8Hy3UhyA+uJLkY1HjFCZfQo0uNdtmvx4ri0KIyUht1SknyURHyGFana86TatsY/otpRrbil3bagXTdLNLGskjSZ0arSw/KnOI7O4a2jVGiusk6W3At5BkfFwieqKipsYpoWO47Vxa2rrWERYcOK0TbTDSC2ShCS5EREW2wDAqHXvGpt/CxHMcbyPA760WbdfAyWI2yU5wkmpTceSw47FfcJJGo223lL4SM+HYjMSWlSVFuk9yGPag4DjGp+I2GE5fBOTW2LfCo0LNt5hwj4m32XC8Zp5tZJWhxOykqSkyPchrnE1d1QkdHt5NNk0aJnlVeNYm7ZvREOMuTY9yVbIdU0ojLhcU24ZkXMiV4uxkRjUU5uQ2uAa9J6SUiPJlZNaRX2oFNiEyfa0KENk8zbR5SGnGUuLJJmfFxISZqJCiUlfcZGKlfSPzeultYhfaU1jGavWMGGivi5Kt+vNmYxIcZkdsVEQvZKorqHE9RunhNSesLhJTLJdPgDXqh6VNuUZVzn+mkfH6duBdvOPw732QfKVVLUiWgmuobI2VcCjZd4yWsi8dprcY5V9NAs2xvIoWJKwQ8njnUtVb9PlLWRVzJWUkozK5ZtJYUh5pe6nI5cjIkkh5XEZpZZS7agBrgjVSfpDm9lTZlqxl2XwIlDOuJxXmKpjE2qMhDv/J8yHAjxHk9WpwltLdccI+r2Mtl723Gum3AyasuCpqDEb+5gP05RYuM5uzaxnWbGUUdsn5CGEnHfbXubjXVrSRcJpcXuezLK3bQgNcci6XLuGYwlebY7h2N5UeSP42ce3zQodElxpgpHXHaORSUSFMKSaS7Nxm4okcJERrKpoOlqxlEWPkNLiVe9jUXGXcmvLP2eSs4rTTklpbUUm2VtyzNyMfCo3WkKQo17lsSVTLKXbCgIs0z1gyPK72XjGd4JFxmzTXxrmCUO49kmJEF9Skp43DZZ6t9CkGS2yStBcSTS4vc9pSSolESiPkYTFlcgACAAAAAAAAAAAAAAAAAAAAAAAACKell9ixrJ94GQ/wBnPiVhFPSy+xY1k+8DIf7OfAZ9WfXb33QvAs9Z9dvfdC8CyAAAgAAAAAAAAAAAAAAAIv1ayfUXHMpwVGPSqmHjs++YhWy3EKemSkrbePqUJNJIZQXAlRucS1K9qSUe2NzElyX0RWHJDm/C2k1nt37EW4tHhdXeg78RfjHTILAlYxZSk8uriPK+JBmIc8Jj90+UdcPDz3e33Zu3z+mqruTL4XV3oO/EX4w8Lq70HfiL8YhrwmP3T5Q8Jj90+UdOA9p9HvimXwurvQd+Ivxh4XV3oO/EX4xDXhMfunyh4TH7p8ocA+j3xTL4XV3oO/EX4w8Lq70HfiL8YhrwmP3T5Q8Jj90+UOAfR74pl8Lq70HfiL8YeF1d6DvxF+MQ14TH7p8oeEx+6fKHAPo98Uy+F1d6DvxF+MPC6u9B34i/GIa8Jj90+UPCY/dPlDgH0e+KZfC6u9B34i/GHhdXeg78RfjENeEx+6fKHhMfunyhwD6PfFMvhdXeg78RfjA8uriLc0O/EX4xDXhMfunyjq5kxk2o+s8h+UJwLJPR60dqdYFzCsVrRGeSs0KNJ7H5SFeIN0is7Z1q3ciNtSZZOvqYakPG02twlK4UqWSVmhJnsRqJKjIuex9wyHRPLs3uqa6a1Esq+bcQsisYPFAjGzHbZbd2baQRmalElPLjUfErbiPbfhLjXRlmz5SJulEBwR7luORhQAAAAAAAAQhrTqdm+nuqOJO1EpDuJx6ixs8ngdnStxyK29Fa7Q2vhNZKY683DSR7KQlZbGfCEaibwEdaUZvZZVFyGRZ2KJiY2R2EOGtKEJJMVtZE2kuEi4tiPvPcz8pmJEI9y3FmLDkAAQAAAHhPjdtgyIfHwde0tri2324iMt9v4RA8vo4oad01lwsqksTdPmokaS41GIm7qOwwpCG3WzUfBwrV1iFEajRutPMlqE/jzdUw02t59SENoSalrUexJIu8zM+4haZy6ihpkOpY2dIyP1jTz5qRmut+muiMrKtOp0SXh1vW2GJ5jUS4KHUoYsWTYZnNup4XW1tqUpvbjNBqea3QexjZuVq/ianFw8Tam5VKQo0GilaJ5hKiPYyXJUaY6DI+8jc35Hy5DGM1x7KNYsascNzqFRVOMXDCo02uQj2QlPsq70qdWSWmj8vitrMj2NKyMtw5yI66Emqer+p+m6NSNZ50QrPMJJ2dXVQoSY8esrTSlLKE97i+s2U9xOLWfC6guWxkNpUnxJI/OISocdzPTx5B11fU5LWsoS02zGIq6W02ktkpSgzNhexFt7Zou7kM3q9X8MlSWqy4kyMesXT4EQ7pk4i3Fei2tX0t4+/6mtXcfmGqrT6qR72bgOqVpUW6VEY7DCgAAAAAAAAAAAAAAAAAAAAAAAAAAAAAAAAAAAAAAAAAAAAAAAAAAAAAAAA1D+aY/wCZjF/vvY/2CaPnGPpb80WxvI8m0fx6LjOO2tw/GylmS8zXQnZLjbRQpaTcUltJmSSUtJcW226i84+crmKZc0o0O4bkSFFyMlVEkjL+gPoN1YlFGDMVTEa+D9SeSLeexbJ0cjD2jGooqz1aVVRE9nZMrYAuPgxlf7Ecg/BMj/cDwYyv9iOQfgmR/uD2fHwvrR9r+n9e7r9pw/v0+K3ALj4MZX+xHIPwTI/3A8GMr/YjkH4Jkf7gcfC+tH2nXu6/acP79PitwC4+DGV/sRyD8EyP9wPBjK/2I5B+CZH+4HHwvrR9p17uv2nD+/T4rcAuPgxlf7Ecg/BMj/cDwYyv9iOQfgmR/uBx8L60fade7r9pw/v0+K3ALj4MZX+xHIPwTI/3A8GMr/YjkH4Jkf7gcfC+tH2nXu6/acP79PitwC4+DGV/sRyD8EyP9wPBjK/2I5B+CZH+4HHwvrR9p17uv2nD+/T4rcMw0cLfVTGiL9UP/wCyvCweDGV/sRyD8EyP9wZhpBjuSR9T8elSsauIzDL76nHn695ptBHGdSW6lJIi3MyLv7zIcdoxsOrDmIqj7XzvS/fG7sbo/t2Hh7RRNU4WJERFdMzM5Z5Rd9TtN4EhePRlJeMi4S/qGY+xkv8AVKxYNMS2x2IR+gX9QzcfLYk/lS/FtPJZ/YyX+qVh7GS/1SsXgBi6oj1uxXKHcfqM0xSA7b3uCXLGSQK5CkpcnE226xJjNqUZJJx2JIlNoNRknjWjcyLcZ1gOoOI6nYxGy/CblqxrZJqQakkaXGHkns4w82rZTTyFbpW2siUlRGRkRjIVJJSTSfcYhrUDo34XlN3IyuBGsKS8lkkpFlQW0unlyCT7UnX4brTjhF3FxKPYhYtVzGV6w6w4tozix318pUuxlqVGpaWMpPbbibw7ojR0H3mfepR+K2niWs0pSZlCOi2lki2wqPQ5bLc7Y9ZIyCyfhGSUuWSp/sg8aeIj+lqkmrybmk+8j5i+4x0Y6ShuV3TcZ+VZOoJp2zspr9hPcb334FSZK1vKTvz2Ne24nDGsai0EVLLKCIyLmY6/k4dM2m8yzrMozvOjxhVxlOTZc/HnJk5fTFSWzDMpTTDrW/1ZJJ2ND+xJSbiTIzJCN/akZUVD0foVRPi3FvlmSZJeR57E5dvauRSkPEww6yywpMdhpomkJfdMiQhKjUo1KUozPedNi8xBwp334SHPPK2hDidAsWVGjQ5pzpkZg7g1MPOo4Hk2S1LkIXwpI9i4zJOxkZF3mZ8xb4WgDB1dxj2XZrl2XQbhhuJw2tihrscdszNtEfsbbHVrSo+In+cgzJJm6fCnac9i8xBwp334SDPJZB0TQJhc96bnGb5Zm6jgyq2K1dPxWmIkaSkkvoS3CYjpcNSUpT1jxOOJJPiqTxK4vKDoC6w2qNe6i5nkSe2V8qMdnMj8MREN4nmWW22WW29uJOynFpU8stiU4eydp1NCT70kOeFPfwkGeSyGbzQeHZpmTqrKb+huZFuq6Ytq5cY5EN9bCGHENpfZcZU2tpHCaXW3PbGZbKJJp7UuiVVDOWizsbi59kKVNFNXZzDeXJYJbqlKWvYlcajfXvsZJItiSlJERCZNi8xDgkpLuSQZ5LIh0/0ZZwC1lW7uV5Fk9jKjsQG5t28wtyLBZ4jajNkwy0ngSpa1GtaVOrM/HWvZO0uR0mlpJK7x34U777EORJqusRYAAGQAAAAAAAAAAAAAAAAAAAAAAABFPSy+xY1k+8DIf7OfErCKell9ixrJ94GQ/wBnPgM+rPrt77oXgWes+u3vuheBZAAAQAAAAAAAAAAAAAAY/l+IV+WpqFz3pDaqSzatY/UqSXE62haSSvcj3Ts4rci2Pu5jIAAYfmpKg6f5C8fLq6uWr4mlmNVPCX7Z8o2m1rns1WkGbWchRpaiY9YvrMi32SmM4ZnsXwD54QdRaaz2KDasOqPuTx7K/inzHsdhw5xM0/B/U/J7uyvbtmx64pvETH8JTT4S/bPlDwl+2fKIm8J/f/KHhP7/AOUedwX3/UfuSz4S/bPlDwl+2fKIm8J/f/KHhP7/AOUOCdR+5LPhL9s+UPCX7Z8oi6stplxYxamuR10ua+3GYb4yTxuLUSUp3MyItzMi3M9hVLdtGrebRSTjRptcp5uQiRMZZSlbRmS0ktaiSpW5GREkzM/JuJwohzq3RRTOWqYibX/Z3/BI/hL9s+UPCX7Z8ojWhk2uT3EWho2O0z5q+rYa6xKONW2+3EoyIu7ymKORfuxZDsWR4rrK1NrTxb7KI9jLcvWHC1s11NTNfD0vzt2277fslK3hL9s+UPCX7Z8oibwn9/8AKHhP7/5ReC11H7ks+Ev2z5Q8JftnyiJvCf3/AMoeE/v/AJQ4J1H7ks+Ev2z5R0fybZhw+s7kn/UIo8J/f/KLPdan0FVFfVMt2SUhtRmhCuNXd5k7mJVgTabL9H68SJiim/whuvoR43a1+k+4f9IxJOO4XAxZ2w9jnZLpWllJtXuvUlRpdfVxKSnZJbJI+4j3PbymI16PyichOup5ktalEfwmYnVBFwkPT402qfmqnk5TyIhyADi0AAAAAAAMVyDBqu3ymHmMhb65cKslVKWN0mwtmQ4ytZqSadzVuwgi5kWxq3I9y2yoA5CMNK9IaTSKocxjFFTfYxyfJnoblP8AWmybzhrNpBmRGTaN+FCT34UkRb8hJyS2IiMeUaXDmIU7DksvoQ4tlSm1koiWhRpWkzLypURpMu8jIyMewszcAGOZPqLhWHLKPkGQRmJa08TcJriflul50R2yU6v+BJ95DDJ2rWV227eIYcmAyftZ1+7wcvOmK0ZrUXqWtoxBKww+81YwejluVabVVpZt8lV9U0qZISfmWlsjJr4XDSXrEczam0yMzVm+XWdyg++E0vsUEvUbLJkbifU6pz5CF0rmK2niIgVMGNCit+0ZjNJabT8CU7EQC4Sc41IvzNNPTV2LRFdz9ksps0y/eGlE0g/WbrnrTy521zDKy1cTJzKysMpfSolkVq8S4yVFz3TFQSWEmR9x8HFyLmKztnvhaMpzihwumcvsjnqjxG1JbIm2XH3nnFHshpplpKnHXFGZEltCVKUfIiMBmDT7TDSWWG0NttkSUoQRElJF3ERF3EO/bPWMFxDUPHc6gPWGPSpZlGdNiRHnQJECXGc2IyS7GkobeaM0mlRcaC4kqSotyMjO+LnpbQpa17JSRmZ+oBfu2eseE1MKyiuQrGIxKjulwuMvNktCy8xpPkYxOgzalyiLFn0cmRJizYbU+PIOI8204y5vwmS1pJPFy3NG/ERGRmREZb+lRmFNfSrSFUz+vepZnYJyerWnqn+rQ5wbqIiV4jiD3TuXPbfcjIB6s4e3Rn1mDZDZ40ae6NGcJ6D8HZneJCC/e+A/WLnF1C1AoD4MlxeLfRU98yjc6p7bzqivq2IvuHln37J8/l2z3wds98Ay3HNUMJyiT7HV9021YkW6q+YhUWWnz7sukle3rIjL1jKiMjLcj3EM3FbS5BG7HeVcSeyR8SUSGUuEk/OW/cfrLmQoYcPJsb54Zm0+M0nmUG0M7GL8BdYonkF5iS6SS83IgE6gIpg6x3dTs3m2FyOqT7afSKOa1t51M7JfT8CEOfCM4xnO8QzBpbmN5BCnG19VabdLrWT8zjZ+Og/UoiMBfgHG+/cOQAAAAAAAAAAAAAAAAAAAAAAAAAAAAAAAAAAAAAAAAAAAAAAAUVrXNWcVcZ0t0qLYxGE/QzHJL6nlRy3Ue58hLg44SPyDVNc0ckmIlDXzhMc9w/o/8A+cJjnuH9H/AICZeFPmDhT5hvjV95lhDXzhMc9w/o/8A+cJjnuH9H/gJl4U+YOFPmDjV95lhDXzhMc9w/o/8A+cJjnuH9H/AICZeFPmDhT5g41feZYQ184THPcP6P8AwD5wmOe4f0f+AmXhT5g4U+YONX3mWENfOExz3D+j/wAA+cJjnuH9H/gJl4U+YOFPmDjV95lhDXzhMc9w/o/8A+cJjnuH9H/gJl4U+YOFPmDjV95lhDXzhMc9w/o/8B6xtC8ejPJdQwW6T3LkJg4U+YOFPmDjV95aFpoqluqiojNJ2SgtiF3HBERdxDkc5m6gAAgAAAONi8xDkAAAAAAAAAAAAAAAAAAAAAAAAAAAAAAAAAAAAAAAAAAAAAAYtqrg7Wp2l+X6bP2K4DeWUNhRrlobJxUdMqOtk3CQZlxGkl77blvttuQykAEHN03ShhyXD+e5pfzPff529if/APOCo7P0ov23tLv5tLH8+iZVMNKPc0EOOzM+gLeBDfZ+lF+29pd/NpY/n0Oz9KL9t7S7+bSx/PomTszPoB2Zn0A0EN9n6UX7b2l382lj+fQ7P0ov23tLv5tLH8+iZOzM+gHZmfQDQQ32fpRftvaXfzaWP59Ds/Si/be0u/m0sfz6Jk7Mz6AdmZ9ANBDfZ+lF+29pd/NpY/n0Oz9KL9t7S7+bSx/PomTszPoB2Zn0A0EN9n6UX7b2l382lj+fQ7P0ov23tLv5tLH8+iZOzM+gHZmfQDQQ32fpRftvaXfzaWP59Ds/Si/be0u/m0sfz6Jk7Mz6AdmZ9ANBrFrtG6R/zlM+O61T03lV5YxaHKYi6ez47zrPZXONKHVXTiW1GnciUaFkRmRmlW2x/MkfY3pHR2k9H7UtRJ5liFwf/c3R8ch7zc3Kv9n836R8hcf7ntk/81P8JV0S9uIJEUWykISXcnjM0/EfIXVjPb9rk6tl71qRsfybDHAHuppiecP7hXsuDievTE/sZi1qJI22eh8/Olf+BkKlGoMdReMh5J+tJH/iMFAZ4dLx53Zs0/qpj0y1BqI+o+KSbCyaixmruCt558+rbabJ9BqUpR8kpItzMzPYi7xN1DdVGOau5tldxmuHJp7aPfFBfYyiukG6bpOKaLq2n1LTxF3cSS5mRd5kQ0uAccTZornn2Wei3l0UwdvrqqpryxVTNE6X0ve8TeLT8Yl9B6fWGijXuMWl5q1R1zZW0BtMKvyWLNrFs9jNC3Wm+BD9Y2R8lIdPZSlGR7949I2oOJxcbsmL3WSotkTaG3S/HXlVaUUpq3FmhnsiEm5Id2SRlIW6ZH3JM+Ikj56AOE7vp73oK/JrslUxMYtuX6sdl7WnnfXXWfstEZ8rO4ae59SvgQf+I8l6gsp9o08s/gIi/rGDAPM4dL7qN17NHYy97USX3MQy+Fa/8C/GKGRneQPbk2+2wXvEEf8AXuMeAayUx2O1OwbNRyoj+Krl29pO3KZYPukf6VSz4fi7ha7ElHXyiQZErqV7GZbkR8J+QVI8J/1jI/el/wBRiVxaifg64lFNOFVTTFotL6M6IV3SHbqv+StT9Oo6fNIwGc+fxpuEf1CXSjdKIi2+e9pd/NpY/n0UPR6abVTbqSRicUxmeEvEHyONaK5f5908kOdn6UX7b2l382lj+fR3aY6TpKM3tW9MVJ4VERJ02sEnxbHwnud4fIj2My8pbluXeUw9mZ9AOzM+gOOjSHDjdKIv/wC7+l382lj+fRx2fpRftvaXfzaWP59EydmZ9AOzM+gGghvs/Si/be0u/m0sfz6HZ+lF+29pd/NpY/n0TJ2Zn0A7Mz6AaCG+z9KL9t7S7+bSx/Podn6UX7b2l382lj+fRMnZmfQDszPoBoPkhEwPptxOlxn+baHZGjE8flX6vZm2XTP1NBazUEhEx1uskvSVSDU6l76clSyUriUlxriIi3jyGdrLYNFMurp62p+rT1kTHXfYp0z2LiM0qM3FEfPkUlPLlwn3ierDHYNitKn2iUST32FQilgIY7OTCeHbbbYbvTZNWtmMZHgUJ46qpYYpp7xmbkSVHOLJdV5TPjIlOnz9sRq384y3thecZ9k2leMZJFci2FXGkNOe2bdaStJ/CRlsIzs9DLyhNTmF5JOgoT7WK8o5Ub4OrcPiSXqQpAmWJ5SXV3bC84dsLzjDJc/O8cUaMmxJcppPfLqVdZy86mV7LL4EG4Y9KrMaK6Wpmus2nH0FuuOvdt9H3TS9lp/hIhmaZp5rdl/bC84j3Vk5zEzEcyYqpdpCxe4VOnxIbC5EjqFxXmeuaZRut1TZukrgSlSzTxcJGrYjybtnrDtnrEEW5TmKL+TUah1mnGSM1VNkMN2TNPH5TdnMYTHktqX2A2imG20t9JFu2aj4nFJTwlxKx3DsFRl2VVFlm2nz7sNkstlNx7it422nH7RtbClJcSaSWpviUjfntuZeUTp2z1h2z1gNZqDC7CHp/Eq6vA7SDVxcXootvWs0z8ZUptiyeXYx0s8KDdUtvjM0pI+tSvlxEst+9jQV5Y3Y1lLpN2fE7XMSkxIlzhFjZQ4sYq1lLS1UjKmnFtm4k0oJwkoYMiM0oNBEnZbtnrDtnrAY3oEzcU2kWO09/BdhToTL0d2M5GVH6okPOElKW1LXwIJJJJKSWsiTw7KUWxnIHbC84sfbPWHbPWAvnbC84dsLzjC7TO8fqHzhybFLsvyRIyVPvn/9mgjUResyIvWLb4SZtdn1dFj7da2rkT9irrHfhJlo9v4zhH5yGqaKquUJeyRjmkRbmr5Rg2S5Tp3YSyS5F9mrSMezaqpBrksK8xSGzT1J/C4ke0HSK9ygyVk8+daoV3syFcEb4OoRshRfdEo/WJOxzRmBBabQ60hCEERJbQkiSkvURciHThRT68pe/JiWlGWajou0JtLZ88f4TSiFYupmzCPbxTJ9KUmnntuSlPGex8y35bAxX+0Mpc223IWmrxKqrCT1MdBGXl2F6QhLaSSktiIYqy/qrF+12AAGFBxuRd40v+aW9NK66LmB1eKacOsozrMUvdlluJS4VXDb2JckkKIyU4alElslEadyWZ78JJV8Rctz3N89vXMnzbLri9tnlca5thNcfeM/ulmZl/AA/UVuR9xjkfEDoDfNB9TtLtQqXTHU7K52RYLeyWq9tVlIU89TurPhbcacVurquI0ktsz4SIzUkiMjJX2XvtQKbG6SHeT2pLzEyxhViCjpSpROyn0MtmfEoi4SU4RqPfci32Iz5C20uMoAYHZ63ab12eVmmjWSQZ+R2EtUR6BCmMOv1x9mdkpXLb6zrGULQwvhM0nue3k3MrNR9IWhu7WERYVlMLGbaT2Opy2U1EKqsXjPZtLZJkKlIS4ZKJtx6O22syLhWfWN8a0yJVAWJzPMHZgNWr+Y0jUJ+G7YtSF2DKWnIrfD1j6VGrY208aOJZHwlxFuZbkMKj9JbR+zyebiWOZjT3k+DChWCvY+4gLbcakylRi4FqfSRmhaS4i5e3QSeJSiScEpAMEstbdOIGe1embORwrDI7GWcN6vgy2HX65XZnZCVSmuPrGUrQyvhM0nxHty23MrtiupmnOdTbOtwnPscyCXSvdnso9XaMS3YTu5lwPJbUZtq3SotlbHuk/MAyUAAAAAAAAAAAAAAAAAAAAAAAAAAAAAAAAAAAAAAAAAAAAAAAAAAAAAAAAAAAAAAAAAAAAAAAAAAAAAAAAAEAq6RWojbdrlT2l2MpwqnyKTRPzSy9/2VUlmb2RTyIR15NKM1+MTfatzLuM1bJNEXE/AMVLU/CON5td0SVMXLWPuF2d3xZ7iULQ1vw+VLiD4valvzMtjFuxPW7TbN8kfxTHLma9PZZcktKfp5sWNMZbWSFuxJLzSGJaEqUkjUwtwi4k7nzIW0jOwHBGRluRjkQAAAAAAAAAAAAAAAAAAAAAAAAAAAAAAAAAAAAAAAAAAAAAABHPSQ+x81M+9C4/2N0fG0fZLpIfY+amfehcf7G6PjaPe7m5V/s/m/SPkL/4LbP8AFT/CQAAe7f3cAAAAAAAAAAAAAAAAAeE/6xkfvS/6jHuPCf8AWMj96X/UYxiepPwc8X83V8JfWvo8/wDxKJzT7UhBnR5/+JROafakPkMf15f580cnIAA4tAAAAAAAAAAAAAAOFJSotlERjkAFDLp4M1JpeYQrfzkMEyzRTE8nQXbqqO6pHNtakFxNn50q70n6yMhJIDUVTBZrZb6K5ljxqcxbJX3WU90SzScpsi8xObk6R+s1qL1DE5lrktAo28qxSbGSnvlQSOWx8JkkidT/AAo2Lzjb1TaFlspJGLbPx2tnpNL0dB7+oW9M84Rq3XZFV27JyKuxYlNkeyjacJXCfmPY+R+o+Yq+2e+Eo5boBieQPHP9j0tTCLZMphSmX0/A4gyV5uW+whfVbC8z0ewjI8/Zs1XVXjVVMt5ESYgieWzHZU6tKHkEXPhQZFxpV38zDJ3SXXftnvhQWeU09MSPZOyZYW59TbNW7jh+ZKC8ZR+oiMeMPTrN7x/qre2dYTvzj1qDZL4DdPdw/hTwCQ8S0EhVxm63BaYW5zcc24nHPulnupX8JmNxhW9abJm7kaJyPI7Y+DHsaeShXdJsjNhPwk0RG4fwKJHwi32uhupeevdok6vZbUtKIt4VLHgMRS8/1aO66oj8pKcMvUQ2pptOKetSkzYSpReUyGTx62JGTwtMpIvUQZsOnlFzWWpmN9FzNKthMePrNlERoufC3U0pEZ+cyKCW5jNa/Q3P67Y42vuUp28iqOmVt/3QhsL1LXuafiDqWvQL4gnGmSKYhCren2sEciJjpCXhEXp43VH/AFMEPXwQ1xQX0vpByzP7ZisA/wDVIhMnUNH+kL4g7Oz7mXxDneFshnwY1/T7TX2Mr98w6Of9TxDnwf6RCfa660h/vmDpP/VmEJl7O16BDjs7PoEF4lUN+w/SRT7TW3ElfvmAun/VYkHsf0mk+11l0/P9806ln/q25CZezs+gQdna9AhNB8TvmuWJarwtV8LzTUi+pbtiwx46uHMp6R6rjoVHkuuLbU07Kkma9pKT4yWkjIyLhLhM1aGD9KXSM6OunnSS02mad5/WrdjOKKRDlsGSZMCSkjJL7KjIySoiUouZGRkoyMjIzIfKDPfmRGstBeuR8Uz7GbKp4/EfnpkRZBJ38rbbbiTPb35fwCxTNXqjSPD8etstyunxeiQtVjazmIcUk95OLWSUn/AZ77+ofoWmVGQZfgNXX1EQ5T0XIqWc4k3Eo4WGJzLrqt1GRHwoQo9i5ntsRGfIakdE/wCZ71GjV43l17NVkWUJSaGZKo/Vx4BKLZfUoMzM1mRmk1qPfY9iJO57/RLEsfRTViIxlz25jrNMYdFp5yzzlrZA08zpvKqbG5uBut19HlV9cvZOcqHwSo9i1MNPVNpWb/GRvtocJbaC3Qg0m4W5pybTWTqzj1ZjulEjTR2NHx9livlZRImwzqpMJhJJJcZlp85fXOIJJEhxhtCFGszWokpJzYJytjue2SXxDhVZHUREaS5eoZzxK2s04madat3OHM4NM05eiNUOC3+KFIesoa27KS+cUmXGCQ8aiZcS0rm8Ta0mRkpJFsas11BwbOLfKrBynxh+TXzqnHWGpLcmOhppcG0U860pK3Er36pzjSaUmk+BRbkrhJWyKqqMrbdJcvUO/sfH4ODhLb4A4iTTdqhBwXUWHkVPRtaeoUzj2TX14WRy5MQ401FgzMNsktoX2gzJT7TbpLbR7VJpNwtzT76C4vqvQ5vHyDNYOQR4beNJpm41n7BttQHW5CFdTEaq0J4Yhl9T61a3CJOyibP2+0yquMoiI0Fy9Q6+xMUjI+AuXqDPElrPeIs3GEqV37D3HVCCbSSU9xDsOTQAAAAAAAAAAAAAAAAAAAAAAAAAAAAAAAAAAAAAAAAAAAAAAAAAAAAAAAAAAAAAAAAAirXnVXKNK0YlNxygjW7FlcrYt2FpWb5V7UV+Q+uPwqIjeSlniJJkZKIjSRbmRkEqgImqtd66TmcujfQzLrJllW11JKgJJXWdpgLlG46pS9jRs2rY0F5U8j5mVNd9JvGKtSY9Zg+X30xRXDnZa5iISyarJSY8pw1PSG0ERGvjSXFxKSRkRceyDuWRMQCHYPSfw2XXWlhJxXKoCobNbJrosuKwl+5asHDahKioJ4+A3XUmjgkGytB81pQnxh6F0kaM2KmMnT7MDvrS8ex5dB1cEpsKY1HOSsnlnJKNwdQXWEtt5aVEpOxmZ7BaRLwCLsb6QWMZJmCcVRjWR18WZKmQKm8msMIr7aVE4iksx+F5T6VINDuxvNNpWTSzbNZFucnpUlZcST3IS1h2Gq03onV0F2VnFVieGJ1Mi5ZY5NWXxwUdY8l2U6tuPJk9SbvCbDnVGZErqz2Ujc0JMbUiNc/1Tl1OVxtNdPMWLKs1lxSnOxVyuywamGpSkolT5HCs2m1LQtLaEIW64aF8KeFC1otM2m4jOXpnqsjMJRxnsabxyVl0HLFSVSXznEbTDbTkXqOp6vkpolpd63xvaG2n24s2lekOqmM6jQc4zi4TOkRYFhXypCsttrY5633WHEym40pKY9eSuqXxRo6eBO6CJaiSRJlByj6UrSfZAsq0nnqLxvYg8esohfcdv7a7/G7J/o+QXPTbVKtzafZ4rkGOScXzHHzbK1opjiHFtIc4uqksuo8V+M7wL4HU7bmhSVJQtC0J3nulkhVylqjJNffsQqh1QlKUkSC5DsOcqAAjTpCdITTjoz6cS9StSrFxqG0so8OHHIlSrCUZGaI7CDMiUsySo9zMiIkmZmREAksB8c8t+baa2yb1x3BNJsIrqbi+lsW3a5so0+t1p5lG/wACPjG2nQz+aaYN0mbhOnmZUDeHZutBriRyk9dDsySniX1CzIlJcIiUo2lb+KW5KVsok2IuN2AGH6p5lPwnAp+VUzUZ6TFdiIQiQlSmzJ2S00rckqSftVmZc+/bv7hguc9IaTT5Sxi+K4daTGo2S1dDa3kiO37GsOSVINyOkyeS+byWnG1dZ1Rska0pNZr3QS0yJqAasaQdJW+z+8gs2ev2jEiY9JmFIwqrqVlepQyt1PUk4u3Vs4RIJSlHG2238VPeUo/RI4AVFCvyYtXY82iZvUIaYQpxCXnkMR4yk8f1w68s20JLdPE2vdREW53LIlYBDTnSapWYcdl7TPN28kful4+eMGzA9kG5hRVSkEpwpfZDQthJLS4mQaC4iJRpMlEm0I6U8V6/oJh4bcwcRn4tb31rNmMxyk1j8F9tpxh1tEhSzUhRuIUTTbpKWpvgUaeIymWRPgDAtOtXq3UCTYVMjFr7F7msQxIfqrtEYpHZnyUbMhJxnnmzQvgcLbj40mhRLSk+Qzwj35kJaw5AAAAAAAAAAAAAAAAAAAAAAAAAAFpyzHazLsZtcVu4vaa64hPQJjHGpHWsOoNDieJJkpO6VGW5GRlvyMhprlfQW0/RYuHQ4y+xG38VHsrMVt/Cp0zG8A8nI7bh7mktx1w8WrCn8l7DY97bw3dTNOxY9eHE88lVVN/jaYu0H+gcxv8AWF/8JSvyowiF0SaVer+S4e7VyDiVuN0Vk0z7ISdkOSpVo2tW/Wb+MURsuZ7eLy7z3+lfYWfR+UQzFitp6UGfJ4S2LA8O+WxyIdo2quZeX9J9+e2437yv/U1vR0HsaUklFQv8/wD5xlflRw70IMaaaW6dC/shJqP/AJSleQv30b5RoTRtJPh8gpb+OzHorGQRbdVEeX8SDMPO61+k+/fbcb97X/qfOXR7oj0uYaV4VktjVyJEy5x2tsJDp2ElJuOPRm1qUZE4RFuajPkRFzGafQO43+sL/wCEpX5UbNdGmC23oXpkzwF4mGUif+4skJb7Cz6Pyh53XCR0n35GnnuN+8r/ANTQr6B3G/1hf/CUr8qH0DuN/rC/+EpX5Ub69hZ9H5Q7Cz6Pyh53Wv0n377bjfva/wDU0K+gdxv9YX/wlK/Kh9A7jf6wv/hKV+VG+vYWfR+UOws+j8oed1n0n377bjfva/8AU0K+gdxv9YX/AMJSvyofQO43+sL/AOEpX5Ub69hZ9H5Q7Cz6Pyh53WfSffvtuN+9r/1NCvoHcb/WF/8ACUr8qOfoG8YX4jmPvKSfIyOxlbGX/WjfTsLPo/KHYWfR+UTzutPpPv323G/eV/6kbaS4fLxev7NJ335CUU+1IebcdDfMiHqPHrqzzeXo4iwAAMqAAAAAAAAAAAAAAAAAAAAAAAAifpZtNq6LOsajSW5YBkJl+DnxLAinpZfYsayfeBkP9nPgM3qoUZMx4yaSXjeYX5KUpLZJEQtFYZFLe+6F33LzkLI5Acbl5yDcvOQg5GKZ1qpp9pqmKWaZPGgSJ5qTChJSt+ZMNJbqJiM0lTzxl5SQhWwr85y6swHCsgzq5M+wY5Vy7aVwnz6mO0p1e3+igxheiGmbmM1a8/zNCJ+omXMNzMis3Ukpxo1eOivYM+bcSPxdW22WxHwm4rda1qMO9T0kNIrS1i0km7tqCbPcSzDayfHLKh7W4ftUMnYR2SdUfkSgzM/IJLSpKy3SZGQt+R43j+YUU7F8qpYVvUWbKo8yDNYS8w+0rvStCiMlF8IhnSK4stO84yTQa4uZdnGxvslhQy5zxuyTpphOdnadWrmtTLseUwS1GalIZbNRmo1GdiLieAES6q5pqZEz/EsB02usXp1XldZ2UubeUUi0JKYqoyUoQ0zMi8JqOQe6jUr2pcuYo8f1xydigmw7/AbPJ8spbldFKiYnHbS1McSyl8pTZzH0NRWlMrQs0PyN0qM20rdVwmtaZEzAINpOko/e5gUeJp5kXgweI+EHaiisOy0SkyHGnIhsNSFurcI2zQSUNKI1kZks0mRn7TukPYzqp6pp9PLjHs0etoVLFqslOKpLS5TanESnFQZD7a2UtNvLNCXSWZtGg+A1EoLSXTYKd+BFk/VWkq+EhF8HUTO8Fbcj6tt1Vy25NrocK6x2vVBZfdmSCYJpcR+U+42balNqUvrVJUlfIiNJpP3vekBj9PatUMLEslubN/InMaZiwG4pKXJbhlLW5xPPtoJomTM+JSiPdJkSe7daYEjsVsOOe7TKS+AhU93Ihr7hfShemwJFxqHQSsbYgsZJLfjnBbfWuPWzkMJWhceW943CvhNvgM1rJRpNCSSS6+j6ReSTrvJ4tjo/ljK6xmqVXUDcWKq2dclJeUvrXSlKhJQRNEZLN9CE80qVx7JFy1JdOgDFtPNQqzUbG2cig1ljVqU/IiSIFilspMSQw8tp1pzqluNmaVoUW6FrSfeSjLmMpGbWUAAAAAAAAAAAAAAAAAAAAAAAAAAAAAAAAAAAAAAAAAAAAAAAAAAAAAAAAAAAAAAAAAUV1d0uNVEzIMjt4VVV17KpMybNkIYjx2klupxxxZklCSLmZmZEQCtAY5Q6k6d5VRRspxfPccuKWZJKFGsYFoxIivSDXwE0h1CjQpZr8XhI9+LltuLu9cVMeyjUsi0iNWExtx6NEW+lLzzbZpJxaEGfEpKeNHEZFsXEnfvIBWAApINtVWa5TdbZxJa4L6ospLDyXDYeIiM21kkz4VkSkmaT2PYy84CrGI5vhXhRcYrd+yPZ/Bmxen9T1PH2nrIj0fg34i4Nuu4t9j9rttz3LLhwZEfIwGsxdGe5x162m4RnZw5LuQxr+jRYVnbYtUTUdTJxDbS60t5g0uPcJE42pBKSklbIIhcsb0Gs6fnLzB2fIVCyCK66qBwGtVpMTJUvYnD2Js08JJ/TFse5bc9hTabPkaCEK1mU6la4S5kzTG2iYbgcV9yJGyR2AmZY3bja1IcdhMu/SWIxKSZIfdS6bvCZpbJHC4vpxJSzHMp6MMHLKGRR3FjCntOUdLVtMz6hEqKp6teW826+wtfC80tSyJTJ7eKR7LIzJSedOOjyvBToepdxuE5UW8q3djY5izFLAcW9FXHJDUdpajQRJURmpxx5ajIy4iLYk5dO0+15xSM5a4XrbIzSUynj9h8zq69lmXt/zaJVbGjqjGfkcU2+ReVBjJdLNTabU2iVZtVcupsocl2vtamckkya2c0rhdjuERmRmR7GlaTNK0KQtJmlSTO55LI5xrQy/wAdyqvmWGaNT8ZoLGfa0FS1U9nkRpMvrOs7RJJ00voR175NpSy0ZEsuM3DTxHO9alxMcic332FQbLau9BDsRERbEWxDFVWYiLOREvR4QiygZzmksiVbXmeZDHmLPmsmq+e9XRG9z5kko0NlRJ7t3FGXtjM5aEF29jedH/UC7yQ6KwuNOMxlFZ2XsZGXJmY/adWlD0jqEbuPxH0ttqUlpKnG3SWvhUl1RtyIuqdBAnSKdbxjUrSPNK4ibsp1xYYzKUjkpyvdrZMw+Lb2xJfgR9t/am4rbbiPe/vdLjoztRzcb1rxWVJSW51sKaUqy39HsTXFJ4ve9Xv6hES73KtdtT4ec2dBLo8domXoWM1cxBJmLN5SevnyUkZk2paW20NNH4zbfGatlOqQjphUTVVfsSZs2ooZ3b65p/0kkYuIteOQlQaxllfelJELoOdXPRQfHP5tplt7J1twPBHX1+w1di3ssw3+lOVJlvtOq9Z8EVkv/wDo+xg+c/zQ7RR3ppxI9roJUIurjTbtkabdqkIZg2B7kS6uK4ZbSJDbiTUaiUlps+NClmtRpQiLj43i9YTk9zhWY0mX466tu0prBidEUgz361tZKSXLzmW38I4ybCsvwu5Xj2W4xaU9m2rgOJNiLZd3325JURGf8A2e6HHQ4zvO87qM7zvHJdRi1RJbmttzWDbds3UHxNoQ2rxur4iSalmWxl4qdzMzTqiiqqq0JMvs47Vuaq6bysXcsuxKkrjLN/qut4eqfbd24eJO+/V7d/LffntsMVyHQ/JpeYzLOtzeNDxiffQsmk1J03WSVWDBtEfDL64kpYWlhJmjqTWS91dZw7tnJOmdM9W1COuIyNRb8xmamm1d6CGq6stU2S14a66baYay6errqJeo+IzsWgyHldlLD5TU9bK3FucHafZJTZLI17cfUGR7e1LccSOjBVzMbzjF7S5Vaw8wnolRW5lc04zWx23u0MwzbPxZDCZC31mlftkvKRySRbbE9nZ9Ah2Jpsu5BCZ5WzWrTro2rwORVPMvYpBer7x26ejYviDFHXrNUNyKltDDbi1kZE5xm4668oz3IuFPClNXP6Nz86ExWSMoI4LldfVlggq76a6zZSSfI2lG5wtLaWlPNSXCURH4qd+WxPUtb78BDk2mz70EJnTLCGtNNOcsxq8scozbLI+QX1jHiwOvhVaq6M1Ej8ZtpSyp54+M1OuKWvj2MzLZKCLYTIwRk0kj79gJhoj3JBD0EqqzLEWAABlQAAAAAAAAAAAAAAAAAAAAAAAAAABC0f7KLP8A7wsN/tHIxMzrrTDS333EtttpNa1rMiSlJFuZmZ9xDWWr1s0ZselRm0av1cwuU9Nw7FK+M2zfxFqflMz79TzCCJzdTiEvsmpBeMknWzMi4i3scxsxG+opFpzh3qMLv399urq5SviaUYusUyNlOx7jHtUHeo00y173Ojnq+KOsxBinR9a6jSDT9nb2mKVCfihtEJSEcaJtdTpphjO23V47Wp+KM2QkcWQAAEAAAAAAAAAAAAAAAAAAAAAAAAAAAAAAAAAAAAAAAAAU1nWwLiulVFrBjzYU1lceTGkNJcaeaWk0rQtCiMlJUkzIyMtjIzIxUgAhN3ojdGtLylN9HLS3hPuI8PrzL/8ARHH0JfRv/c46Vf8AY2u/IibQFuIS+hL6N/7nHSr/ALG135EPoS+jf+5x0q/7G135ETaAXGvGbdC/o+ZPhl/jdboTprUS7aslQY9hExOCy/DcdaUhLzbiGiUhaDUSiUkyMjIjLmJK0V1Ka1LwiPNmo7JklSfsXk1Yvk9XWrSSJ9pSe/hNXjtr7nG1trTulRGM9EUaj6H1OS3551jlna4vlfUJjKuqOUcWS+yjc0NPlsbclCTUZpQ8haUmZmREZmLGuglR11phpbzziW220mpa1HslKS5mZmfcQ1TwvKI2quueT6s46tT1FMagY5SyiIyTOhQFSFnKRv3trkzJRIUXJbaELIzSshUXuhOoeZNLpdTNVcyzWoc8VytsnIcSG+j0H2YEeOiQjzoeJaT8pGJh0/04Yx1ttamUI6tJJQlKSJKCLkRERdxF5h2ppjDjNM6szqteqOnGdZFkWNZ1gGaUlFZ0EGfAWi4x961YkNSlMKUZJamRlIUk46dj4lFsZ8vKI9yLozv5VjEKutbqgu7Zd45kF6d/jJWFRayXGepUR1/aEEhLaCbJjidcNvq0mo3VbqPZrgSaeA0kZDqTDRdyCHGKrLa7Vuv6MdvVY6WI0+asw6wsZlY0ZN0xIWSFyVvMLQTbyG0IQTikLaJGy07Ek2i5DjE+iu3ilfZx6ebjtHPnTIFtEVjGLNVMCBYxEqSl5uKl1fEhxKiS4lbhrURrLrCJSeDaXs7PoEBMNEe/AQ1xCyBp+k2pOTY3ZRcv1Riv5G7Ir5VY/X0C41VAchSCkNKOC5KdcdNbhETpnISakElKDb23NjWjN/V3sTILzL02di3kUvIpKmq047bjj8AohtNpN1ZoQn2yd1LPhIkmZnus556hrffgLcOoa334CEiuxMNcldGx+SzYwLvKkyoM2NfQ2ER63qXWG7KW3JI1LU6tK3GloVsrgSSiNPilwnxWTKejVnGawJrub53jF9cTn6519idhqnaOQiIT5Iafr1TDU8gyfJzZT/ivNpWXIktp2pNps+9BDg2GjPfgIXiTKZYRHoZpl86XGGsMgvR3IUeZLkspjV7cJllL763SaQy34iEo4+FJJ2LYi5CXy7iHVLLaT3SgiMdxmqrNLUAAAyAAAAAAAAAAAAAAAAAAAAAAAAAAAAAAAAAAAAAAAAAAAAAAAAAAAAAAAAAAAAAiDpGPRa2FhmS5EkjxKhyZixyFbhbsR2EMvdTJf5GRMsyTYdUs9koJHGoyJBmUvjo62TqDQflCBrTc6g4Zk5vZrpBeHNKdk+NwrG+ppprrbM+2Eg2EPNLNt5aWz4HTSR+KpCFKPh4URFAzmHDvYWYu5xlVrm1biOVO5VBj2i5blVYEqGammm3kuMwFo4dm2koShSC6zq3NuMbwFTqJZ+OfCfk3Hm5QIUe6T2HWKoSYaR4fqRdowzM4reePRcV7Vj0iZaVWpNnkyIlW88tuwksXExtD7KTbbMlm0ZIZ4HFpWhZK4bVfZr7CVtgvFc2ZVp1ZZTZyHb211EscdakL7FCOIZ3cZt19wj4nTb4j2fJKTNxzkS97SxtvrCWfeQtmVScVwylk5JmOQV9LUxC3fmT5CGGW9+RbqUZFuZ7ERd5mexBelNVn0KyTI7vTHFpOXWCbC4dqoy5ktKHUFIcNBbucLrLKy4u/xmmz5+1T3CSRCcDpGaMVhnLl2OTQK/vO2nYbcxawk+l252ImNw++6zb1iYKq4qb2vj21JZRZ8GW2l6PJjPJdaebUW6VIWkzJSTLuMj2GKrTOjUMM6Qc+9q9BNSrPFzcK5iYhcP1xtl4/akwnTa4fXxknYZNhcChqsOoavFSbKlh1kWPWk3twFFQ0lLXDt5OAk7C6vstSWHI77aXG3UmhaFFulSTLYyMj7yEAY/fZh0a21YNf4xc5Vp3CPhx61p2u1WFRE3M0wJUXcnHmmU7IaeZ6xZoJCVo3Sbi5EX5DYMa5JsypOlnnESqMiiTqHHZs0k9x2SjnNOGfvuysQP4CSO+bdMuhh41ZTdLNM85zC6jRXXmIcugl0UfrEoNRJcdsG2VbHtt9KQ4ozMiIvKWP9HbHZ2Qo+eJaX7d/ZZg6i/nWzTfA1KU82jqiZTufAw2ylpptJmZkhtO5qVxKPth0TF6quTMz2NpY6+sZSvzkPUebCOraSjzEPQcGgeEuGzMaNp5BGRltzHuADW5en9RI6S+cst8SVIwnE3TTwFwkS59+W5HvzM+A9y2LbYuZ78pnxvCKunQl1pouLz7DAY/2UWf/AHhYb/aORiY431FI6TiVTTa6Wh6JSSSJJFsRDkAHNUL6gP3Opeptlo8q8fqMTo6Out8gKEpTcy47a/MbbhJfSZKjsEUFanTRs4snUJSpBcfFn9FjdbXVkSjpauLW1MBlMeJCispaZYaSWyUIQkiJKSLuIiEf46faekDqjJ9yg43B/iNS3dv+8fKJkjJJLKdi8g1ygYnc6c1FofGpkkq85EPKn0zqK14nuqJRke/MZsAvEqta6Wh5sMNx2ybbSREQ9AAYUAAAAEfZVr1pZiF29jE+/l2V3GJKpFVQU827mxyVzSbseAy841uXMuNJbkKnCta9M9QLJ2jxzJDTcR2uvdqLKFIrbFtrfbrFRJaG3yRvy4jRtv5QGcAOCMj5kYwyv1l00tcft8orspafraG1dpLJ1Md7ijTW3ksraUjg49yWtJbkRkZGSiM08wGaAOCUk+4yDcvOA5Acbl5xGtV0h9NbzIVY1TN5jNkIsHatUpjB7tdemS24bbiTnFE7KSUrSpJr63gIyPcwElgOqVpWW6T3HIDkAAAAAAAAAAYxkObt4/mOOYq9AJaL9qe6qUb/AAFHKMhC+aeE+Li4+/cttvKMnGAahYLPynK8cu2pLLcGrh2sWWXGpLx9qZQhJt7Fty4T33MtuW24sRcYFddLzD0SJxYZTSr6JCpztky3kyK9uSXbmYpGwb7BE+yrrTWiQ0a21kgySat+IpWyPOqvG59HFnSYTLdxLejdZIecRwk3GdfUaeFtSTMktGZ8am0kklHxGZElWsdvofrXbYr7AWRYa29RYx4NUxs2cs0ziakxXW5EhRxt43GmNsptBPcB9y3CPxZDKg1XzZ3H5uZ45htHIx+0kyiZiXUm4ZkMu18mOXGTkOKe/WPo3b7jQSvHI9iG5oiEiV5yDpUaeV2OpyGkg5HakVxV1TkZWN2sZ/q5r5NolNtri9Y6wZcZodQk23FI4Er4jIZRS66aaX+aKwKrt7By1Jb7Tbi6Wc3AkOsEXXNMTlslFfdb5kptt1S0mhwjIjQvaD6zSHVhjGLCudRVQnE3FRZVtKvL7O2gkcOUh5xaZMxg3oaXEoShMVpC2WurI078atuMe0c1Qh6sQc8ya2RMbrbewkpfVllrLKTFkNvIaJFa4lMKEtpK22/pRKNaSUrjSZqStkhLtAvmp3TFzLULVu50Cw+/kQMIxB8oVgzEdU2dpYo+rG+ZGXE22vxEtnuXEhSz3M08OgZGZGRkexl3GJ86d2nV9pv0rdRIV6y4kr65k5JCdUkyS9GnOqfSpJn3klS1tmZfpm1F5BAY5zFmn08+ZT9M3M3shV0dNRb6Ra15xFycaky3TcfjG1zcicajM1N8G6kEftOrURcjIk/TXV+YhWjGcTEHyTjNmv4orhj4afM4MKuMg6SFdlsJpZQsSiSZUl0iPh432XI7be/nPrFqIvM2rzD7VapPutdHDUB90z3bw+3Xz9UN0x0mn8iKpS+q+6Vs9nwzG45dzdNCR8TCCGdjEMCa6qhqGvc6+Mn4mkjLxmrmRyAABlQAAAAAAAAAAAAAAAAAAAAAAAAAAAAAAAAAAAAAAAAAAAAAAAAAAAAB06pvffgLcdiIi5EOQAAAAAAAAAAAAAAAAAAAAAAAAAAAAAAAAAAAAAAAAAAAAAAAAAAAAAAAAAAAAAAAAAAAAAAAAAAAAAAAAAAAAAAAAEKYNQQdXtS7zVzK0FYQMQu5mO4bXvES48B2EtUedYEk+RylyUyGScPc0NMJJBp6xzimsQ1ozbRMKzXMtELl3s1iV3Z5dRk7yKyrLKWuW840Z8lqZmSJDTiC3NBGyo9idTuEyjXy1q4fR81fpVYmkoGG6lyJUeRTNkSIsG9baXK6+MguTZSWG5RuoLZJrYSsi4nHDVsGNYteMvrs91kxHT7Hnyl/O9lvZBdvtc24s56I7EiRDUXI3TZlynVo70J6kzL6Ykbw4zVRCTpDZaFKRLjofQe5KIjHSbXxp7ZtyG0qI/OQt2JJdTTsE7vvwF3i9jM6TorEnNOaJb3W9mTvvuI00chtaY53lOiziOriwHSyHHDPuXUzHFmtkj/9HlE+3w/pWlxu7iITwIa6RUFeMtUGukBozfwB91drwJ3U7QSeBFgk/Ls0SGZexd6oSS8o1FczpKWTGhRKSSi8o7CgqJjcyKhxtxK0qSSkqSe5KI/KR+UhXjEqAAAIWj/ZRZ/94WG/2jkYmSN9RSIbj/ZRZ/8AeFhv9o5GJkjfUUi9g9QABBC2A7SNXtZJXlayWrg7/cUde7t/3j5RMrBbNJ+AQxpP9PzjV6d39q1BPn5+qpapj/3O38Amhotm0l6hqeQ7gADIAKO3uajH65+4vrWHWwIyeN+VLfSyy0nzqWoySkvWZiLXOkril7uzpJjGSakuK24JVDDSirPfuV7JSVNRFpLvPqnXF7dyT3SRhLwjbXfIcgrsaqMQw+1cqsgzy6YxmvsWkpU5AJxt1+TJbJRGk3GokaU4glEaeNCN9y3IY8+XSKzPcrfK8b03gObkcbH2PZq1IvIZTJbaIzStu9PZHiIz5LMi3VhWoWk1bp2rHtcatvLMpvsCum7qfNs7OVZzn61bD0SciOypRto4Y0p10mWG0EtbKSJPEYuWRPuBaf4lpljMbEcKp2q+ujmpwySZqcfeWe7j7zit1OvLVupbizNSlGZmZmLXqxpRj2rOPJrLNx2ut69Zy6K9iERTqWcSTJEmOs+5RdykH4riDUhZKSoyPJ6K9pcopYOR45aRbKrsmESocyK6TjT7Sy3StCi5GRke+4teoeoOLaW4fZZzmVh2SsrGuNfCk1uvLM9m2WWy5uOuKNKENp3UpSiIuZiDDdA9TbLUDCYcvI2mWbyI5IrLdpkzNtFhEfXGlJRvz4SeZcIt+e2wgLJcDzvGMLl32M4faSnsiySVCyCqajml9bHs847FsSbMiNfVtqMlGXNTLhK5k2khn3Rbqr2BS9pvY3ZrK4mz72xYSviSzLny3Zj7RK8pJckLTv6hsU7BaePiV5h2rjJUnOGnSaCX89c5rGA3Raglk9lMsMoTUPtsP44tp0mYx2BpNp5rhVGQmGlw1JcR1nVJ4TWMbRoJUIwNkk6ULXaHpcl59xVYtT7t+ylHZ3nC4d1zmvGJpaiN5st0oNJchvAqjjH3ERDuiojoLYkkJnhLS0qu8Z1Ac6QDd9atLOyXe1k2nsm8CmzZ0erbjsE/HTeFMbixI6lJkk7GcRxqNxaiQ6paTFy0luLTH8skU91m2steb2W27xY83p+4ujW2/OeW2Zz/AGIUrqlpWlZudsIi39slPItwXaWM4WxpIdFUTB7bctvMGaFs1Ml4Zqk/TZ1idRWW0B7Caqzp8PmrbJCJpWDpSCXG4Vo4iZjk1GI+JsyUTiSUn2xZH0S66ZjXhEVfWtVdDNei9kroWATMPgNPIbMnnGYEyS68S1boJxfA2hakEaeM+JQ2V9iWVEklkR8I4KmjpeJ4iIjITNBZXNKNbaVH5SHccJIkkRF5ByOagAAAAAADqpKVlsotyHYAHgqGws91IIdSgRiPcmy3FSAXHh2Ngz4uAtxwcGOZ7mghUAFxA3So6IelPSkxiPVZ1VOosaziVW20JZNTIhq70pUZGSkHy3QojT5diMiMvn+78x2brr3im6t2UqqJzfs7VKhp80ebrjeUnf19X/APryPJcVhZ7qbIxumqI5xdLNXujv0WsT0coY+NYjSHBgtr615xxXG/JdPvcdWfNSj/AICIuRERFsJW6RLSK3o1apcBERM4ReK+KA8L1qxnEjTjDHbWip2rS+nyY9TRVzjhtImWUlwm2G1rIjNDZKVxuL2PhbQ4rY9thidX0Z8LvYqLHXZpnVPIn/pkt/IWCkVrSz59XEr17x47SdzJOyDcMiI3HHFbqFrxJrIizPsWbJqNGZ7urYbT8SSIZIIQyPo/JwOCvJ+jO2ziF9XEbyMeYeUzQXKUkZnEei82oxq7kyGEoWhRpNXWII21Z7pbqVU6n4fV5bVIeZasoyH+ofTwusLMvHacT5FoUSkqLyGkyGZ11VmQAAyAAAAAAAAAAAAAAAAAAAAAAAAAAAAAAAAAAAAAAAAAAAAAAAAAAAAAAAAAAAAAAAAAAAAAAAAAAAAAAAAAAAAAAAAAAAAAAAAAAAAAAAAAAAAAAAAAAAAAAAAAAAAAAAAAAAAAAACBLrUHXeyzXPo+EXGCR6jCJseKzV2dBMdlWZnCZlLSc5uchEc1daaCV2Zzg5KNK/ahEXE9gIdk9JOri0tJkiNOMyn0tnXQrObaxI0YolSzKNJN9cp59tbxluZqTGQ8pBFuok8SeKlxzpA5POrchk2GjeWTZ1flU2hra+qRAU7MYZMzJ9Ti5vZ2SJKT4lPus8R7JQk1GSTtpLpsAY9gub1Wf4vX5VVRpcVmwbNfZpiEofYWlRpW24SVKTxJUlST4VKTuXIzLYxkIgDCNUNKsW1ProrN/BWcusf7XWz4r7kabXyOE09dHkNGl1lexmXEhRGZGZHuRmR5uAsTYa02+kWs5kqqc6Quo8qpPdHZEv18dZJ83a2IiJm/vuv4vWLJR9E+TiTjl1pdkEjEbRZm6tt0nJ9dLe3MzckxXHC41qMzNbra23V7+Ms9i22vNtCuZpIw4E7bcJbDrGLNMWiEsg6u19s9PEpq+kBhp4my34hZPXOKm484XPxnX+EnYPIt1dpQhpJmSUvOHzE011nX28Jixq5rEuLJbS6y+w4S23EKLclJUXIyMuZGQp7WLDTDeffbJSENqUpPnIi7hA0rSmBjEx++0LySTp5ZPOKfegx2ylUM1wzMzORWnwoSalHxKcjKYdUftnDLkMWirk7YeBiYsXoi7YseE6HFsYb8CbHbfjyG1NOtOJJSFoUWxpMj5GRkZkZDC8aza+Ojh+FsOuTcE3tLKvfWqMayMy3bNaSUSTLY9j5lvtue253Pw2a/Uxf9Z/wEyy6+ZY/1UddHuVLxWJb6MXEl12dp7LKsiuPKNS5NOtPWVr5me5q+kbMKWZ7qdivGJsI9y3IQ7eVipmqtFqZTSGoi2K2TTXbClGZzoijJ2MZGRclsvEvh35cEl/ymQzlGZtISSez77fbP+As0zKeZY/1WVAMX8Nmv1MX/AFn/AADw2a/Uxf8AWf8AATLK+ZY/1UfR/sos/wDvCw3+0cjEyRvqKREsaB1erWR6jvSGzj3mO0dI3GSrx21wJNm8pZntsZKKxQRF3kbat+8hmreZMtpJBR9yL7Z/wDLJ5lj/AFWVAMX8Nmv1MX/Wf8A8Nmv1MX/Wf8AyyeZY/wBVHeh/05edTz/8rz+9Pfz9U+Uf/wBxt/AJqR7QvgEQ6a13gPUWMGfIblvzsjvLvjaUaUkidZSJTbZkZd6G3kIM+4zSZlyGcFmrRFt2Yv8ArP8AgLNMz2J5lj/VXDLMwxbBKORkuZZBBpquKRdbKmPJaQRn3JIz9soz5Ekt1KPYiIz5CLl5xqvqqaTwOve0/wATWZH4QXcHe4nt9+8OvcLaMk+7rJaePnyj8yWL/cQsIv8AJ67M7nGIs65p2lNV0qSs3excR7qWyhRGhtw+43EkSzT4vFtyF0LIIRKN1xpSzLzul+IIpntXzPH+qw6r6P2nKbJi+v6eZmt1HX1rNpl0xy2eYc2242EPmbMU9vIw22XM+XM95Obq33duucPYvIXIh0o8hrLVbjUJaVdUs0Ht5yPYXwSZmHiqJmsjtfpSMxUqYaNBo4S2MegCXEDX3R/nY5OmWejmeZNp+c99cqTEonY64Lj61Gpx0octl+Mha1GZqUhtKlHzUZnzGLRtAMgu8ghZBqDlN/mVpWrNyFKvZCFohrMjSbjEZlDcZlw0mZG4hpKzIzLfbkNoTIj5GW44Jtsj3JBDpTi5dbapZjWHYmxj0RKCSXHtzMZOADnNU1TeVAABAAAAAAAAAAAAAAAAAAAAAAAAAAAAAABEmvzrdRYaW5lPUSajG88jP2a1ckNtS4E6uacWfcSUyZ8dRqPkkk7nttuJbFryfG6TMMescWySsj2NVbRnIc2JIQS2n2XEmlaFJPvIyMyEHtp6Qui8RNBi71JqLj0XxK9vJrCRX2cVnfxWnJzLMgpKUFsSVLYJwyLx1uK3UNRTNXIT/KlRoUZ2bNkNR48dCnXXXVkhDaElupSlHyIiIjMzPuGtPRMsXplBItWEONwb+6usggtrSaTRDn2cmXHTwnzLZl9stvJtsLJmidbddIxYxqIiox/FX1F2/HqB16SdmnysS5rqG1Ljny4mm2W+PY0rUpBqQc66a4Z7AxErcbJCuEiIiLYiLzDrFHDpmaucs3vOiQC7iHIAODQAAAAAAAAAAAAAAAAAAAAAAAAAAAAAAAAAAAAAAAAAAAAAAAAAAAAAAAAAAAAAAAAAAAAAAAAAAAAAAAAAAAAAAAAAAAAAAAAAAAAAAAAAAAAAAAAAAAAAAAAAAAAAAAAAAAAACBMv0f1STl2X2eIapUVRR5tKZkWEZ7FXZVjG4YrUZfZpXbUMoUaGd0m5GcJKj3NKyLhE9jqttC/bpIxYm0jVTP8AoiU+X2cSTAex5qsraiBV1qbTGUWc+pOGrdlUGW48XZkq8XrCJs1L23JaD2MqrKejbc5bFlQrO9xmyr3MmfyBqrvsVOygLQ+3wuMyY6pSEvrSs1Lad8QkHtuhZkZns/1DW23AQdnZ9AviG+IlkE483E6MujrMFbL9yxREUGqgwYrcZ6wkyJJoiQ2WiMm0rW4620W3Cgt99kJLYrxV6OZtm8RFzrfqXknshJ+mHRYheS6OsrSPmllD0RbUuSpJHsp1x3ZZlultsj4S99dENRcg0hsJaSKqjahRysDM/F3drbCPE4v/AL89C299wiWxmqbqhHI8C1M0jgLyzR/K8ky2FXkb0/Dcisl2bk+OkjNSYM2QZyGpW25oJ51xpZkSDJvi6xMl4JnVBqFjNbleNzUyq+1itTIrpcuJtxJKSZkfMj2PmR8yGRjSno/SNaJsGykae6jYdV4vPyC8m0bE7EZNg6ites5LkX6cixZSpJsrbNOzaSJJpLntxHaac0Sk6N1gELFV9JNft9a8LT+9afPl/rWig9gekQv6prpQp/esGIv9aYoZtKpRy93qMYtH99urhvr+JtRiCvCY/dflFTm2O67MYhdSZ2u0V5lmukuONJxBhsnEpaUZp364zLci23LnzEO+Ev2z5R5ezYea77jolsHnmFizblMJZ8Jj91+UPCY/dflETeEv2z5Q8JftnyjyuC+v6j9yWfCY/dflDwmP3X5RE3hL9s+UPCX7Z8ocE6j9yWfCY/dflDwmP3X5RE3hL9s+UPCX7Z8ocE6j9yWfCY/dflDwmP3X5RE3hL9s+UPCX7Z8ocE6j9yWfCY/dflDwmP3X5RE3hL9s+UPCX7Z8ocE6j9yWfCY/dflDwmP3X5RE3hL9s+UPCX7Z8ocE6j9yWfCY/dflHVzJtm1H1v6U/KIo8Jftnyjwm5YzGhPyZElDTTTSlrWtRJSlJFuZmZ8iIi8olWDozVuSIpmbJ90PkuuPzzWsz3kunzP35ibkHukhrloPmuHKKS54WU3jvOKL/L2uZGo+fthPkXIselJLs17Xu7+hKQr+ox6/G9Z/GKeS5gPPtMfg6zr2+D0uItvjFM7d0zH1a3hN/dSEF/WY5NK0BZ3cyxBj6tlVO391OaL/wAQo3dStOWPq2fY4391aMF/WoBX5PleM4TSSckzDIK+lqohEb8yfIQwy3vyIjUoyLcz5EXeZ8iEdq6UmjbSe0zLHJoNeXM7adhl1FqyT6XbnYqY3D77rNvWLRp3V0+tuoNtrXevM3NPjNvKosHimpLsOIqIo2JlmgvaqkuSEvtJc58DTKSQZdY5xTgAo6q4qb2vj21JZRZ8GW2l6PJjPJdaebUW6VIWkzJSTLuMj2FYNfLWrh9HzV+lViaSgYbqXIlR5FM2RIiwb1tpcrr4yC5NlJYblG6gtkmthKyLiccNV1yvOtYrnVGbg2m2S4XRwazHIVw49eY3LtXJD0h+Q2SEmzPik2kijkfMlmfEfdsNZdLwJuAQfB6TkYsbqZUvT6/tsgktTnLOox8476oDcJ42JcnjkOsE4yl0iJJI4nlkouFozJXDklNrxRZLlLVHjOJZLbVKkxyfySKzGOujOvx0yGmnEqeKURm040o1pYNpPWJJSyMlEmZZS6TAEPzOktj8Gos8lf09zU6KKlpyttW4kVca6QuQiORxTTINSPHcQZJkpYUtJmpslkRmXdvX1Ec7Nqbh9+9ct2ESug4wyxCRZKkuwUy1RzeOaqI4pCOsUpw3W2y4DSRrPZS1pVLoCJsl6Q0TGa+FcSdJ9QX65UVuZby018ZhujaU51Z9p7RIbN1STJalJilIMko4tjJbZrqJnSCxeFnC8RdxvIjr2bGPSyMkJhgqpizfQlbUNRm6Ug1qJxouNLJskpxKTcJW6SWkSiA1Z0g6Sl/n93AatNftGH5j0iYUjCKuqX7PISyt1PUk4q3Vs6SUEpRnG27/ABU95Sh9EjgBUUK/Ji1djzaJm9QhphCnEJeeQxHjKTx/XDryzbQkt08Ta91ERbmyyXSsAwzTvU6DqDHsULxu7xu1pphwbKouUMFKiumhLiN1R3XmHErbWhaVNurLZWxmSiUkszEAAAAAAAAAAAAABSW1pAo6qZdWj/UQq+O5Kku8Jq4Gm0mpatkkZnsRGexEZjGqvUvTrKafFbyoyGPPr82IjopDTTikTCNhb5beL4n0ttavH4fa7d/IVepsSVP02yuDBjOyJMijnNMstINa3FqYWSUpSXMzMzIiIuZmY1pZwvOMLzPTuooMenHjL7zt1xoY2bo7BVS+0+06giI20OuOpcIz7nTeIzLiSQ1TTdJmza1qpr0K40Mo3+AhWJJKS2TsRDQaBhFlLwW9psU09yWks38Dm1ecP+xUmC7d3q1tdW8h00kc98jTKUUppThEl1JdZzIizSw0bo6PLbW6xPTBqC7W5bjc6nkQq1SezEtbBWD8bhLZs3E8ZSHEbGst+tNRFy3kme1Mzby2tYFHVzLq0kdRCr47kqS7wmrgabSalq2SRmexEZ7ERmKVnJ6eVSwMghuyZUGzTHXFcjw3nVLQ/wAPVrNCUGtKfHI1KUREgtzUaSIzLRaiw/Poeb5TKsK1w8idjZGVxJhafTYsi1YfbdKI1JunJhx7FBJUx1LbLK1t8CUcLPCohK1ZmzefaWYpitJjOaNWVDPxVc1iyw+2rSbSzNjdaaVyozaHCQSFKVwGrhSk1HsXMZyLdstkWR02J0Nhk2QTey1tXHXKlv8AVqX1bSC3UrhQRqPYi7iIzFe2626hK21kaVESiP1GNFLXAoltA1bpIOlhWarShsky5M7BZdfZvyTd6xpqVKWpca+cNZGpp1hP0kmiIjM3S363FFNnay0uQ45pdEq/YS4ojgSz0/slWTdSTbKTNi2cdQxBjkTjjS4DbPEkidUtCeNa03hl9bN8AFuppi5cclrFxHOdFAAAAAAAAAAAAAAAAAAAAAAAAAAAAAAAAAAAAAAAAAAAAAAAAAAAAAAAAAAAAAAAAAAAAAAAAAAAAAAAAAAAAAAAAAAAAAAAAAAAAAAAAAAAAAAAAAAAAAAAAAAAAAAAAWm8yugxuXTwbqf2Z++nextenqlr66T1TjvBukjJPiNOHurYvF233MiPtCyWksbqyx6HOJywp0sLms9WsuqJ5KlN+MZcKtySr2pnttz2AXQBxuXnDcvOAsGf4TRajYfaYVkkdx2utWDZd6p1TTrZ7kaHG3EmSm3EKJK0LSZGlSUqIyMiEQxdS9btJIqcfz7AJmpMaJ9Li3+PSYcWfKaI9knKiS3WWUukW3E409wrPdRNt+1E/ClmVsSck0vspUR+chqJjtGreoGpWrutlW7hVTiUzTvG7FJs20mTOaeu5cZRGS4zJRVLZicRclPE84vhNRIJCtnClrSLAmMcrY7DUJuMww0hlhlCeFDbaSIkpSXkIiIiL4BnTGKVDDnWIiNkf3Iu7TTbKeBtJEReYdJxIinLRCW1vLqUdkv0hDns7PoEPQBxVgeuMtil0azq3U0o0wsbs5BkjvMkRXFbF6+Q+b0HV3Hp2xdvOOo/0r6TR8vd8o+i/SQ+x81M+9C4/wBjdHxtHud04cYkV393839+8je6cDeOx7XOLe8VU2t8JbKtZay+gnGJLbiT/TIWRl8g7+E/2wvjGtTT7zCuNh5bavOhRkfyC5MZTfx+SLJ1ReZzZf8AXzHtZ2aOx/XK+i1MepVE/H+5bB+E/wBsL4w8J/thfGIKazq4SWzqWl+vYyP+sVKM+kbfTIqiP1Of8BPN5eNPRquOyG0NjjSaSDVy7/P8crnbetZtY0V1E5bpsOkZo3NuMpBHyMtuLyebmLA4zlTTkll3HbVDkNtt6ShUNwjZbXtwLWW3ipVuWxnyPcth3yXWTE8ixvEo9Lqfglf7H4pBrZ8W6xV+VMbltpV1iUv+xz3ilxERGl3bfcy233O8ROlfpzCxTB7B03Zd8curYyeMcJRLTEr1rNpZLMuBalGpCyIjPY0bHsZlt4cU4sRfLf8Av4Pi6dl3th4cVRs1VdUzMWy1RbnMfqUxaYidb1RfLF4vrb3aLUFiexVP4TkDc2S2p5iMusfJ11tO3EtKDTupJbluZFsW4utdgOos+FezHcdnwFY/FRLlR5kN9p5aFGe3Ang5nsRq57ciM/IL030n9L6aW/Hi51TLivHeTY6qumtyNl+Qgya6x2WtSuscNRGpDbRNpURnx7d9noukfpS3ikKsn5YSZUfDq+CtD0GUpKpceX1qo26Wz5mgiIle05kXEQz/ALaY0o+UvFq67roiqjY6o1p/Urv6030mNNI9/O97Wvjtw1lWPRo0y/x21rI8wt47syG4yh4tt/EUsiJXIyPkLT4T/bC+MX3WbX7TmyxHLIeNZe7kczLcjYt4sdMKQz7GMoZSRk6p9CS6wzLq9mzWnhQR789hrqvPpXc1FP4VOf8AAeTg4VWJTeqLPp9y7q2veOzcXaMGcOq/KYmnsieVVp0mZj32vGkpt8J/thfGHhP9sL4xBD2c3S+TRtNl5+EzP5RQyMlvZO5OWbxEfkQfB/VsOsbO93R0YmfWmIbASMxjREdZKmNMp87iySXyjGsh1exliulsOuqnpUy4lbTbXGlaTSe5HxbJMj7vKITcccdUa3VqWo/Ko9zFNP8ArGR+9L/qMWrZ6Ypm7yfovstNEziTM6fDxfTLRfSTTa/gLcn6cYtLStRmRSaeO5sW/d4yDEoPdGjQyUX+U6Hadvb9/WYvBV/W0LP0eCIqbcTon2pD5jHm1cw/D9PJDR9Fbo9GlKFdHzTE0pUa0keIQNiUZERmX0nvPhTv8BeYerXRi0GZP6ToNps3t3cGKQS/qaEwgON2kVNdHfRtj6jo1gaPucbhl/U2KtrQ3S9n6jpbhzf3FFFL+pAkoAuIR0HlVmnOS5ToBObarpUS2sMnx1gkE21OqbCSuU6bHIiM2Jb8hpbaeaE9Qo9icRvNwwjU/SnFtT66KxfwVnLrH+11s+K+5Gm18jhNPXR5DRpdZXsZlxIURmRmR7kZkcQW+kWs5kqqc6Quo8qpPdHZEv18dZJ83a2IiJm/vuv4vWNRTm5Sl7PDXjLq7PdZMR0+x58pfzvpb2QXb7XNuLOeiOxIkQ1FyN02Zcp1aO9CepMy+mJF/u9MtUXsoVqFp3qDjlI7Po4tPLi3OLv2nJh19xDja2p8bgPeQojJSVl4pd3MVeluhNThcZqFXVbUKK24t420bma3VqNS3FqPdS1qUZqUtRmpRmZmZmYmxmK00ylkklskth0rmmiIphIvzauZt0RKDKKfHI1c3i9hNoo0uK9JzHEo9+3I7U718iQhlS2ksyVPbrJad2yJSkm0ouHhvMTo/TWc7pMqcs8fVBoIzEaGpGLMx7lltpvg7M3YMLbQiGo91KjlH2M1KIlEnZKdjSYaItiQXMOoa9AhjOtmu8LQvNY+Pt4NM1IjnidYuGVJXx6BLTzLceW1IIpT5vK69RJaJtBtJYSRKUakuHttc8k0SvJ15OzPGcpi12QHds3da7Nqjlxo60wOxLbeaS80t5KmzWfiuNGSjTzMiMlTqbDR/pC5Dnqm9tuAg4kloaqai9Faz1Ksm7jLMsobud7EtQlzLjD2ZkuDJbdcdS/WudclMFKlOJStJIcWpLTf00ll1gyR7Q7JJGVSJiszbRiU67i5LMpSqdpbllHS3wcMwnSJMc1MMuKbNlSzUlX00kq4S2G7Oz6BB1DW23AQcQmLteNONMtZ9P11tC5qRiM/FoL7yii+B8pqetlbi3ODtPskpslka9uPqNj29qW46SOjBVzMbzjF7S5Vaw8wnolRW5lc04zWx23u0MwzbPxZDCZC31mlftkvKRySRbbFdnZ9AhyTTZdyCDOWQhoZo0rSCFPrm4+KMO2U3tj7WL4qxQ16NkJQlKI7anFmeydzU664ozM9jSnhQmcGyMkJI+/YcEy2R8RILcdxiZuoAAIAAAAAAAAAAODLctjFI7Wsu78REe/qFYAC2HRxzMtiLkPUqlgi2JJCuAW8i2O0cZwyM0lyHBUbKVcST2F0ALyLYqlYUZGZFyHVyhjOd5ELqAXkU8SI3ERwIFQACAAAAAAAAAAAAAAAAAAAAAAAAAAAAAAAAAAAAAAAAAAAAAAAAAAAAAAAAAAAAAAAAAAAAAAAAAAAAAAAAAAAAAAAAAAAAAAAAAAAAAAAAAAAAAAAAAAAAAAAAAAAAAAAIa6R2K5Jlj2nMTGrO9qHYuWlJftqeKw+/XtFXzC60ykMvMpSalJQZuNqL6YRFsoyMQ7leEZnWws/hZJMzDP6qXY45ItHZ1ZGXJs6plwzmRUMwI8dElBN8XEyhta3EqU2ZLNRJG4jraXUGhXcYpjrWDRwbFy9Q3TVEJLT7A9PYNxmePS3tM3mcErbK7s8Xp7SmVHZrG+CB2f/ACV5sjh/5Q3IeZaWlCkclJSjhIixXTHJPnX6kHqrluHsYpAlVllCuOxYJaV85+yclRjjxJMyQ867eyVGpSWnmm+FxRr6sz4uFO8hUkfj4zIhFrlPByrpQIg2rCH42neJw7yuZcLdJWFrJmxu0kXujTFc82lXkKW55xrPBEKiNn/SGuWE2OO6BUsSAtJLQ3lGZ+x9gtJ9x9niw5baTMv0q3kmXcoknuRXTDtaod1k6tPs0xiywzL0x1S26uyU243OjpMiU9DktGbUlCTNPERGTiOJPWIRxJ3kkQ50sqyKjRK/1CbbSi404jO5lUSiIidYfgtqdcQg/ITzBPMKLyoeUXlHOOeqpiSolFuk9yMciCcT6VGCza5BvY5qY64Rc+q01yFZfGULYX36JbCj+p4Tqmv/AP1zeJ/1opBMWmwlkBEv0SWLn9T081TX/wDgO0T/AKzJDg+kdSn9T0t1TX/+Dpaf9ZJCC69JD7HzUz70Lj/Y3R8bR9Qde9e4VtofqDWNaV6lR+14vasdfJxxxplriiuFxrUavFSW+5ntyIjHy+Hvdzcq/wBn836Q8hcx5ntkf81H8JAAB7t/eAAAAAAAAAAAAAAAAAB4T/rGR+9L/qMe4prFRIr5SzI9ksrM9iMz9qfkLmYxiepPwc8abYdUz3S+tvR5/wDiUTmn2pDUTQvpAYHVVPVy6TUVR/8Ao+m+RPl8bcFRCYk9JzTbhL/4P6p/zU5T+bx8hj61y/z5p5JaARN9E5pr+x/VP+ajKfzeH0Tmmv7H9U/5qMp/N44tJZARN9E5pr+x/VP+ajKfzeH0Tmmv7H9U/wCajKfzeAzfO8+xvTmjK9ySQ8SXn0Q4cWKwp+XPlL36uNHZQRrddVseyUl3EpR7JSoywYs46Q9oj2SqOj9j8SAouNEe+zfstmafIRsRoUmOlXq7TsXnFuwS2r9VNerrM1Mz+wYfj1dDoYtlXSIL0Z+eb7sySuPJQh1txbbUVouJCVJSh0u5xRCbAEf4Jq7W5TbycPvsds8Sy2CyUmRR2pN9auPxcPaY7ralNSWOLYuNtR8JmRLJCjJIz8jIy3I+QhjpVwk1+nsLUyvMmLzBbmBZwZKeSjYcktMTI5mXM0OxnXU8Pdxk0rYzQkWvX3LLZegU2wpn7tMt6yp4xopbFUGc8h2xjtuMsyEutG0txClIJXWoIuLmpJbmWst4vAnwBrNRXGV4Lg+RXWF6b6l0VmT0ZBozfIZWYLQzx7OSWYjFrMddJtBqUbDK2nHDIiLfkKVrV3UKXluGZRIz3GlVTGLZHKt4/sXYVcaS9Gejkhb7ch43IC0kpPE26084zs8ndfERkySl20YDU/GelPqJOhZDXyEVVnaIOjbp5j+FXWOsMuWUtcYuujT1m9JbaNJOda2ptLhbp+lmRmVRQaka01dze4SjJ8fmZTc5uuvZtZ0CY/VQIzVRHkLNmD2knEks0q4WO0kSFOqVxucJktkkvDagBqRf5fnerLNNezKfIrutgQ5lfcY9gWbrobKNaNS3o/b0GUmL2iK52dwkodkp4NuTbquI0VlZrdl9bChxaW7RfWs+ipIMG2uI0htHbJVi/FN6XDaeJriaJG6yb6tTikGnrEpNPBckl4bVgNYJGsuoMW3rCzK6oWZONZLbV8x6AqRW1k5hmkVIQ5IStx5TaONXEZGbnBsW3GaeJWQ6Ba8ZVqBkd/juVyIsxMCFAsIktrDbbGj4ZCnkqZNizUpx8k9SRk+jhQriMuFJpMSaJgvEp+AdUKJaSUXlHYZUAAAAAAAAAAAAAAAAAAAAAAAAAAAAAAAAAAAAAAAAAAAAAAAAAAAAAAAAAAAAAAAAAAAAAAAAAAAAAAAAAAAAAAAAAAAAAAAAAAAAAAAAAAAAAAAAAAAAAAAAAAAAAAAAAAAAAAAAAAAAAAAAAAAAAAAAAAAAAAAAEOatezWm+eVWutJRzLmtZrlUOWwILKnpZ1vWdcxMYaSRqeXGdN3dpO6lNSXjQSlpShUxjzeZQ+2bbhbkYsCxYpqFguc0hZHh2X1FxWcPEqTDmIcQ35yXsfiKLuNKtjIyMjIjIa/a/axUWrEdzQ7S+czexJ77SMtuoaycgwoKFkpyEh5O6HpLxo6pTaTPqm1uKWaVdWlebZ90V9IM6uDv77TbFbKx4uLtc2mjvvb+fjWg1fKL5jGjVRREyyxGaaYYIktMtNkhCCLuIklyIvgHWiKInNMpN1RptjrzdSlbxqSai7hmhUqPKtX8YVsOI1DZSy0kiIi25D3GK65qm5EWha/YVv0z+MPYVHpn8YugDOaVRT0iqltrQHUlwjPxcRtz7/8A0N0fH0fcu6qoN5UzKa0hR5kKcwuNJjSG0uNPNLSaVoWhRGSkmRmRkZbGRmQ1lyzoeaeT7FyRWYDjUVtR7k2zUR0JL+AkD2OwbZGzZomL3f0/oB5QMDoXgY2Di4E4nEmJ0mItaJjtie98zgH0S+gxw/8AYfQ/gxn/AHQ+gxxD9h1D+DGf90ex60p7vn/R/QPTrsfsVf3o8HztAfRL6DHEP2HUP4MZ/wB0PoMcQ/YdQ/gxn/dDrSnu+f8AQ9Oux+xV/ejwfO0B9EvoMcQ/YdQ/gxn/AHQ+gxxD9h1D+DGf90OtKe75/wBD067H7FX96PB87QH0S+gxxD9h1D+DGf8AdD6DHEP2HUP4MZ/3Q60p7vn/AEPTrsfsVf3o8HztAfRL6DHEP2HUP4MZ/wB0PoMcQ/YdQ/gxn/dDrSnu+f8AQ9Oux+xV/ejwfO0B9EvoMcQ/YdQ/gxn/AHQ+gxxD9h1D+DGf90OtKe75/wBD067H7FX96PB87R4T/rGR+9L/AKjH0Z+gxxD9h1D+DGf90cp6GWHkojPDqHb/APxjP+6M1bzpqiYt8/6M1+XTY6qZp8zr1/5o8EjaAwCfp9zWZCaU0qTIj6xXxjENNcJXiUIoqj37hIie4h6TFrvVeH5wp0ha/YRPuiv4wewifdFfxhdQHK8tLV7CJ90V/GD2ET7or+MLqAXkQrmSJ+jmpKtYmoM2wxe7q49NlbUNlT78AozjrkSxQ0kjU42jtEht5KCNfAtpZEZNKISbQZ5hGV0CcqxnL6a1plo6wp8Oc07H4dt9zcSo0l/CYvEiO3JaNpxJGRltzEJ5n0UNHMsvF5JZ6ZYpMs1r6w5kmljOvmrz9YpBq39e41ERVzlGFa2aq0euD0HS7TSwauMei2sWwyS8iq44ThxH0vM18d0vFecU+00p1SDNCG21tqM1ObJlWJptRZzp67iGYQ5L9dLNl1aI81+G8lxpxLja0PMLQ62pK0JUSkKIyMi5ioxnSOrpVNbMoJDJElDaUklKUl3EReQhIkeO3GaJptJERFtyG6qqaactJEdsodhdHbCoUCxp3H8xnRrFTK1rsM3u5j7C2lGptyM8/LW7FcIz9uypCj5EZmREKtegWAvw6+ukUkl9irjTIjXX2ct1b7UpO0lMlanTVK6zkpRvm4ZqIlb8REYlvYvMGxeYYzzBMRKE4HRr08roFhVNU9jJatYbUCY/Pu582W6y0ta2S7S+8t4jbU4o21EslI5cJpJJbei+jXpw5Qrxo6ayQwuem17Y3e2CLEpqWktdoTPS8UpLqm08C1k6SlkpZKNXGreaNi8wbF5gzyWQ9Y9HjAbWrrakqy0qWKaP2SI5RXthUSOo33Npb8N5p11BqM1GlxSiNRmoy4j3FJl3R+pLbEJ+PYlXU9JIkVsapjuyI0p6PHjsOm61wtx5MdxC0LUpaXW3m3ErMlcW6SE2bF5g2LzBnktDX7B+jtRU2O+DuXIayOU9LlzpclSX2mXXpMfsz2yHX3XFJUyZpPrnXVmalKUs1HuMpwjQ/FNPp7k/GolgUqRHaiPy7C3mWMl1lta1NoW9KdccUSDcWSd1HwkfCWxERFKxMtpVxEgtx22LzC8SSIiHRhBttJSfeQ9AAc1AAAAAAAAAAAAAAAAAAAAAAAAAAAAAAAAAAAAAAAAAAAAAAAAAAAAAAAAAAAAAAAAAAAAAAAAAAAAAAAAAAAAAAAAAAAAAAAAAAAAAAAAAAAAAAAAAAAAAAAAAAAAAAAAAAAAAAAAAAAAAAAAAAAAAAAAAAAAAAAAAAAAAAAAAAAAAAdFtIX7YiHcAHj2Zn0C+IOys+gXxD2AB49lZ9AviDsrPoF8Q9gAePZWfQL4g7Kz6BfEPYAHj2Vn0C+IOys+gXxD2AB49lZ9AviDsrPoF8Q9gAePZWfQL4g7Kz6BfEPYAHj2Vn0C+IOys+gXxD2AB0S0hHcQ7gAAAAAAAAAAAAAAAAAAAAAAAAAAAAAAAAAAAAAAAAAAAAAAAAAAAAAAAAAAAAAAAAAAAAAAAAAAAAAAAAAAAAAAAAAAAAAAAAAAAAAAAAAAAAAAAAAAAAAAAAAAAAAAAAAAAAAAAAAAAAAAAAAAAAAAAAAAAAAAAAAD/2Q==;" vertex="1" parent="1">
          <mxGeometry x="40" y="20" width="1107" height="699" as="geometry" />
        </mxCell>
        <mxCell id="WSG69TyrN-b5efc3GzdJ-4" value="" style="ellipse;whiteSpace=wrap;html=1;aspect=fixed;shadow=1;" vertex="1" parent="1">
          <mxGeometry x="850" y="595" width="20" height="20" as="geometry" />
        </mxCell>
        <mxCell id="WSG69TyrN-b5efc3GzdJ-5" value="" style="endArrow=none;html=1;rounded=0;shadow=1;" edge="1" parent="1">
          <mxGeometry width="50" height="50" relative="1" as="geometry">
            <mxPoint x="847" y="605" as="sourcePoint" />
            <mxPoint x="827" y="550" as="targetPoint" />
            <Array as="points">
              <mxPoint x="827" y="605" />
              <mxPoint x="827" y="585" />
            </Array>
          </mxGeometry>
        </mxCell>
        <mxCell id="WSG69TyrN-b5efc3GzdJ-6" value="IdUsuario" style="text;html=1;align=center;verticalAlign=middle;whiteSpace=wrap;rounded=0;shadow=1;fontFamily=Helvetica;fontSize=12;fontColor=default;labelBackgroundColor=default;glass=1;" vertex="1" parent="1">
          <mxGeometry x="880" y="590" width="60" height="30" as="geometry" />
        </mxCell>
        <mxCell id="WSG69TyrN-b5efc3GzdJ-7" value="" style="ellipse;whiteSpace=wrap;html=1;aspect=fixed;rounded=0;strokeColor=default;align=center;verticalAlign=middle;fontFamily=Helvetica;fontSize=11;fontColor=default;labelBackgroundColor=default;shadow=1;" vertex="1" parent="1">
          <mxGeometry x="850" y="620" width="20" height="20" as="geometry" />
        </mxCell>
        <mxCell id="WSG69TyrN-b5efc3GzdJ-8" value="" style="endArrow=none;html=1;rounded=0;strokeColor=default;align=center;verticalAlign=middle;fontFamily=Helvetica;fontSize=11;fontColor=default;labelBackgroundColor=default;shadow=1;" edge="1" parent="1">
          <mxGeometry width="50" height="50" relative="1" as="geometry">
            <mxPoint x="830" y="627.5" as="sourcePoint" />
            <mxPoint x="810" y="582.5" as="targetPoint" />
            <Array as="points">
              <mxPoint x="850" y="627.5" />
              <mxPoint x="830" y="627.5" />
              <mxPoint x="810" y="627.5" />
              <mxPoint x="810" y="542.5" />
            </Array>
          </mxGeometry>
        </mxCell>
        <mxCell id="WSG69TyrN-b5efc3GzdJ-9" value="IdLista" style="text;html=1;align=center;verticalAlign=middle;whiteSpace=wrap;rounded=0;shadow=1;fontFamily=Helvetica;fontSize=12;fontColor=default;labelBackgroundColor=default;glass=1;" vertex="1" parent="1">
          <mxGeometry x="870" y="615" width="60" height="30" as="geometry" />
        </mxCell>
        <mxCell id="WSG69TyrN-b5efc3GzdJ-10" value="" style="endArrow=none;html=1;rounded=0;strokeColor=default;align=center;verticalAlign=middle;fontFamily=Helvetica;fontSize=11;fontColor=default;labelBackgroundColor=default;shadow=1;" edge="1" parent="1" source="WSG69TyrN-b5efc3GzdJ-11">
          <mxGeometry width="50" height="50" relative="1" as="geometry">
            <mxPoint x="520" y="390" as="sourcePoint" />
            <mxPoint x="530" y="390" as="targetPoint" />
            <Array as="points">
              <mxPoint x="480" y="390" />
            </Array>
          </mxGeometry>
        </mxCell>
        <mxCell id="WSG69TyrN-b5efc3GzdJ-13" value="" style="ellipse;whiteSpace=wrap;html=1;aspect=fixed;shadow=1;" vertex="1" parent="1">
          <mxGeometry x="540" y="340" width="20" height="20" as="geometry" />
        </mxCell>
        <mxCell id="WSG69TyrN-b5efc3GzdJ-14" value="IdLista" style="text;html=1;align=center;verticalAlign=middle;whiteSpace=wrap;rounded=0;shadow=1;fontFamily=Helvetica;fontSize=12;fontColor=default;labelBackgroundColor=default;" vertex="1" parent="1">
          <mxGeometry x="560" y="375" width="60" height="30" as="geometry" />
        </mxCell>
        <mxCell id="WSG69TyrN-b5efc3GzdJ-16" value="" style="endArrow=none;html=1;rounded=0;shadow=1;" edge="1" parent="1">
          <mxGeometry width="50" height="50" relative="1" as="geometry">
            <mxPoint x="160" y="160" as="sourcePoint" />
            <mxPoint x="130" y="180" as="targetPoint" />
            <Array as="points">
              <mxPoint x="150" y="160" />
              <mxPoint x="130" y="160" />
              <mxPoint x="130" y="180" />
            </Array>
          </mxGeometry>
        </mxCell>
        <mxCell id="WSG69TyrN-b5efc3GzdJ-17" value="" style="ellipse;whiteSpace=wrap;html=1;aspect=fixed;shadow=1;" vertex="1" parent="1">
          <mxGeometry x="160" y="150" width="20" height="20" as="geometry" />
        </mxCell>
        <mxCell id="WSG69TyrN-b5efc3GzdJ-18" value="IdGenero" style="text;html=1;align=center;verticalAlign=middle;whiteSpace=wrap;rounded=0;shadow=1;fontFamily=Helvetica;fontSize=12;fontColor=default;labelBackgroundColor=default;glass=1;" vertex="1" parent="1">
          <mxGeometry x="180" y="145" width="60" height="30" as="geometry" />
        </mxCell>
        <mxCell id="WSG69TyrN-b5efc3GzdJ-20" value="" style="endArrow=none;html=1;rounded=0;shadow=1;" edge="1" parent="1">
          <mxGeometry width="50" height="50" relative="1" as="geometry">
            <mxPoint x="560" y="195" as="sourcePoint" />
            <mxPoint x="560" y="195" as="targetPoint" />
            <Array as="points">
              <mxPoint x="520" y="195" />
            </Array>
          </mxGeometry>
        </mxCell>
        <mxCell id="WSG69TyrN-b5efc3GzdJ-24" value="" style="endArrow=none;html=1;rounded=0;shadow=1;" edge="1" parent="1" target="WSG69TyrN-b5efc3GzdJ-23">
          <mxGeometry width="50" height="50" relative="1" as="geometry">
            <mxPoint x="560" y="155" as="sourcePoint" />
            <mxPoint x="560" y="195" as="targetPoint" />
            <Array as="points">
              <mxPoint x="560" y="155" />
              <mxPoint x="560" y="145" />
              <mxPoint x="560" y="175" />
              <mxPoint x="560" y="195" />
            </Array>
          </mxGeometry>
        </mxCell>
        <mxCell id="WSG69TyrN-b5efc3GzdJ-23" value="" style="ellipse;whiteSpace=wrap;html=1;aspect=fixed;rounded=0;strokeColor=default;align=center;verticalAlign=middle;fontFamily=Helvetica;fontSize=11;fontColor=default;labelBackgroundColor=default;shadow=1;" vertex="1" parent="1">
          <mxGeometry x="550" y="140" width="20" height="20" as="geometry" />
        </mxCell>
        <mxCell id="WSG69TyrN-b5efc3GzdJ-25" value="IdSubgenero" style="text;html=1;align=center;verticalAlign=middle;whiteSpace=wrap;rounded=0;shadow=1;fontFamily=Helvetica;fontSize=12;fontColor=default;labelBackgroundColor=default;glass=1;" vertex="1" parent="1">
          <mxGeometry x="580" y="145" width="60" height="30" as="geometry" />
        </mxCell>
        <mxCell id="WSG69TyrN-b5efc3GzdJ-27" value="" style="endArrow=none;html=1;rounded=0;" edge="1" parent="1">
          <mxGeometry width="50" height="50" relative="1" as="geometry">
            <mxPoint x="880" y="240" as="sourcePoint" />
            <mxPoint x="940" y="260" as="targetPoint" />
            <Array as="points">
              <mxPoint x="880" y="260" />
              <mxPoint x="900" y="260" />
              <mxPoint x="920" y="260" />
            </Array>
          </mxGeometry>
        </mxCell>
        <mxCell id="WSG69TyrN-b5efc3GzdJ-28" value="" style="ellipse;whiteSpace=wrap;html=1;aspect=fixed;rounded=0;strokeColor=default;align=center;verticalAlign=middle;fontFamily=Helvetica;fontSize=11;fontColor=default;labelBackgroundColor=default;shadow=1;" vertex="1" parent="1">
          <mxGeometry x="940" y="250" width="20" height="20" as="geometry" />
        </mxCell>
        <mxCell id="WSG69TyrN-b5efc3GzdJ-29" value="IdLivro" style="text;html=1;align=center;verticalAlign=middle;whiteSpace=wrap;rounded=0;shadow=1;fontFamily=Helvetica;fontSize=12;fontColor=default;labelBackgroundColor=default;glass=1;" vertex="1" parent="1">
          <mxGeometry x="960" y="245" width="60" height="30" as="geometry" />
        </mxCell>
        <mxCell id="WSG69TyrN-b5efc3GzdJ-30" value="" style="endArrow=none;html=1;rounded=0;" edge="1" parent="1">
          <mxGeometry width="50" height="50" relative="1" as="geometry">
            <mxPoint x="870" y="240" as="sourcePoint" />
            <mxPoint x="930" y="280" as="targetPoint" />
            <Array as="points">
              <mxPoint x="870" y="260" />
              <mxPoint x="870" y="280" />
              <mxPoint x="900" y="280" />
              <mxPoint x="920" y="280" />
            </Array>
          </mxGeometry>
        </mxCell>
        <mxCell id="WSG69TyrN-b5efc3GzdJ-31" value="" style="ellipse;whiteSpace=wrap;html=1;aspect=fixed;rounded=0;strokeColor=default;align=center;verticalAlign=middle;fontFamily=Helvetica;fontSize=11;fontColor=default;labelBackgroundColor=default;shadow=1;" vertex="1" parent="1">
          <mxGeometry x="930" y="270" width="20" height="20" as="geometry" />
        </mxCell>
        <mxCell id="WSG69TyrN-b5efc3GzdJ-32" value="IdUsuario" style="text;html=1;align=center;verticalAlign=middle;whiteSpace=wrap;rounded=0;shadow=1;fontFamily=Helvetica;fontSize=12;fontColor=default;labelBackgroundColor=default;glass=1;" vertex="1" parent="1">
          <mxGeometry x="950" y="275" width="60" height="30" as="geometry" />
        </mxCell>
        <mxCell id="WSG69TyrN-b5efc3GzdJ-35" value="" style="endArrow=none;html=1;rounded=0;" edge="1" parent="1">
          <mxGeometry width="50" height="50" relative="1" as="geometry">
            <mxPoint x="640" y="600" as="sourcePoint" />
            <mxPoint x="640" y="570" as="targetPoint" />
            <Array as="points">
              <mxPoint x="640" y="600" />
            </Array>
          </mxGeometry>
        </mxCell>
        <mxCell id="WSG69TyrN-b5efc3GzdJ-36" value="" style="ellipse;whiteSpace=wrap;html=1;aspect=fixed;rounded=0;strokeColor=default;align=center;verticalAlign=middle;fontFamily=Helvetica;fontSize=11;fontColor=default;labelBackgroundColor=default;shadow=1;" vertex="1" parent="1">
          <mxGeometry x="630" y="595" width="20" height="20" as="geometry" />
        </mxCell>
        <mxCell id="WSG69TyrN-b5efc3GzdJ-37" value="IdUsuario" style="text;html=1;align=center;verticalAlign=middle;whiteSpace=wrap;rounded=0;shadow=1;fontFamily=Helvetica;fontSize=12;fontColor=default;labelBackgroundColor=default;glass=1;" vertex="1" parent="1">
          <mxGeometry x="655" y="590" width="60" height="30" as="geometry" />
        </mxCell>
        <mxCell id="WSG69TyrN-b5efc3GzdJ-38" value="" style="endArrow=classic;html=1;rounded=0;" edge="1" parent="1">
          <mxGeometry width="50" height="50" relative="1" as="geometry">
            <mxPoint x="790" y="400" as="sourcePoint" />
            <mxPoint x="750" y="400" as="targetPoint" />
            <Array as="points">
              <mxPoint x="750" y="400" />
            </Array>
          </mxGeometry>
        </mxCell>
        <mxCell id="WSG69TyrN-b5efc3GzdJ-39" value="&lt;div&gt;&lt;br&gt;&lt;/div&gt;&lt;div&gt;&lt;br&gt;&lt;/div&gt;&lt;div&gt;&lt;br&gt;&lt;/div&gt;&lt;div&gt;&lt;br&gt;&lt;/div&gt;&lt;div&gt;&lt;br&gt;&lt;/div&gt;&lt;div&gt;&lt;br&gt;&lt;/div&gt;&lt;div&gt;&lt;br&gt;&lt;/div&gt;&lt;div&gt;&lt;br&gt;&lt;/div&gt;&lt;div&gt;&lt;br&gt;&lt;/div&gt;&lt;div&gt;&lt;br&gt;&lt;/div&gt;&lt;div&gt;&lt;br&gt;&lt;/div&gt;&lt;div&gt;&lt;br&gt;&lt;/div&gt;&lt;div&gt;&lt;br&gt;&lt;/div&gt;&lt;div&gt;&lt;br&gt;&lt;/div&gt;&lt;div&gt;&lt;br&gt;&lt;/div&gt;&lt;div&gt;&lt;br&gt;&lt;/div&gt;&lt;div&gt;&lt;br&gt;&lt;/div&gt;&lt;div&gt;&lt;br&gt;&lt;/div&gt;&lt;div&gt;&lt;br&gt;&lt;/div&gt;&lt;div&gt;&lt;br&gt;&lt;/div&gt;&lt;div&gt;&lt;br&gt;&lt;/div&gt;&lt;div&gt;&lt;br&gt;&lt;/div&gt;&lt;div&gt;&lt;br&gt;&lt;/div&gt;" style="rhombus;whiteSpace=wrap;html=1;fillColor=light-dark(#f7f7f7, #ededed);gradientColor=light-dark(#cccccc, #ededed);strokeColor=default;" vertex="1" parent="1">
          <mxGeometry x="620" y="375" width="130" height="50" as="geometry" />
        </mxCell>
        <mxCell id="WSG69TyrN-b5efc3GzdJ-40" value="" style="endArrow=none;html=1;rounded=0;strokeColor=default;align=center;verticalAlign=middle;fontFamily=Helvetica;fontSize=11;fontColor=default;labelBackgroundColor=default;shadow=1;" edge="1" parent="1" target="WSG69TyrN-b5efc3GzdJ-11">
          <mxGeometry width="50" height="50" relative="1" as="geometry">
            <mxPoint x="520" y="390" as="sourcePoint" />
            <mxPoint x="530" y="390" as="targetPoint" />
            <Array as="points">
              <mxPoint x="550" y="390" />
              <mxPoint x="540" y="390" />
            </Array>
          </mxGeometry>
        </mxCell>
        <mxCell id="WSG69TyrN-b5efc3GzdJ-11" value="" style="ellipse;whiteSpace=wrap;html=1;aspect=fixed;shadow=1;" vertex="1" parent="1">
          <mxGeometry x="540" y="380" width="20" height="20" as="geometry" />
        </mxCell>
        <mxCell id="WSG69TyrN-b5efc3GzdJ-41" value="" style="endArrow=none;html=1;rounded=0;strokeColor=default;align=center;verticalAlign=middle;fontFamily=Helvetica;fontSize=11;fontColor=default;labelBackgroundColor=default;shadow=1;" edge="1" parent="1">
          <mxGeometry width="50" height="50" relative="1" as="geometry">
            <mxPoint x="540" y="350" as="sourcePoint" />
            <mxPoint x="530" y="350" as="targetPoint" />
            <Array as="points">
              <mxPoint x="480" y="350" />
            </Array>
          </mxGeometry>
        </mxCell>
        <mxCell id="WSG69TyrN-b5efc3GzdJ-42" value="" style="endArrow=classic;html=1;rounded=0;exitX=0;exitY=0.5;exitDx=0;exitDy=0;" edge="1" parent="1" source="WSG69TyrN-b5efc3GzdJ-39">
          <mxGeometry width="50" height="50" relative="1" as="geometry">
            <mxPoint x="560" y="400" as="sourcePoint" />
            <mxPoint x="620" y="500" as="targetPoint" />
            <Array as="points">
              <mxPoint x="620" y="450" />
              <mxPoint x="620" y="500" />
            </Array>
          </mxGeometry>
        </mxCell>
        <mxCell id="WSG69TyrN-b5efc3GzdJ-44" value="Cria" style="text;html=1;align=center;verticalAlign=middle;whiteSpace=wrap;rounded=0;textShadow=1;glass=1;" vertex="1" parent="1">
          <mxGeometry x="655" y="385" width="60" height="30" as="geometry" />
        </mxCell>
        <mxCell id="WSG69TyrN-b5efc3GzdJ-45" value="1" style="text;html=1;align=center;verticalAlign=middle;whiteSpace=wrap;rounded=0;" vertex="1" parent="1">
          <mxGeometry x="760" y="375" width="60" height="30" as="geometry" />
        </mxCell>
        <mxCell id="WSG69TyrN-b5efc3GzdJ-46" value="N" style="text;html=1;align=center;verticalAlign=middle;whiteSpace=wrap;rounded=0;" vertex="1" parent="1">
          <mxGeometry x="600" y="480" width="60" height="30" as="geometry" />
        </mxCell>
        <mxCell id="WSG69TyrN-b5efc3GzdJ-47" value="IdLivro" style="text;html=1;align=center;verticalAlign=middle;whiteSpace=wrap;rounded=0;shadow=1;fontFamily=Helvetica;fontSize=12;fontColor=default;labelBackgroundColor=default;" vertex="1" parent="1">
          <mxGeometry x="560" y="335" width="60" height="30" as="geometry" />
        </mxCell>
      </root>
    </mxGraphModel>
  </diagram>
</mxfile>
